G04*
G04 #@! TF.GenerationSoftware,Altium Limited,Altium Designer,21.2.2 (38)*
G04*
G04 Layer_Color=16711935*
%FSLAX25Y25*%
%MOIN*%
G70*
G04*
G04 #@! TF.SameCoordinates,D283CC76-0160-4898-B3E9-D7649964E2CE*
G04*
G04*
G04 #@! TF.FilePolarity,Positive*
G04*
G01*
G75*
%ADD10C,0.00787*%
%ADD12C,0.00394*%
D10*
X345493Y303933D02*
G03*
X345493Y338972I0J17520D01*
G01*
D02*
G03*
X345493Y303933I0J-17520D01*
G01*
D12*
X299335Y326437D02*
G03*
X299335Y326437I-10335J0D01*
G01*
X299241Y350040D02*
G03*
X299241Y350040I-10335J0D01*
G01*
X273732Y319500D02*
G03*
X273732Y319500I-16732J0D01*
G01*
X234835Y349937D02*
G03*
X234835Y349937I-10335J0D01*
G01*
Y323563D02*
G03*
X234835Y323563I-10335J0D01*
G01*
X212000Y288201D02*
G03*
X212000Y266799I0J-10701D01*
G01*
D02*
G03*
X212000Y288201I0J10701D01*
G01*
X239272Y237000D02*
G03*
X239272Y237000I-10335J0D01*
G01*
X290335Y282063D02*
G03*
X290335Y282063I-10335J0D01*
G01*
X332335Y315563D02*
G03*
X332335Y315563I-10335J0D01*
G01*
X332335Y285542D02*
G03*
X332335Y285542I-10335J0D01*
G01*
X432732Y236000D02*
G03*
X432732Y236000I-16732J0D01*
G01*
X273732Y354000D02*
G03*
X273732Y354000I-16732J0D01*
G01*
X290335Y251563D02*
G03*
X290335Y251563I-10335J0D01*
G01*
Y228563D02*
G03*
X290335Y228563I-10335J0D01*
G01*
X468525Y338572D02*
G03*
X468525Y338572I-10335J0D01*
G01*
X468699Y315023D02*
G03*
X468699Y315023I-10335J0D01*
G01*
X436898Y339500D02*
G03*
X436898Y339500I-10335J0D01*
G01*
X202945Y269232D02*
X203811Y270216D01*
X202945Y269232D02*
X204323Y267854D01*
X205701Y269232D01*
X265760Y268512D02*
Y287528D01*
X228240Y268512D02*
Y287528D01*
Y268512D02*
X265760D01*
X228240Y287528D02*
X265760D01*
X206598Y250276D02*
Y259724D01*
X231402D01*
X206598Y250276D02*
X231402D01*
Y259724D01*
X254276Y228598D02*
X263724D01*
X254276D02*
Y253402D01*
X263724Y228598D02*
Y253402D01*
X254276D02*
X263724D01*
X310036Y293984D02*
Y303432D01*
X285233Y293984D02*
X310036D01*
X285233Y303432D02*
X310036D01*
X285233Y293984D02*
Y303432D01*
X335350Y334142D02*
X352083D01*
X335350Y326858D02*
Y334142D01*
X352083Y326858D02*
Y334142D01*
X335350Y326858D02*
X352083D01*
X302000Y267500D02*
X307000Y272500D01*
X302000Y232500D02*
Y272500D01*
Y232500D02*
X329000D01*
Y272500D01*
X302000D02*
X329000D01*
X347098Y242776D02*
Y252224D01*
X371902D01*
X347098Y242776D02*
X371902D01*
Y252224D01*
X384508Y266807D02*
X389508Y271807D01*
X384508Y256020D02*
Y271807D01*
Y256020D02*
X425492D01*
Y271807D01*
X384508D02*
X425492D01*
X427508Y272307D02*
X468492D01*
Y256520D02*
Y272307D01*
X427508Y256520D02*
X468492D01*
X427508D02*
Y272307D01*
Y267307D02*
X432508Y272307D01*
X341791Y266697D02*
X346791Y271697D01*
X341791Y253390D02*
Y271697D01*
Y253390D02*
X383209D01*
Y271697D01*
X341791D02*
X383209D01*
X242276Y253402D02*
X251724D01*
Y228598D02*
Y253402D01*
X242276Y228598D02*
Y253402D01*
Y228598D02*
X251724D01*
X403042Y335406D02*
X412491D01*
X403042D02*
Y360209D01*
X412491Y335406D02*
Y360209D01*
X403042D02*
X412491D01*
X366776Y341598D02*
X376224D01*
X366776D02*
Y366402D01*
X376224Y341598D02*
Y366402D01*
X366776D02*
X376224D01*
X432134Y357642D02*
X448866D01*
X432134Y350358D02*
Y357642D01*
X448866Y350358D02*
Y357642D01*
X432134Y350358D02*
X448866D01*
X379012Y327740D02*
X398028D01*
X379012Y365260D02*
X398028D01*
X379012Y327740D02*
Y365260D01*
X398028Y327740D02*
Y365260D01*
X438355Y302902D02*
X443356Y307902D01*
Y302902D02*
Y318689D01*
X402371D02*
X443356D01*
X402371Y302902D02*
Y318689D01*
Y302902D02*
X443356D01*
X340752Y302902D02*
X382248D01*
X340752D02*
Y321406D01*
X382248D01*
Y302902D02*
Y321406D01*
X377248Y302902D02*
X382248Y307902D01*
M02*
