G04*
G04 #@! TF.GenerationSoftware,Altium Limited,Altium Designer,21.2.2 (38)*
G04*
G04 Layer_Color=255*
%FSLAX25Y25*%
%MOIN*%
G70*
G04*
G04 #@! TF.SameCoordinates,D283CC76-0160-4898-B3E9-D7649964E2CE*
G04*
G04*
G04 #@! TF.FilePolarity,Positive*
G04*
G01*
G75*
%ADD46C,0.05020*%
%ADD47R,0.05020X0.05020*%
%ADD48C,0.05512*%
%ADD49R,0.05512X0.05512*%
%ADD50C,0.06000*%
%ADD51C,0.04654*%
%ADD52R,0.04654X0.04654*%
%ADD53C,0.05118*%
%ADD54R,0.05118X0.05118*%
%ADD55C,0.05315*%
%ADD56R,0.05315X0.05315*%
%ADD57R,0.05020X0.05020*%
%ADD58C,0.04461*%
%ADD59R,0.04461X0.04461*%
%ADD60C,0.06614*%
%ADD61R,0.06614X0.06614*%
%ADD62R,0.05906X0.05906*%
%ADD63C,0.05906*%
%ADD64R,0.05906X0.05906*%
%ADD65C,0.08209*%
%ADD66R,0.08209X0.08209*%
%ADD67R,0.05118X0.05118*%
%ADD68C,0.04842*%
%ADD69R,0.07618X0.07618*%
%ADD70C,0.07618*%
D46*
X458364Y318960D02*
D03*
X458191Y334635D02*
D03*
X289000Y322500D02*
D03*
X288907Y353977D02*
D03*
X224500Y353874D02*
D03*
Y327500D02*
D03*
X232874Y237000D02*
D03*
X280000Y286000D02*
D03*
X318063Y315563D02*
D03*
X318064Y285542D02*
D03*
X280000Y247626D02*
D03*
Y232500D02*
D03*
X430500Y339500D02*
D03*
D47*
X289000Y330374D02*
D03*
X288907Y346103D02*
D03*
X224500Y346000D02*
D03*
Y319626D02*
D03*
X280000Y278126D02*
D03*
Y255500D02*
D03*
Y224626D02*
D03*
X458191Y342509D02*
D03*
X458364Y311086D02*
D03*
D48*
X266843Y319500D02*
D03*
X425843Y236000D02*
D03*
X406157D02*
D03*
X266843Y354000D02*
D03*
D49*
X247158Y319500D02*
D03*
Y354000D02*
D03*
D50*
X204000Y339500D02*
D03*
Y329500D02*
D03*
Y319500D02*
D03*
D51*
X207000Y277500D02*
D03*
X212000Y282500D02*
D03*
X217000Y277500D02*
D03*
D52*
X212000Y272500D02*
D03*
D53*
X257000Y278000D02*
D03*
X247000D02*
D03*
X388500Y336500D02*
D03*
Y346500D02*
D03*
D54*
X237000Y278000D02*
D03*
D55*
X201284Y255000D02*
D03*
X259000Y223284D02*
D03*
Y258717D02*
D03*
X315351Y298708D02*
D03*
X361433Y330500D02*
D03*
X326000D02*
D03*
X341783Y247500D02*
D03*
X247000Y258717D02*
D03*
Y223284D02*
D03*
X407767Y330091D02*
D03*
Y365524D02*
D03*
X371500Y336283D02*
D03*
Y371716D02*
D03*
X458216Y354000D02*
D03*
X422784D02*
D03*
D56*
X236717Y255000D02*
D03*
X279918Y298708D02*
D03*
X377217Y247500D02*
D03*
D57*
X225000Y237000D02*
D03*
X325937Y315563D02*
D03*
X325938Y285542D02*
D03*
X422626Y339500D02*
D03*
D58*
X331126Y267500D02*
D03*
Y257500D02*
D03*
Y247500D02*
D03*
Y237500D02*
D03*
X299874D02*
D03*
Y247500D02*
D03*
Y257500D02*
D03*
D59*
Y267500D02*
D03*
D60*
X420000Y263500D02*
D03*
X410000D02*
D03*
X400000D02*
D03*
X443000Y264000D02*
D03*
X453000D02*
D03*
X463000D02*
D03*
X407863Y311209D02*
D03*
X417863D02*
D03*
X427863D02*
D03*
D61*
X390000Y263500D02*
D03*
X433000Y264000D02*
D03*
X437863Y311209D02*
D03*
D62*
X418000Y322000D02*
D03*
X449500Y245500D02*
D03*
D63*
X428000Y322000D02*
D03*
X392000Y225000D02*
D03*
X382000D02*
D03*
X439500Y245500D02*
D03*
X463000Y236000D02*
D03*
D64*
Y246000D02*
D03*
D65*
X372500Y259000D02*
D03*
X362500D02*
D03*
D66*
X352500D02*
D03*
D67*
X388500Y356500D02*
D03*
D68*
X345493Y346500D02*
D03*
X355473Y356492D02*
D03*
X345493Y366480D02*
D03*
D69*
X371500Y315500D02*
D03*
D70*
X361500D02*
D03*
X351500D02*
D03*
M02*
