G04*
G04 #@! TF.GenerationSoftware,Altium Limited,Altium Designer,21.2.2 (38)*
G04*
G04 Layer_Color=32896*
%FSLAX25Y25*%
%MOIN*%
G70*
G04*
G04 #@! TF.SameCoordinates,D283CC76-0160-4898-B3E9-D7649964E2CE*
G04*
G04*
G04 #@! TF.FilePolarity,Positive*
G04*
G01*
G75*
%ADD13C,0.01000*%
G36*
X348611Y300633D02*
X348747Y300620D01*
X348876Y300601D01*
X348980Y300581D01*
X349071Y300562D01*
X349136Y300542D01*
X349162Y300536D01*
X349181Y300530D01*
X349187Y300523D01*
X349194D01*
X349304Y300478D01*
X349401Y300419D01*
X349485Y300367D01*
X349557Y300316D01*
X349609Y300264D01*
X349647Y300225D01*
X349673Y300199D01*
X349680Y300193D01*
X349738Y300108D01*
X349790Y300018D01*
X349829Y299927D01*
X349861Y299843D01*
X349887Y299758D01*
X349907Y299700D01*
X349913Y299674D01*
Y299655D01*
X349920Y299648D01*
Y299642D01*
X349382Y299570D01*
X349343Y299687D01*
X349304Y299791D01*
X349259Y299875D01*
X349220Y299940D01*
X349181Y299992D01*
X349149Y300024D01*
X349123Y300044D01*
X349116Y300050D01*
X349038Y300095D01*
X348948Y300128D01*
X348850Y300154D01*
X348760Y300167D01*
X348669Y300180D01*
X348604Y300186D01*
X348539D01*
X348390Y300180D01*
X348261Y300160D01*
X348157Y300128D01*
X348066Y300095D01*
X348002Y300057D01*
X347950Y300031D01*
X347917Y300005D01*
X347911Y299998D01*
X347859Y299940D01*
X347820Y299869D01*
X347788Y299791D01*
X347768Y299713D01*
X347755Y299642D01*
X347749Y299577D01*
Y299538D01*
Y299532D01*
Y299525D01*
Y299512D01*
Y299486D01*
Y299441D01*
X347755Y299402D01*
Y299389D01*
Y299383D01*
X347820Y299363D01*
X347891Y299344D01*
X348041Y299305D01*
X348209Y299272D01*
X348364Y299240D01*
X348442Y299227D01*
X348514Y299221D01*
X348578Y299208D01*
X348630Y299201D01*
X348675Y299195D01*
X348708D01*
X348734Y299188D01*
X348740D01*
X348857Y299175D01*
X348954Y299156D01*
X349038Y299143D01*
X349103Y299130D01*
X349155Y299123D01*
X349194Y299110D01*
X349220Y299104D01*
X349226D01*
X349311Y299078D01*
X349382Y299052D01*
X349453Y299020D01*
X349511Y298994D01*
X349563Y298968D01*
X349596Y298942D01*
X349622Y298929D01*
X349628Y298922D01*
X349693Y298877D01*
X349745Y298825D01*
X349797Y298773D01*
X349835Y298722D01*
X349868Y298676D01*
X349894Y298637D01*
X349907Y298611D01*
X349913Y298605D01*
X349946Y298534D01*
X349972Y298456D01*
X349991Y298385D01*
X350004Y298313D01*
X350010Y298255D01*
X350017Y298210D01*
Y298184D01*
Y298171D01*
X350010Y298093D01*
X350004Y298028D01*
X349972Y297892D01*
X349926Y297782D01*
X349874Y297685D01*
X349822Y297607D01*
X349777Y297549D01*
X349745Y297516D01*
X349732Y297503D01*
X349615Y297419D01*
X349485Y297354D01*
X349343Y297309D01*
X349213Y297277D01*
X349097Y297257D01*
X349045Y297251D01*
X349000D01*
X348961Y297244D01*
X348909D01*
X348792Y297251D01*
X348675Y297264D01*
X348572Y297277D01*
X348481Y297296D01*
X348410Y297315D01*
X348352Y297335D01*
X348313Y297341D01*
X348300Y297348D01*
X348189Y297393D01*
X348086Y297451D01*
X347989Y297516D01*
X347891Y297575D01*
X347814Y297633D01*
X347755Y297678D01*
X347716Y297711D01*
X347710Y297724D01*
X347704D01*
X347691Y297639D01*
X347678Y297562D01*
X347665Y297490D01*
X347645Y297432D01*
X347626Y297380D01*
X347613Y297348D01*
X347606Y297322D01*
X347600Y297315D01*
X347023D01*
X347056Y297387D01*
X347088Y297458D01*
X347114Y297523D01*
X347127Y297581D01*
X347146Y297633D01*
X347153Y297672D01*
X347159Y297698D01*
Y297704D01*
X347166Y297750D01*
X347172Y297808D01*
Y297873D01*
X347179Y297944D01*
X347185Y298106D01*
Y298268D01*
X347192Y298424D01*
Y298495D01*
Y298553D01*
Y298605D01*
Y298644D01*
Y298670D01*
Y298676D01*
Y299415D01*
Y299538D01*
X347198Y299648D01*
X347205Y299732D01*
Y299804D01*
X347211Y299856D01*
X347217Y299894D01*
X347224Y299914D01*
Y299920D01*
X347243Y300005D01*
X347269Y300076D01*
X347295Y300134D01*
X347328Y300193D01*
X347354Y300231D01*
X347373Y300264D01*
X347386Y300283D01*
X347393Y300290D01*
X347444Y300342D01*
X347503Y300393D01*
X347567Y300432D01*
X347632Y300471D01*
X347691Y300497D01*
X347736Y300517D01*
X347768Y300530D01*
X347781Y300536D01*
X347885Y300568D01*
X347995Y300594D01*
X348105Y300614D01*
X348215Y300627D01*
X348313Y300633D01*
X348384Y300640D01*
X348455D01*
X348611Y300633D01*
D02*
G37*
G36*
X341988D02*
X342124Y300620D01*
X342254Y300601D01*
X342357Y300581D01*
X342448Y300562D01*
X342513Y300542D01*
X342539Y300536D01*
X342558Y300530D01*
X342565Y300523D01*
X342571D01*
X342682Y300478D01*
X342779Y300419D01*
X342863Y300367D01*
X342934Y300316D01*
X342986Y300264D01*
X343025Y300225D01*
X343051Y300199D01*
X343057Y300193D01*
X343116Y300108D01*
X343167Y300018D01*
X343206Y299927D01*
X343239Y299843D01*
X343265Y299758D01*
X343284Y299700D01*
X343291Y299674D01*
Y299655D01*
X343297Y299648D01*
Y299642D01*
X342759Y299570D01*
X342720Y299687D01*
X342682Y299791D01*
X342636Y299875D01*
X342597Y299940D01*
X342558Y299992D01*
X342526Y300024D01*
X342500Y300044D01*
X342494Y300050D01*
X342416Y300095D01*
X342325Y300128D01*
X342228Y300154D01*
X342137Y300167D01*
X342046Y300180D01*
X341982Y300186D01*
X341917D01*
X341768Y300180D01*
X341638Y300160D01*
X341535Y300128D01*
X341444Y300095D01*
X341379Y300057D01*
X341327Y300031D01*
X341295Y300005D01*
X341288Y299998D01*
X341236Y299940D01*
X341198Y299869D01*
X341165Y299791D01*
X341146Y299713D01*
X341133Y299642D01*
X341126Y299577D01*
Y299538D01*
Y299532D01*
Y299525D01*
Y299512D01*
Y299486D01*
Y299441D01*
X341133Y299402D01*
Y299389D01*
Y299383D01*
X341198Y299363D01*
X341269Y299344D01*
X341418Y299305D01*
X341586Y299272D01*
X341742Y299240D01*
X341820Y299227D01*
X341891Y299221D01*
X341956Y299208D01*
X342008Y299201D01*
X342053Y299195D01*
X342085D01*
X342111Y299188D01*
X342118D01*
X342234Y299175D01*
X342332Y299156D01*
X342416Y299143D01*
X342481Y299130D01*
X342532Y299123D01*
X342571Y299110D01*
X342597Y299104D01*
X342604D01*
X342688Y299078D01*
X342759Y299052D01*
X342831Y299020D01*
X342889Y298994D01*
X342941Y298968D01*
X342973Y298942D01*
X342999Y298929D01*
X343005Y298922D01*
X343070Y298877D01*
X343122Y298825D01*
X343174Y298773D01*
X343213Y298722D01*
X343245Y298676D01*
X343271Y298637D01*
X343284Y298611D01*
X343291Y298605D01*
X343323Y298534D01*
X343349Y298456D01*
X343368Y298385D01*
X343381Y298313D01*
X343388Y298255D01*
X343394Y298210D01*
Y298184D01*
Y298171D01*
X343388Y298093D01*
X343381Y298028D01*
X343349Y297892D01*
X343304Y297782D01*
X343252Y297685D01*
X343200Y297607D01*
X343155Y297549D01*
X343122Y297516D01*
X343109Y297503D01*
X342993Y297419D01*
X342863Y297354D01*
X342720Y297309D01*
X342591Y297277D01*
X342474Y297257D01*
X342422Y297251D01*
X342377D01*
X342338Y297244D01*
X342286D01*
X342170Y297251D01*
X342053Y297264D01*
X341949Y297277D01*
X341859Y297296D01*
X341787Y297315D01*
X341729Y297335D01*
X341690Y297341D01*
X341677Y297348D01*
X341567Y297393D01*
X341463Y297451D01*
X341366Y297516D01*
X341269Y297575D01*
X341191Y297633D01*
X341133Y297678D01*
X341094Y297711D01*
X341087Y297724D01*
X341081D01*
X341068Y297639D01*
X341055Y297562D01*
X341042Y297490D01*
X341023Y297432D01*
X341003Y297380D01*
X340990Y297348D01*
X340984Y297322D01*
X340977Y297315D01*
X340401D01*
X340433Y297387D01*
X340465Y297458D01*
X340491Y297523D01*
X340504Y297581D01*
X340524Y297633D01*
X340530Y297672D01*
X340537Y297698D01*
Y297704D01*
X340543Y297750D01*
X340550Y297808D01*
Y297873D01*
X340556Y297944D01*
X340563Y298106D01*
Y298268D01*
X340569Y298424D01*
Y298495D01*
Y298553D01*
Y298605D01*
Y298644D01*
Y298670D01*
Y298676D01*
Y299415D01*
Y299538D01*
X340576Y299648D01*
X340582Y299732D01*
Y299804D01*
X340588Y299856D01*
X340595Y299894D01*
X340601Y299914D01*
Y299920D01*
X340621Y300005D01*
X340647Y300076D01*
X340673Y300134D01*
X340705Y300193D01*
X340731Y300231D01*
X340751Y300264D01*
X340763Y300283D01*
X340770Y300290D01*
X340822Y300342D01*
X340880Y300393D01*
X340945Y300432D01*
X341010Y300471D01*
X341068Y300497D01*
X341113Y300517D01*
X341146Y300530D01*
X341159Y300536D01*
X341262Y300568D01*
X341373Y300594D01*
X341483Y300614D01*
X341593Y300627D01*
X341690Y300633D01*
X341761Y300640D01*
X341833D01*
X341988Y300633D01*
D02*
G37*
G36*
X355000Y297315D02*
X354430D01*
Y301132D01*
X353134Y297315D01*
X352602D01*
X351293Y301067D01*
Y297315D01*
X350723D01*
Y301800D01*
X351520D01*
X352596Y298676D01*
X352654Y298508D01*
X352700Y298365D01*
X352745Y298242D01*
X352777Y298138D01*
X352803Y298061D01*
X352823Y298002D01*
X352829Y297970D01*
X352836Y297957D01*
X352862Y298048D01*
X352894Y298151D01*
X352933Y298261D01*
X352965Y298372D01*
X352998Y298469D01*
X353024Y298547D01*
X353037Y298579D01*
X353043Y298599D01*
X353049Y298611D01*
Y298618D01*
X354112Y301800D01*
X355000D01*
Y297315D01*
D02*
G37*
G36*
X345429D02*
X345455Y297257D01*
X345468Y297212D01*
X345481Y297186D01*
Y297179D01*
X345520Y297069D01*
X345559Y296978D01*
X345585Y296901D01*
X345610Y296849D01*
X345623Y296810D01*
X345636Y296784D01*
X345649Y296771D01*
Y296765D01*
X345701Y296693D01*
X345760Y296641D01*
X345785Y296622D01*
X345805Y296609D01*
X345818Y296596D01*
X345824D01*
X345870Y296577D01*
X345915Y296557D01*
X346012Y296538D01*
X346051D01*
X346083Y296531D01*
X346116D01*
X346220Y296538D01*
X346323Y296557D01*
X346362Y296570D01*
X346395Y296577D01*
X346421Y296583D01*
X346427D01*
X346369Y296071D01*
X346297Y296045D01*
X346233Y296032D01*
X346174Y296019D01*
X346122Y296006D01*
X346077D01*
X346045Y296000D01*
X346019D01*
X345921Y296006D01*
X345837Y296019D01*
X345760Y296039D01*
X345695Y296065D01*
X345636Y296091D01*
X345598Y296110D01*
X345572Y296123D01*
X345565Y296130D01*
X345494Y296181D01*
X345436Y296246D01*
X345377Y296311D01*
X345325Y296376D01*
X345286Y296434D01*
X345254Y296480D01*
X345235Y296512D01*
X345228Y296525D01*
X345209Y296570D01*
X345183Y296616D01*
X345131Y296726D01*
X345079Y296849D01*
X345034Y296972D01*
X344988Y297082D01*
X344969Y297134D01*
X344950Y297179D01*
X344937Y297212D01*
X344924Y297238D01*
X344917Y297257D01*
Y297264D01*
X343679Y300568D01*
X344230D01*
X344930Y298670D01*
X344982Y298534D01*
X345021Y298404D01*
X345066Y298274D01*
X345099Y298164D01*
X345125Y298067D01*
X345137Y298028D01*
X345144Y297996D01*
X345150Y297970D01*
X345157Y297951D01*
X345163Y297937D01*
Y297931D01*
X345202Y298080D01*
X345241Y298216D01*
X345280Y298346D01*
X345319Y298456D01*
X345351Y298547D01*
X345364Y298586D01*
X345377Y298618D01*
X345384Y298650D01*
X345390Y298670D01*
X345397Y298676D01*
Y298683D01*
X346077Y300568D01*
X346660D01*
X345429Y297315D01*
D02*
G37*
G36*
X338320Y300633D02*
X338437Y300614D01*
X338541Y300588D01*
X338645Y300555D01*
X338735Y300517D01*
X338819Y300471D01*
X338897Y300419D01*
X338962Y300374D01*
X339027Y300322D01*
X339079Y300270D01*
X339124Y300225D01*
X339163Y300186D01*
X339189Y300154D01*
X339208Y300128D01*
X339221Y300108D01*
X339228Y300102D01*
Y300568D01*
X339720D01*
Y297315D01*
X339169D01*
Y299084D01*
Y299195D01*
X339156Y299305D01*
X339143Y299395D01*
X339130Y299480D01*
X339111Y299557D01*
X339092Y299629D01*
X339066Y299694D01*
X339040Y299745D01*
X339020Y299791D01*
X338994Y299830D01*
X338975Y299862D01*
X338955Y299888D01*
X338930Y299920D01*
X338917Y299933D01*
X338819Y300011D01*
X338716Y300063D01*
X338612Y300102D01*
X338521Y300134D01*
X338437Y300147D01*
X338372Y300154D01*
X338346Y300160D01*
X338314D01*
X338236Y300154D01*
X338158Y300147D01*
X338094Y300128D01*
X338042Y300108D01*
X337997Y300089D01*
X337958Y300076D01*
X337938Y300063D01*
X337932Y300057D01*
X337873Y300018D01*
X337822Y299972D01*
X337783Y299927D01*
X337750Y299888D01*
X337731Y299849D01*
X337711Y299817D01*
X337698Y299797D01*
Y299791D01*
X337679Y299720D01*
X337660Y299642D01*
X337647Y299557D01*
X337640Y299473D01*
X337634Y299402D01*
Y299344D01*
Y299298D01*
Y299292D01*
Y299285D01*
Y297315D01*
X337083D01*
Y299311D01*
Y299447D01*
X337089Y299557D01*
X337096Y299648D01*
Y299726D01*
X337102Y299778D01*
X337109Y299817D01*
X337115Y299843D01*
Y299849D01*
X337135Y299933D01*
X337167Y300011D01*
X337193Y300076D01*
X337219Y300141D01*
X337251Y300186D01*
X337271Y300219D01*
X337284Y300244D01*
X337290Y300251D01*
X337342Y300316D01*
X337400Y300367D01*
X337459Y300419D01*
X337523Y300458D01*
X337575Y300491D01*
X337621Y300510D01*
X337647Y300523D01*
X337660Y300530D01*
X337750Y300568D01*
X337847Y300594D01*
X337938Y300614D01*
X338022Y300627D01*
X338094Y300633D01*
X338145Y300640D01*
X338197D01*
X338320Y300633D01*
D02*
G37*
G36*
X334173Y300193D02*
X334232Y300264D01*
X334296Y300322D01*
X334355Y300380D01*
X334419Y300426D01*
X334471Y300458D01*
X334510Y300491D01*
X334536Y300504D01*
X334549Y300510D01*
X334633Y300555D01*
X334724Y300588D01*
X334815Y300607D01*
X334899Y300627D01*
X334970Y300633D01*
X335022Y300640D01*
X335074D01*
X335217Y300633D01*
X335353Y300607D01*
X335476Y300575D01*
X335579Y300536D01*
X335670Y300491D01*
X335735Y300458D01*
X335761Y300445D01*
X335780Y300432D01*
X335787Y300426D01*
X335793D01*
X335910Y300342D01*
X336007Y300238D01*
X336091Y300141D01*
X336156Y300044D01*
X336208Y299953D01*
X336247Y299882D01*
X336260Y299856D01*
X336273Y299836D01*
X336279Y299823D01*
Y299817D01*
X336331Y299668D01*
X336370Y299512D01*
X336402Y299363D01*
X336422Y299227D01*
X336435Y299110D01*
Y299059D01*
X336441Y299020D01*
Y298981D01*
Y298955D01*
Y298942D01*
Y298935D01*
X336435Y298754D01*
X336415Y298586D01*
X336383Y298436D01*
X336351Y298307D01*
X336338Y298249D01*
X336325Y298203D01*
X336305Y298158D01*
X336292Y298119D01*
X336279Y298093D01*
X336273Y298074D01*
X336266Y298061D01*
Y298054D01*
X336195Y297918D01*
X336111Y297801D01*
X336027Y297698D01*
X335942Y297614D01*
X335871Y297549D01*
X335813Y297497D01*
X335774Y297471D01*
X335767Y297458D01*
X335761D01*
X335638Y297387D01*
X335515Y297335D01*
X335391Y297296D01*
X335281Y297270D01*
X335191Y297257D01*
X335113Y297251D01*
X335087Y297244D01*
X335048D01*
X334938Y297251D01*
X334834Y297264D01*
X334737Y297289D01*
X334653Y297322D01*
X334569Y297354D01*
X334491Y297393D01*
X334426Y297439D01*
X334368Y297484D01*
X334309Y297529D01*
X334264Y297575D01*
X334225Y297614D01*
X334193Y297646D01*
X334167Y297678D01*
X334147Y297704D01*
X334141Y297717D01*
X334134Y297724D01*
Y297315D01*
X333623D01*
Y301800D01*
X334173D01*
Y300193D01*
D02*
G37*
G36*
X371413Y301171D02*
X370862D01*
Y301800D01*
X371413D01*
Y301171D01*
D02*
G37*
G36*
X363922Y300633D02*
X364058Y300620D01*
X364188Y300601D01*
X364291Y300581D01*
X364382Y300562D01*
X364447Y300542D01*
X364473Y300536D01*
X364492Y300530D01*
X364499Y300523D01*
X364505D01*
X364615Y300478D01*
X364713Y300419D01*
X364797Y300367D01*
X364868Y300316D01*
X364920Y300264D01*
X364959Y300225D01*
X364985Y300199D01*
X364991Y300193D01*
X365050Y300108D01*
X365101Y300018D01*
X365140Y299927D01*
X365173Y299843D01*
X365199Y299758D01*
X365218Y299700D01*
X365225Y299674D01*
Y299655D01*
X365231Y299648D01*
Y299642D01*
X364693Y299570D01*
X364654Y299687D01*
X364615Y299791D01*
X364570Y299875D01*
X364531Y299940D01*
X364492Y299992D01*
X364460Y300024D01*
X364434Y300044D01*
X364427Y300050D01*
X364350Y300095D01*
X364259Y300128D01*
X364162Y300154D01*
X364071Y300167D01*
X363980Y300180D01*
X363916Y300186D01*
X363851D01*
X363702Y300180D01*
X363572Y300160D01*
X363469Y300128D01*
X363378Y300095D01*
X363313Y300057D01*
X363261Y300031D01*
X363229Y300005D01*
X363222Y299998D01*
X363170Y299940D01*
X363131Y299869D01*
X363099Y299791D01*
X363080Y299713D01*
X363067Y299642D01*
X363060Y299577D01*
Y299538D01*
Y299532D01*
Y299525D01*
Y299512D01*
Y299486D01*
Y299441D01*
X363067Y299402D01*
Y299389D01*
Y299383D01*
X363131Y299363D01*
X363203Y299344D01*
X363352Y299305D01*
X363520Y299272D01*
X363676Y299240D01*
X363754Y299227D01*
X363825Y299221D01*
X363890Y299208D01*
X363942Y299201D01*
X363987Y299195D01*
X364019D01*
X364045Y299188D01*
X364052D01*
X364168Y299175D01*
X364265Y299156D01*
X364350Y299143D01*
X364415Y299130D01*
X364466Y299123D01*
X364505Y299110D01*
X364531Y299104D01*
X364538D01*
X364622Y299078D01*
X364693Y299052D01*
X364764Y299020D01*
X364823Y298994D01*
X364875Y298968D01*
X364907Y298942D01*
X364933Y298929D01*
X364939Y298922D01*
X365004Y298877D01*
X365056Y298825D01*
X365108Y298773D01*
X365147Y298722D01*
X365179Y298676D01*
X365205Y298637D01*
X365218Y298611D01*
X365225Y298605D01*
X365257Y298534D01*
X365283Y298456D01*
X365302Y298385D01*
X365315Y298313D01*
X365322Y298255D01*
X365328Y298210D01*
Y298184D01*
Y298171D01*
X365322Y298093D01*
X365315Y298028D01*
X365283Y297892D01*
X365237Y297782D01*
X365186Y297685D01*
X365134Y297607D01*
X365089Y297549D01*
X365056Y297516D01*
X365043Y297503D01*
X364927Y297419D01*
X364797Y297354D01*
X364654Y297309D01*
X364525Y297277D01*
X364408Y297257D01*
X364356Y297251D01*
X364311D01*
X364272Y297244D01*
X364220D01*
X364104Y297251D01*
X363987Y297264D01*
X363883Y297277D01*
X363792Y297296D01*
X363721Y297315D01*
X363663Y297335D01*
X363624Y297341D01*
X363611Y297348D01*
X363501Y297393D01*
X363397Y297451D01*
X363300Y297516D01*
X363203Y297575D01*
X363125Y297633D01*
X363067Y297678D01*
X363028Y297711D01*
X363021Y297724D01*
X363015D01*
X363002Y297639D01*
X362989Y297562D01*
X362976Y297490D01*
X362957Y297432D01*
X362937Y297380D01*
X362924Y297348D01*
X362918Y297322D01*
X362911Y297315D01*
X362334D01*
X362367Y297387D01*
X362399Y297458D01*
X362425Y297523D01*
X362438Y297581D01*
X362458Y297633D01*
X362464Y297672D01*
X362471Y297698D01*
Y297704D01*
X362477Y297750D01*
X362484Y297808D01*
Y297873D01*
X362490Y297944D01*
X362496Y298106D01*
Y298268D01*
X362503Y298424D01*
Y298495D01*
Y298553D01*
Y298605D01*
Y298644D01*
Y298670D01*
Y298676D01*
Y299415D01*
Y299538D01*
X362509Y299648D01*
X362516Y299732D01*
Y299804D01*
X362522Y299856D01*
X362529Y299894D01*
X362535Y299914D01*
Y299920D01*
X362555Y300005D01*
X362581Y300076D01*
X362607Y300134D01*
X362639Y300193D01*
X362665Y300231D01*
X362684Y300264D01*
X362697Y300283D01*
X362704Y300290D01*
X362756Y300342D01*
X362814Y300393D01*
X362879Y300432D01*
X362944Y300471D01*
X363002Y300497D01*
X363047Y300517D01*
X363080Y300530D01*
X363093Y300536D01*
X363196Y300568D01*
X363306Y300594D01*
X363417Y300614D01*
X363527Y300627D01*
X363624Y300633D01*
X363695Y300640D01*
X363767D01*
X363922Y300633D01*
D02*
G37*
G36*
X367363Y297315D02*
X367389Y297257D01*
X367402Y297212D01*
X367415Y297186D01*
Y297179D01*
X367454Y297069D01*
X367493Y296978D01*
X367518Y296901D01*
X367544Y296849D01*
X367557Y296810D01*
X367570Y296784D01*
X367583Y296771D01*
Y296765D01*
X367635Y296693D01*
X367693Y296641D01*
X367719Y296622D01*
X367739Y296609D01*
X367752Y296596D01*
X367758D01*
X367804Y296577D01*
X367849Y296557D01*
X367946Y296538D01*
X367985D01*
X368017Y296531D01*
X368050D01*
X368154Y296538D01*
X368257Y296557D01*
X368296Y296570D01*
X368328Y296577D01*
X368354Y296583D01*
X368361D01*
X368303Y296071D01*
X368231Y296045D01*
X368166Y296032D01*
X368108Y296019D01*
X368056Y296006D01*
X368011D01*
X367979Y296000D01*
X367953D01*
X367855Y296006D01*
X367771Y296019D01*
X367693Y296039D01*
X367629Y296065D01*
X367570Y296091D01*
X367531Y296110D01*
X367506Y296123D01*
X367499Y296130D01*
X367428Y296181D01*
X367369Y296246D01*
X367311Y296311D01*
X367259Y296376D01*
X367220Y296434D01*
X367188Y296480D01*
X367169Y296512D01*
X367162Y296525D01*
X367143Y296570D01*
X367117Y296616D01*
X367065Y296726D01*
X367013Y296849D01*
X366968Y296972D01*
X366922Y297082D01*
X366903Y297134D01*
X366883Y297179D01*
X366870Y297212D01*
X366858Y297238D01*
X366851Y297257D01*
Y297264D01*
X365613Y300568D01*
X366164D01*
X366864Y298670D01*
X366916Y298534D01*
X366955Y298404D01*
X367000Y298274D01*
X367033Y298164D01*
X367058Y298067D01*
X367071Y298028D01*
X367078Y297996D01*
X367084Y297970D01*
X367091Y297951D01*
X367097Y297937D01*
Y297931D01*
X367136Y298080D01*
X367175Y298216D01*
X367214Y298346D01*
X367253Y298456D01*
X367285Y298547D01*
X367298Y298586D01*
X367311Y298618D01*
X367318Y298650D01*
X367324Y298670D01*
X367331Y298676D01*
Y298683D01*
X368011Y300568D01*
X368594D01*
X367363Y297315D01*
D02*
G37*
G36*
X369929Y301372D02*
Y300568D01*
X370337D01*
Y300141D01*
X369929D01*
Y298261D01*
Y298171D01*
Y298093D01*
X369923Y298022D01*
X369916Y297951D01*
Y297892D01*
X369910Y297840D01*
X369897Y297756D01*
X369884Y297691D01*
X369877Y297646D01*
X369864Y297620D01*
Y297614D01*
X369838Y297555D01*
X369799Y297510D01*
X369761Y297464D01*
X369728Y297432D01*
X369689Y297400D01*
X369663Y297380D01*
X369644Y297367D01*
X369637Y297361D01*
X369566Y297328D01*
X369495Y297309D01*
X369417Y297289D01*
X369339Y297283D01*
X369275Y297277D01*
X369223Y297270D01*
X369171D01*
X369028Y297277D01*
X368957Y297283D01*
X368892Y297296D01*
X368834Y297303D01*
X368789Y297309D01*
X368763Y297315D01*
X368750D01*
X368821Y297801D01*
X368873Y297795D01*
X368925Y297789D01*
X368970D01*
X369002Y297782D01*
X369067D01*
X369151Y297789D01*
X369210Y297801D01*
X369242Y297814D01*
X369255Y297821D01*
X369301Y297853D01*
X369326Y297886D01*
X369346Y297912D01*
X369352Y297925D01*
X369359Y297957D01*
X369365Y298002D01*
X369372Y298106D01*
X369378Y298151D01*
Y298190D01*
Y298216D01*
Y298229D01*
Y300141D01*
X368821D01*
Y300568D01*
X369378D01*
Y301702D01*
X369929Y301372D01*
D02*
G37*
G36*
X379500Y297315D02*
X378871D01*
X378385Y298676D01*
X376506D01*
X375981Y297315D01*
X375307D01*
X377141Y301800D01*
X377789D01*
X379500Y297315D01*
D02*
G37*
G36*
X371413D02*
X370862D01*
Y300568D01*
X371413D01*
Y297315D01*
D02*
G37*
G36*
X372839Y300193D02*
X372897Y300264D01*
X372962Y300322D01*
X373020Y300380D01*
X373085Y300426D01*
X373137Y300458D01*
X373176Y300491D01*
X373201Y300504D01*
X373214Y300510D01*
X373299Y300555D01*
X373389Y300588D01*
X373480Y300607D01*
X373564Y300627D01*
X373636Y300633D01*
X373687Y300640D01*
X373739D01*
X373882Y300633D01*
X374018Y300607D01*
X374141Y300575D01*
X374245Y300536D01*
X374335Y300491D01*
X374400Y300458D01*
X374426Y300445D01*
X374446Y300432D01*
X374452Y300426D01*
X374459D01*
X374575Y300342D01*
X374672Y300238D01*
X374757Y300141D01*
X374821Y300044D01*
X374873Y299953D01*
X374912Y299882D01*
X374925Y299856D01*
X374938Y299836D01*
X374945Y299823D01*
Y299817D01*
X374996Y299668D01*
X375035Y299512D01*
X375068Y299363D01*
X375087Y299227D01*
X375100Y299110D01*
Y299059D01*
X375107Y299020D01*
Y298981D01*
Y298955D01*
Y298942D01*
Y298935D01*
X375100Y298754D01*
X375081Y298586D01*
X375048Y298436D01*
X375016Y298307D01*
X375003Y298249D01*
X374990Y298203D01*
X374971Y298158D01*
X374957Y298119D01*
X374945Y298093D01*
X374938Y298074D01*
X374932Y298061D01*
Y298054D01*
X374860Y297918D01*
X374776Y297801D01*
X374692Y297698D01*
X374608Y297614D01*
X374536Y297549D01*
X374478Y297497D01*
X374439Y297471D01*
X374433Y297458D01*
X374426D01*
X374303Y297387D01*
X374180Y297335D01*
X374057Y297296D01*
X373947Y297270D01*
X373856Y297257D01*
X373778Y297251D01*
X373752Y297244D01*
X373713D01*
X373603Y297251D01*
X373499Y297264D01*
X373402Y297289D01*
X373318Y297322D01*
X373234Y297354D01*
X373156Y297393D01*
X373091Y297439D01*
X373033Y297484D01*
X372975Y297529D01*
X372929Y297575D01*
X372890Y297614D01*
X372858Y297646D01*
X372832Y297678D01*
X372813Y297704D01*
X372806Y297717D01*
X372800Y297724D01*
Y297315D01*
X372288D01*
Y301800D01*
X372839D01*
Y300193D01*
D02*
G37*
%LPC*%
G36*
X347755Y298948D02*
X347749D01*
X347755Y298741D01*
X347762Y298611D01*
X347768Y298501D01*
X347781Y298411D01*
X347801Y298333D01*
X347820Y298274D01*
X347833Y298229D01*
X347840Y298203D01*
X347846Y298197D01*
X347898Y298113D01*
X347950Y298035D01*
X348015Y297970D01*
X348073Y297918D01*
X348125Y297873D01*
X348170Y297840D01*
X348196Y297821D01*
X348209Y297814D01*
X348306Y297769D01*
X348403Y297737D01*
X348494Y297711D01*
X348585Y297698D01*
X348656Y297685D01*
X348721Y297678D01*
X348773D01*
X348889Y297685D01*
X348987Y297698D01*
X349071Y297724D01*
X349142Y297750D01*
X349194Y297776D01*
X349233Y297801D01*
X349259Y297814D01*
X349265Y297821D01*
X349317Y297879D01*
X349356Y297944D01*
X349388Y298002D01*
X349408Y298061D01*
X349421Y298113D01*
X349427Y298151D01*
Y298184D01*
Y298190D01*
X349421Y298242D01*
X349414Y298294D01*
X349401Y298333D01*
X349388Y298372D01*
X349375Y298404D01*
X349369Y298430D01*
X349356Y298443D01*
Y298449D01*
X349291Y298527D01*
X349213Y298579D01*
X349187Y298599D01*
X349162Y298611D01*
X349142Y298624D01*
X349136D01*
X349071Y298650D01*
X349000Y298670D01*
X348922Y298689D01*
X348844Y298702D01*
X348773Y298715D01*
X348708Y298728D01*
X348669Y298735D01*
X348656D01*
X348546Y298754D01*
X348442Y298767D01*
X348352Y298786D01*
X348261Y298806D01*
X348177Y298825D01*
X348105Y298845D01*
X348034Y298858D01*
X347976Y298877D01*
X347924Y298890D01*
X347879Y298903D01*
X347840Y298916D01*
X347807Y298929D01*
X347781Y298935D01*
X347762Y298942D01*
X347755Y298948D01*
D02*
G37*
G36*
X341133D02*
X341126D01*
X341133Y298741D01*
X341139Y298611D01*
X341146Y298501D01*
X341159Y298411D01*
X341178Y298333D01*
X341198Y298274D01*
X341211Y298229D01*
X341217Y298203D01*
X341224Y298197D01*
X341275Y298113D01*
X341327Y298035D01*
X341392Y297970D01*
X341450Y297918D01*
X341502Y297873D01*
X341547Y297840D01*
X341573Y297821D01*
X341586Y297814D01*
X341684Y297769D01*
X341781Y297737D01*
X341872Y297711D01*
X341962Y297698D01*
X342034Y297685D01*
X342098Y297678D01*
X342150D01*
X342267Y297685D01*
X342364Y297698D01*
X342448Y297724D01*
X342519Y297750D01*
X342571Y297776D01*
X342610Y297801D01*
X342636Y297814D01*
X342643Y297821D01*
X342694Y297879D01*
X342733Y297944D01*
X342766Y298002D01*
X342785Y298061D01*
X342798Y298113D01*
X342805Y298151D01*
Y298184D01*
Y298190D01*
X342798Y298242D01*
X342792Y298294D01*
X342779Y298333D01*
X342766Y298372D01*
X342753Y298404D01*
X342746Y298430D01*
X342733Y298443D01*
Y298449D01*
X342669Y298527D01*
X342591Y298579D01*
X342565Y298599D01*
X342539Y298611D01*
X342519Y298624D01*
X342513D01*
X342448Y298650D01*
X342377Y298670D01*
X342299Y298689D01*
X342221Y298702D01*
X342150Y298715D01*
X342085Y298728D01*
X342046Y298735D01*
X342034D01*
X341923Y298754D01*
X341820Y298767D01*
X341729Y298786D01*
X341638Y298806D01*
X341554Y298825D01*
X341483Y298845D01*
X341411Y298858D01*
X341353Y298877D01*
X341301Y298890D01*
X341256Y298903D01*
X341217Y298916D01*
X341185Y298929D01*
X341159Y298935D01*
X341139Y298942D01*
X341133Y298948D01*
D02*
G37*
G36*
X335048Y300186D02*
X335016D01*
X334944Y300180D01*
X334880Y300173D01*
X334756Y300134D01*
X334646Y300089D01*
X334556Y300031D01*
X334484Y299972D01*
X334426Y299920D01*
X334394Y299882D01*
X334381Y299875D01*
Y299869D01*
X334335Y299804D01*
X334296Y299739D01*
X334232Y299583D01*
X334186Y299421D01*
X334154Y299266D01*
X334141Y299188D01*
X334134Y299117D01*
X334128Y299052D01*
Y299000D01*
X334121Y298955D01*
Y298922D01*
Y298897D01*
Y298890D01*
Y298780D01*
X334134Y298676D01*
X334147Y298586D01*
X334160Y298495D01*
X334180Y298417D01*
X334206Y298339D01*
X334225Y298274D01*
X334251Y298216D01*
X334277Y298164D01*
X334296Y298113D01*
X334322Y298080D01*
X334342Y298048D01*
X334355Y298022D01*
X334368Y298002D01*
X334381Y297996D01*
Y297989D01*
X334426Y297937D01*
X334478Y297892D01*
X334581Y297821D01*
X334685Y297769D01*
X334782Y297737D01*
X334867Y297711D01*
X334938Y297704D01*
X334964Y297698D01*
X334996D01*
X335061Y297704D01*
X335126Y297711D01*
X335243Y297743D01*
X335353Y297795D01*
X335443Y297853D01*
X335515Y297905D01*
X335573Y297957D01*
X335605Y297989D01*
X335612Y298002D01*
X335618D01*
X335664Y298067D01*
X335703Y298132D01*
X335767Y298281D01*
X335813Y298436D01*
X335845Y298586D01*
X335865Y298722D01*
X335871Y298780D01*
Y298832D01*
X335877Y298877D01*
Y298909D01*
Y298929D01*
Y298935D01*
Y299052D01*
X335865Y299162D01*
X335852Y299266D01*
X335839Y299357D01*
X335819Y299441D01*
X335800Y299519D01*
X335780Y299590D01*
X335754Y299655D01*
X335729Y299707D01*
X335709Y299752D01*
X335690Y299791D01*
X335670Y299823D01*
X335651Y299849D01*
X335644Y299869D01*
X335631Y299875D01*
Y299882D01*
X335586Y299933D01*
X335534Y299985D01*
X335430Y300057D01*
X335327Y300115D01*
X335229Y300147D01*
X335145Y300173D01*
X335074Y300180D01*
X335048Y300186D01*
D02*
G37*
G36*
X363067Y298948D02*
X363060D01*
X363067Y298741D01*
X363073Y298611D01*
X363080Y298501D01*
X363093Y298411D01*
X363112Y298333D01*
X363131Y298274D01*
X363144Y298229D01*
X363151Y298203D01*
X363157Y298197D01*
X363209Y298113D01*
X363261Y298035D01*
X363326Y297970D01*
X363384Y297918D01*
X363436Y297873D01*
X363481Y297840D01*
X363507Y297821D01*
X363520Y297814D01*
X363617Y297769D01*
X363715Y297737D01*
X363805Y297711D01*
X363896Y297698D01*
X363967Y297685D01*
X364032Y297678D01*
X364084D01*
X364201Y297685D01*
X364298Y297698D01*
X364382Y297724D01*
X364453Y297750D01*
X364505Y297776D01*
X364544Y297801D01*
X364570Y297814D01*
X364577Y297821D01*
X364628Y297879D01*
X364667Y297944D01*
X364700Y298002D01*
X364719Y298061D01*
X364732Y298113D01*
X364739Y298151D01*
Y298184D01*
Y298190D01*
X364732Y298242D01*
X364726Y298294D01*
X364713Y298333D01*
X364700Y298372D01*
X364687Y298404D01*
X364680Y298430D01*
X364667Y298443D01*
Y298449D01*
X364602Y298527D01*
X364525Y298579D01*
X364499Y298599D01*
X364473Y298611D01*
X364453Y298624D01*
X364447D01*
X364382Y298650D01*
X364311Y298670D01*
X364233Y298689D01*
X364155Y298702D01*
X364084Y298715D01*
X364019Y298728D01*
X363980Y298735D01*
X363967D01*
X363857Y298754D01*
X363754Y298767D01*
X363663Y298786D01*
X363572Y298806D01*
X363488Y298825D01*
X363417Y298845D01*
X363345Y298858D01*
X363287Y298877D01*
X363235Y298890D01*
X363190Y298903D01*
X363151Y298916D01*
X363119Y298929D01*
X363093Y298935D01*
X363073Y298942D01*
X363067Y298948D01*
D02*
G37*
G36*
X377478Y301333D02*
X377433Y301184D01*
X377381Y301028D01*
X377329Y300873D01*
X377277Y300724D01*
X377251Y300659D01*
X377232Y300594D01*
X377213Y300536D01*
X377193Y300491D01*
X377180Y300452D01*
X377167Y300419D01*
X377161Y300400D01*
Y300393D01*
X376694Y299162D01*
X378210D01*
X377725Y300471D01*
X377666Y300633D01*
X377621Y300789D01*
X377575Y300931D01*
X377543Y301061D01*
X377517Y301171D01*
X377504Y301216D01*
X377498Y301262D01*
X377485Y301288D01*
Y301314D01*
X377478Y301327D01*
Y301333D01*
D02*
G37*
G36*
X373713Y300186D02*
X373681D01*
X373610Y300180D01*
X373545Y300173D01*
X373422Y300134D01*
X373312Y300089D01*
X373221Y300031D01*
X373150Y299972D01*
X373091Y299920D01*
X373059Y299882D01*
X373046Y299875D01*
Y299869D01*
X373001Y299804D01*
X372962Y299739D01*
X372897Y299583D01*
X372851Y299421D01*
X372819Y299266D01*
X372806Y299188D01*
X372800Y299117D01*
X372793Y299052D01*
Y299000D01*
X372787Y298955D01*
Y298922D01*
Y298897D01*
Y298890D01*
Y298780D01*
X372800Y298676D01*
X372813Y298586D01*
X372826Y298495D01*
X372845Y298417D01*
X372871Y298339D01*
X372890Y298274D01*
X372916Y298216D01*
X372942Y298164D01*
X372962Y298113D01*
X372988Y298080D01*
X373007Y298048D01*
X373020Y298022D01*
X373033Y298002D01*
X373046Y297996D01*
Y297989D01*
X373091Y297937D01*
X373143Y297892D01*
X373247Y297821D01*
X373351Y297769D01*
X373448Y297737D01*
X373532Y297711D01*
X373603Y297704D01*
X373629Y297698D01*
X373661D01*
X373726Y297704D01*
X373791Y297711D01*
X373908Y297743D01*
X374018Y297795D01*
X374109Y297853D01*
X374180Y297905D01*
X374238Y297957D01*
X374271Y297989D01*
X374277Y298002D01*
X374284D01*
X374329Y298067D01*
X374368Y298132D01*
X374433Y298281D01*
X374478Y298436D01*
X374510Y298586D01*
X374530Y298722D01*
X374536Y298780D01*
Y298832D01*
X374543Y298877D01*
Y298909D01*
Y298929D01*
Y298935D01*
Y299052D01*
X374530Y299162D01*
X374517Y299266D01*
X374504Y299357D01*
X374484Y299441D01*
X374465Y299519D01*
X374446Y299590D01*
X374420Y299655D01*
X374394Y299707D01*
X374374Y299752D01*
X374355Y299791D01*
X374335Y299823D01*
X374316Y299849D01*
X374309Y299869D01*
X374297Y299875D01*
Y299882D01*
X374251Y299933D01*
X374199Y299985D01*
X374096Y300057D01*
X373992Y300115D01*
X373895Y300147D01*
X373811Y300173D01*
X373739Y300180D01*
X373713Y300186D01*
D02*
G37*
%LPD*%
D13*
X424501Y312498D02*
X428500D01*
Y306500D01*
X424501D01*
X428500Y309499D02*
X426501D01*
X418503Y311498D02*
X419503Y312498D01*
X421502D01*
X422502Y311498D01*
Y307500D01*
X421502Y306500D01*
X419503D01*
X418503Y307500D01*
X416504Y312498D02*
Y306500D01*
X413505D01*
X412505Y307500D01*
Y311498D01*
X413505Y312498D01*
X416504D01*
X410506D02*
Y306500D01*
X406507D01*
X394511Y311498D02*
X395511Y312498D01*
X397510D01*
X398510Y311498D01*
Y307500D01*
X397510Y306500D01*
X395511D01*
X394511Y307500D01*
X392512Y310499D02*
Y307500D01*
X391512Y306500D01*
X388513D01*
Y310499D01*
X386514D02*
Y306500D01*
Y308499D01*
X385514Y309499D01*
X384514Y310499D01*
X383515D01*
X380516D02*
Y306500D01*
Y308499D01*
X379516Y309499D01*
X378516Y310499D01*
X377517D01*
X371518Y306500D02*
X373518D01*
X374517Y307500D01*
Y309499D01*
X373518Y310499D01*
X371518D01*
X370519Y309499D01*
Y308499D01*
X374517D01*
X368519Y306500D02*
Y310499D01*
X365520D01*
X364521Y309499D01*
Y306500D01*
X361522Y311498D02*
Y310499D01*
X362521D01*
X360522D01*
X361522D01*
Y307500D01*
X360522Y306500D01*
X347526Y311498D02*
X348526Y312498D01*
X350525D01*
X351525Y311498D01*
Y307500D01*
X350525Y306500D01*
X348526D01*
X347526Y307500D01*
X344527Y306500D02*
X342528D01*
X341528Y307500D01*
Y309499D01*
X342528Y310499D01*
X344527D01*
X345527Y309499D01*
Y307500D01*
X344527Y306500D01*
X339529D02*
Y310499D01*
X336530D01*
X335530Y309499D01*
Y306500D01*
X332531Y311498D02*
Y310499D01*
X333531D01*
X331531D01*
X332531D01*
Y307500D01*
X331531Y306500D01*
X328532Y310499D02*
Y306500D01*
Y308499D01*
X327533Y309499D01*
X326533Y310499D01*
X325533D01*
X321535Y306500D02*
X319535D01*
X318536Y307500D01*
Y309499D01*
X319535Y310499D01*
X321535D01*
X322534Y309499D01*
Y307500D01*
X321535Y306500D01*
X316536D02*
X314537D01*
X315536D01*
Y312498D01*
X316536D01*
X311538Y306500D02*
X309539D01*
X310538D01*
Y312498D01*
X311538D01*
X303540Y306500D02*
X305540D01*
X306540Y307500D01*
Y309499D01*
X305540Y310499D01*
X303540D01*
X302541Y309499D01*
Y308499D01*
X306540D01*
X300541Y310499D02*
Y306500D01*
Y308499D01*
X299542Y309499D01*
X298542Y310499D01*
X297542D01*
X288545Y306500D02*
X286546D01*
X287546D01*
Y312498D01*
X288545Y311498D01*
X283547Y306500D02*
Y307500D01*
X282547D01*
Y306500D01*
X283547D01*
X278549Y311498D02*
X277549Y312498D01*
X275550D01*
X274550Y311498D01*
Y307500D01*
X275550Y306500D01*
X277549D01*
X278549Y307500D01*
Y311498D01*
M02*
