G04*
G04 #@! TF.GenerationSoftware,Altium Limited,Altium Designer,21.2.2 (38)*
G04*
G04 Layer_Color=32768*
%FSLAX25Y25*%
%MOIN*%
G70*
G04*
G04 #@! TF.SameCoordinates,D283CC76-0160-4898-B3E9-D7649964E2CE*
G04*
G04*
G04 #@! TF.FilePolarity,Positive*
G04*
G01*
G75*
%ADD12C,0.00394*%
%ADD77C,0.00197*%
D12*
X257000Y317531D02*
Y321468D01*
X255031Y319500D02*
X258968D01*
X197362Y262862D02*
X226638D01*
X197362D02*
Y292138D01*
X226638D01*
Y262862D02*
Y292138D01*
X247000Y276031D02*
Y279969D01*
X245031Y278000D02*
X248969D01*
X217032Y255000D02*
X220969D01*
X219000Y253031D02*
Y256968D01*
X259000Y239032D02*
Y242969D01*
X257031Y241000D02*
X260968D01*
X295666Y298708D02*
X299603D01*
X297635Y296740D02*
Y300676D01*
X343717Y328532D02*
Y332469D01*
X341748Y330500D02*
X345685D01*
X357531Y247500D02*
X361469D01*
X359500Y245532D02*
Y249468D01*
X416000Y234032D02*
Y237968D01*
X414032Y236000D02*
X417969D01*
X257000Y352031D02*
Y355968D01*
X255031Y354000D02*
X258968D01*
X247000Y239032D02*
Y242969D01*
X245031Y241000D02*
X248969D01*
X407767Y345839D02*
Y349776D01*
X405798Y347808D02*
X409735D01*
X371500Y352031D02*
Y355968D01*
X369531Y354000D02*
X373468D01*
X440500Y352031D02*
Y355968D01*
X438531Y354000D02*
X442469D01*
X386531Y346500D02*
X390469D01*
X388500Y344531D02*
Y348468D01*
X366950Y335035D02*
Y377949D01*
X324036D02*
X366950D01*
X324036Y335035D02*
Y377949D01*
Y335035D02*
X366950D01*
D77*
X301303Y326437D02*
G03*
X301303Y326437I-12303J0D01*
G01*
X301210Y350040D02*
G03*
X301210Y350040I-12303J0D01*
G01*
X236803Y349937D02*
G03*
X236803Y349937I-12303J0D01*
G01*
Y323563D02*
G03*
X236803Y323563I-12303J0D01*
G01*
X241240Y237000D02*
G03*
X241240Y237000I-12303J0D01*
G01*
X292303Y282063D02*
G03*
X292303Y282063I-12303J0D01*
G01*
X334303Y315563D02*
G03*
X334303Y315563I-12303J0D01*
G01*
X334304Y285542D02*
G03*
X334304Y285542I-12303J0D01*
G01*
X292303Y251563D02*
G03*
X292303Y251563I-12303J0D01*
G01*
Y228563D02*
G03*
X292303Y228563I-12303J0D01*
G01*
X470494Y338572D02*
G03*
X470494Y338572I-12303J0D01*
G01*
X470667Y315023D02*
G03*
X470667Y315023I-12303J0D01*
G01*
X438866Y339500D02*
G03*
X438866Y339500I-12303J0D01*
G01*
X274126Y302374D02*
Y336626D01*
X239874Y302374D02*
X274126D01*
X239874D02*
Y336626D01*
X274126D01*
X227847Y268118D02*
Y287921D01*
Y268118D02*
X266154D01*
Y287921D01*
X227847D02*
X266154D01*
X239768Y249882D02*
Y260118D01*
X198232D02*
X239768D01*
X198232Y249882D02*
X239768D01*
X198232D02*
Y260118D01*
X253882Y261768D02*
X264118D01*
X253882Y220232D02*
Y261768D01*
X264118Y220232D02*
Y261768D01*
X253882Y220232D02*
X264118D01*
X276867Y293590D02*
Y303826D01*
Y293590D02*
X318402D01*
X276867Y303826D02*
X318402D01*
Y293590D02*
Y303826D01*
X322949Y326465D02*
X364484D01*
X322949D02*
Y334535D01*
X364484Y326465D02*
Y334535D01*
X322949D02*
X364484D01*
X296035Y231516D02*
Y273484D01*
Y231516D02*
X334965D01*
Y273484D01*
X296035D02*
X334965D01*
X380268Y242382D02*
Y252618D01*
X338732D02*
X380268D01*
X338732Y242382D02*
X380268D01*
X338732D02*
Y252618D01*
X383524Y255035D02*
Y272791D01*
Y255035D02*
X426476D01*
Y272791D01*
X383524D02*
X426476D01*
X426524Y273291D02*
X469476D01*
Y255535D02*
Y273291D01*
X426524Y255535D02*
X469476D01*
X426524D02*
Y273291D01*
X433126Y218874D02*
Y253126D01*
X398874Y218874D02*
X433126D01*
X398874D02*
Y253126D01*
X433126D01*
X274126Y336874D02*
Y371126D01*
X239874Y336874D02*
X274126D01*
X239874D02*
Y371126D01*
X274126D01*
X340807Y252406D02*
Y272681D01*
Y252406D02*
X384193D01*
Y272681D01*
X340807D02*
X384193D01*
X241882Y220232D02*
X252118D01*
Y261768D01*
X241882Y220232D02*
Y261768D01*
X252118D01*
X402648Y368575D02*
X412885D01*
X402648Y327040D02*
Y368575D01*
X412885Y327040D02*
Y368575D01*
X402648Y327040D02*
X412885D01*
X366382Y374768D02*
X376618D01*
X366382Y333232D02*
Y374768D01*
X376618Y333232D02*
Y374768D01*
X366382Y333232D02*
X376618D01*
X419732Y349965D02*
X461268D01*
X419732D02*
Y358035D01*
X461268Y349965D02*
Y358035D01*
X419732D02*
X461268D01*
X378618Y365653D02*
X398421D01*
X378618Y327346D02*
Y365653D01*
Y327346D02*
X398421D01*
Y365653D01*
X444340Y301917D02*
Y319673D01*
X401387D02*
X444340D01*
X401387Y301917D02*
Y319673D01*
Y301917D02*
X444340D01*
X339768Y301917D02*
X383232D01*
X339768D02*
Y322390D01*
X383232D01*
Y301917D02*
Y322390D01*
M02*
