G04*
G04 #@! TF.GenerationSoftware,Altium Limited,Altium Designer,21.2.2 (38)*
G04*
G04 Layer_Physical_Order=1*
G04 Layer_Color=255*
%FSLAX25Y25*%
%MOIN*%
G70*
G04*
G04 #@! TF.SameCoordinates,821FD0D4-0334-4DB9-88A1-7179C856D29A*
G04*
G04*
G04 #@! TF.FilePolarity,Positive*
G04*
G01*
G75*
%ADD10C,0.00787*%
%ADD12C,0.00394*%
%ADD13C,0.01000*%
%ADD16C,0.00600*%
%ADD17C,0.00197*%
%ADD46C,0.01200*%
%ADD47C,0.02500*%
%ADD48C,0.02000*%
%ADD49C,0.02200*%
%ADD50R,0.05020X0.05020*%
%ADD51C,0.05020*%
%ADD52C,0.07618*%
%ADD53R,0.07618X0.07618*%
%ADD54R,0.05118X0.05118*%
%ADD55C,0.05118*%
%ADD56C,0.05906*%
%ADD57R,0.05906X0.05906*%
%ADD58R,0.05512X0.05512*%
%ADD59C,0.05512*%
%ADD60C,0.06000*%
%ADD61C,0.04654*%
%ADD62R,0.04654X0.04654*%
%ADD63C,0.05315*%
%ADD64R,0.05315X0.05315*%
%ADD65R,0.05315X0.05315*%
%ADD66R,0.05020X0.05020*%
%ADD67C,0.04461*%
%ADD68R,0.04461X0.04461*%
%ADD69C,0.06614*%
%ADD70R,0.06614X0.06614*%
%ADD71R,0.06614X0.06614*%
%ADD72R,0.05906X0.05906*%
%ADD73C,0.08209*%
%ADD74R,0.08209X0.08209*%
%ADD75C,0.04842*%
%ADD76C,0.05000*%
%ADD77C,0.11811*%
G36*
X680000Y406000D02*
Y391000D01*
X677500Y388500D01*
X663500D01*
X647000Y405000D01*
X510500D01*
X508000Y405000D01*
X505000Y402000D01*
X505000Y368352D01*
X504500Y368286D01*
X504481Y368356D01*
X503848Y369453D01*
X502953Y370348D01*
X501856Y370981D01*
X500633Y371309D01*
X500500D01*
Y366500D01*
Y361691D01*
X500633D01*
X501856Y362019D01*
X502953Y362652D01*
X503848Y363547D01*
X504481Y364644D01*
X504500Y364714D01*
X505000Y364648D01*
Y360000D01*
X503305Y358305D01*
X497695D01*
X495000Y361000D01*
Y364648D01*
X495500Y364714D01*
X495519Y364644D01*
X496152Y363547D01*
X497047Y362652D01*
X498144Y362019D01*
X499367Y361691D01*
X499500D01*
Y366500D01*
Y371309D01*
X499367D01*
X498144Y370981D01*
X497047Y370348D01*
X496152Y369453D01*
X495519Y368356D01*
X495500Y368286D01*
X495000Y368352D01*
Y413500D01*
X499000Y417500D01*
X668500D01*
X680000Y406000D01*
D02*
G37*
G36*
X767000Y452500D02*
Y366500D01*
X762000Y361500D01*
X758298D01*
X758091Y362000D01*
X758447Y362355D01*
X759014Y363337D01*
X759307Y364433D01*
Y365567D01*
X759014Y366663D01*
X758447Y367645D01*
X757645Y368446D01*
X756663Y369014D01*
X755567Y369307D01*
X754433D01*
X753337Y369014D01*
X752355Y368446D01*
X751553Y367645D01*
X750986Y366663D01*
X750693Y365567D01*
Y364433D01*
X750986Y363337D01*
X751553Y362355D01*
X751909Y362000D01*
X751702Y361500D01*
X748000D01*
X741000Y368500D01*
Y398500D01*
X705000Y434500D01*
X621455D01*
X621205Y434933D01*
X621316Y435126D01*
X621559Y436031D01*
Y436969D01*
X621316Y437874D01*
X620848Y438685D01*
X620185Y439348D01*
X619374Y439817D01*
X618469Y440059D01*
X617531D01*
X616626Y439817D01*
X615815Y439348D01*
X615152Y438685D01*
X614683Y437874D01*
X614441Y436969D01*
Y436031D01*
X614683Y435126D01*
X614795Y434933D01*
X614545Y434500D01*
X523766Y434500D01*
X523462Y434897D01*
X523500Y435039D01*
Y435961D01*
X523261Y436851D01*
X522801Y437649D01*
X522149Y438301D01*
X521351Y438762D01*
X520461Y439000D01*
X519539D01*
X518649Y438762D01*
X517851Y438301D01*
X517199Y437649D01*
X516739Y436851D01*
X516500Y435961D01*
Y435039D01*
X516538Y434897D01*
X516234Y434500D01*
X497065D01*
Y438655D01*
X490045D01*
Y434500D01*
X484500D01*
X470000Y420000D01*
Y370500D01*
X458500Y359000D01*
X372794D01*
Y394844D01*
X373301Y395351D01*
X373762Y396149D01*
X374000Y397039D01*
Y397961D01*
X373762Y398851D01*
X373301Y399649D01*
X372649Y400301D01*
X371851Y400762D01*
X370961Y401000D01*
X370039D01*
X369149Y400762D01*
X368351Y400301D01*
X367699Y399649D01*
X367238Y398851D01*
X367000Y397961D01*
Y397039D01*
X367238Y396149D01*
X367699Y395351D01*
X368206Y394844D01*
Y359000D01*
X249500D01*
X208000Y400500D01*
Y431000D01*
X246000Y469000D01*
X750500D01*
X767000Y452500D01*
D02*
G37*
G36*
X583500Y296734D02*
X583663Y296778D01*
X584941Y297515D01*
X585038Y297612D01*
X585500Y297421D01*
X585500Y244000D01*
X595000Y234500D01*
X758000Y234500D01*
X762000Y230500D01*
X762000Y224000D01*
X758000Y220000D01*
X593500Y220000D01*
X577500Y236000D01*
X577500Y297421D01*
X577962Y297612D01*
X578059Y297515D01*
X579337Y296778D01*
X579500Y296734D01*
Y302000D01*
X583500D01*
Y296734D01*
D02*
G37*
G36*
X762000Y303000D02*
Y246000D01*
X759000Y243000D01*
X751500D01*
X748500Y246000D01*
Y304000D01*
X751000Y306500D01*
X758500D01*
X762000Y303000D01*
D02*
G37*
%LPC*%
G36*
X625500Y414990D02*
Y412000D01*
X628489D01*
X628262Y412851D01*
X627801Y413649D01*
X627149Y414301D01*
X626351Y414761D01*
X625500Y414990D01*
D02*
G37*
G36*
X624500D02*
X623649Y414761D01*
X622851Y414301D01*
X622199Y413649D01*
X621738Y412851D01*
X621511Y412000D01*
X624500D01*
Y414990D01*
D02*
G37*
G36*
X500217Y414652D02*
Y411500D01*
X503369D01*
X503125Y412412D01*
X502643Y413246D01*
X501962Y413927D01*
X501128Y414408D01*
X500217Y414652D01*
D02*
G37*
G36*
X648500Y414490D02*
Y411500D01*
X651489D01*
X651262Y412351D01*
X650801Y413149D01*
X650149Y413801D01*
X649351Y414261D01*
X648500Y414490D01*
D02*
G37*
G36*
X647500D02*
X646649Y414261D01*
X645851Y413801D01*
X645199Y413149D01*
X644738Y412351D01*
X644511Y411500D01*
X647500D01*
Y414490D01*
D02*
G37*
G36*
X499217Y414652D02*
X498305Y414408D01*
X497471Y413927D01*
X496790Y413246D01*
X496308Y412412D01*
X496064Y411500D01*
X499217D01*
Y414652D01*
D02*
G37*
G36*
X577000Y414436D02*
Y411283D01*
X580153D01*
X579908Y412195D01*
X579427Y413029D01*
X578746Y413710D01*
X577912Y414192D01*
X577000Y414436D01*
D02*
G37*
G36*
X541311D02*
Y411283D01*
X544463D01*
X544219Y412195D01*
X543738Y413029D01*
X543056Y413710D01*
X542222Y414192D01*
X541311Y414436D01*
D02*
G37*
G36*
X576000Y414436D02*
X575088Y414192D01*
X574254Y413710D01*
X573573Y413029D01*
X573092Y412195D01*
X572848Y411283D01*
X576000D01*
Y414436D01*
D02*
G37*
G36*
X540311D02*
X539399Y414192D01*
X538565Y413710D01*
X537884Y413029D01*
X537403Y412195D01*
X537158Y411283D01*
X540311D01*
Y414436D01*
D02*
G37*
G36*
X628489Y411000D02*
X625500D01*
Y408010D01*
X626351Y408239D01*
X627149Y408699D01*
X627801Y409351D01*
X628262Y410149D01*
X628489Y411000D01*
D02*
G37*
G36*
X624500D02*
X621511D01*
X621738Y410149D01*
X622199Y409351D01*
X622851Y408699D01*
X623649Y408239D01*
X624500Y408010D01*
Y411000D01*
D02*
G37*
G36*
X651489Y410500D02*
X648500D01*
Y407511D01*
X649351Y407738D01*
X650149Y408199D01*
X650801Y408851D01*
X651262Y409649D01*
X651489Y410500D01*
D02*
G37*
G36*
X647500D02*
X644511D01*
X644738Y409649D01*
X645199Y408851D01*
X645851Y408199D01*
X646649Y407738D01*
X647500Y407511D01*
Y410500D01*
D02*
G37*
G36*
X503369D02*
X500217D01*
Y407347D01*
X501128Y407592D01*
X501962Y408073D01*
X502643Y408754D01*
X503125Y409588D01*
X503369Y410500D01*
D02*
G37*
G36*
X499217D02*
X496064D01*
X496308Y409588D01*
X496790Y408754D01*
X497471Y408073D01*
X498305Y407592D01*
X499217Y407347D01*
Y410500D01*
D02*
G37*
G36*
X580153Y410283D02*
X577000D01*
Y407131D01*
X577912Y407375D01*
X578746Y407857D01*
X579427Y408538D01*
X579908Y409372D01*
X580153Y410283D01*
D02*
G37*
G36*
X544463D02*
X541311D01*
Y407131D01*
X542222Y407375D01*
X543056Y407857D01*
X543738Y408538D01*
X544219Y409372D01*
X544463Y410283D01*
D02*
G37*
G36*
X576000D02*
X572848D01*
X573092Y409372D01*
X573573Y408538D01*
X574254Y407857D01*
X575088Y407375D01*
X576000Y407131D01*
Y410283D01*
D02*
G37*
G36*
X540311D02*
X537158D01*
X537403Y409372D01*
X537884Y408538D01*
X538565Y407857D01*
X539399Y407375D01*
X540311Y407131D01*
Y410283D01*
D02*
G37*
G36*
X675067Y398807D02*
X675000D01*
Y395000D01*
X678807D01*
Y395067D01*
X678514Y396163D01*
X677947Y397145D01*
X677145Y397947D01*
X676162Y398514D01*
X675067Y398807D01*
D02*
G37*
G36*
X674000D02*
X673933D01*
X672837Y398514D01*
X671855Y397947D01*
X671054Y397145D01*
X670486Y396163D01*
X670193Y395067D01*
Y395000D01*
X674000D01*
Y398807D01*
D02*
G37*
G36*
X678807Y394000D02*
X675000D01*
Y390193D01*
X675067D01*
X676162Y390486D01*
X677145Y391054D01*
X677947Y391855D01*
X678514Y392838D01*
X678807Y393933D01*
Y394000D01*
D02*
G37*
G36*
X674000D02*
X670193D01*
Y393933D01*
X670486Y392838D01*
X671054Y391855D01*
X671855Y391054D01*
X672837Y390486D01*
X673933Y390193D01*
X674000D01*
Y394000D01*
D02*
G37*
G36*
X576860Y467715D02*
X575897D01*
X574967Y467466D01*
X574133Y466985D01*
X573452Y466304D01*
X572970Y465470D01*
X572721Y464539D01*
Y463576D01*
X572970Y462646D01*
X573452Y461812D01*
X574133Y461131D01*
X574967Y460650D01*
X575897Y460400D01*
X576860D01*
X577790Y460650D01*
X578624Y461131D01*
X579305Y461812D01*
X579787Y462646D01*
X580036Y463576D01*
Y464539D01*
X579787Y465470D01*
X579305Y466304D01*
X578624Y466985D01*
X577790Y467466D01*
X576860Y467715D01*
D02*
G37*
G36*
X541427D02*
X540464D01*
X539534Y467466D01*
X538700Y466985D01*
X538019Y466304D01*
X537537Y465470D01*
X537288Y464539D01*
Y463576D01*
X537537Y462646D01*
X538019Y461812D01*
X538700Y461131D01*
X539534Y460650D01*
X540464Y460400D01*
X541427D01*
X542357Y460650D01*
X543191Y461131D01*
X543872Y461812D01*
X544354Y462646D01*
X544603Y463576D01*
Y464539D01*
X544354Y465470D01*
X543872Y466304D01*
X543191Y466985D01*
X542357Y467466D01*
X541427Y467715D01*
D02*
G37*
G36*
X621559Y460059D02*
X618900D01*
Y457400D01*
X621559D01*
Y460059D01*
D02*
G37*
G36*
X617100D02*
X614441D01*
Y457400D01*
X617100D01*
Y460059D01*
D02*
G37*
G36*
X621559Y455600D02*
X618900D01*
Y452941D01*
X621559D01*
Y455600D01*
D02*
G37*
G36*
X617100D02*
X614441D01*
Y452941D01*
X617100D01*
Y455600D01*
D02*
G37*
G36*
X705400Y454767D02*
Y452274D01*
X707893D01*
X707771Y452729D01*
X707309Y453529D01*
X706655Y454183D01*
X705855Y454645D01*
X705400Y454767D01*
D02*
G37*
G36*
X703600Y454767D02*
X703145Y454645D01*
X702345Y454183D01*
X701691Y453529D01*
X701229Y452729D01*
X701108Y452274D01*
X703600D01*
Y454767D01*
D02*
G37*
G36*
X675400Y454392D02*
Y451900D01*
X677892D01*
X677771Y452355D01*
X677309Y453155D01*
X676655Y453809D01*
X675855Y454271D01*
X675400Y454392D01*
D02*
G37*
G36*
X673600D02*
X673145Y454271D01*
X672345Y453809D01*
X671691Y453155D01*
X671229Y452355D01*
X671107Y451900D01*
X673600D01*
Y454392D01*
D02*
G37*
G36*
X703600Y450474D02*
X701108D01*
X701229Y450019D01*
X701691Y449219D01*
X702345Y448565D01*
X703145Y448103D01*
X703600Y447982D01*
Y450474D01*
D02*
G37*
G36*
X707893D02*
X705400D01*
Y447982D01*
X705855Y448103D01*
X706655Y448565D01*
X707309Y449219D01*
X707771Y450019D01*
X707893Y450474D01*
D02*
G37*
G36*
X677892Y450100D02*
X675400D01*
Y447608D01*
X675855Y447729D01*
X676655Y448191D01*
X677309Y448845D01*
X677771Y449645D01*
X677892Y450100D01*
D02*
G37*
G36*
X673600D02*
X671107D01*
X671229Y449645D01*
X671691Y448845D01*
X672345Y448191D01*
X673145Y447729D01*
X673600Y447608D01*
Y450100D01*
D02*
G37*
G36*
X433400Y448301D02*
Y445900D01*
X435801D01*
X435688Y446321D01*
X435238Y447101D01*
X434601Y447738D01*
X433821Y448188D01*
X433400Y448301D01*
D02*
G37*
G36*
X431600D02*
X431179Y448188D01*
X430399Y447738D01*
X429762Y447101D01*
X429312Y446321D01*
X429199Y445900D01*
X431600D01*
Y448301D01*
D02*
G37*
G36*
X494455Y446412D02*
Y443919D01*
X496947D01*
X496826Y444374D01*
X496363Y445174D01*
X495710Y445828D01*
X494910Y446290D01*
X494455Y446412D01*
D02*
G37*
G36*
X492655Y446412D02*
X492200Y446290D01*
X491400Y445828D01*
X490746Y445174D01*
X490284Y444374D01*
X490162Y443919D01*
X492655D01*
Y446412D01*
D02*
G37*
G36*
X390962Y450010D02*
X390038D01*
X389145Y449771D01*
X388345Y449309D01*
X387691Y448655D01*
X387229Y447855D01*
X386990Y446962D01*
Y446038D01*
X387229Y445145D01*
X387691Y444345D01*
X388345Y443691D01*
X389145Y443229D01*
X390038Y442990D01*
X390962D01*
X391855Y443229D01*
X392655Y443691D01*
X393309Y444345D01*
X393771Y445145D01*
X394010Y446038D01*
Y446962D01*
X393771Y447855D01*
X393309Y448655D01*
X392655Y449309D01*
X391855Y449771D01*
X390962Y450010D01*
D02*
G37*
G36*
X618469Y450059D02*
X617531D01*
X616626Y449817D01*
X615815Y449348D01*
X615152Y448685D01*
X614683Y447874D01*
X614441Y446969D01*
Y446031D01*
X614683Y445126D01*
X615152Y444315D01*
X615815Y443652D01*
X616626Y443184D01*
X617531Y442941D01*
X618469D01*
X619374Y443184D01*
X620185Y443652D01*
X620848Y444315D01*
X621316Y445126D01*
X621559Y446031D01*
Y446969D01*
X621316Y447874D01*
X620848Y448685D01*
X620185Y449348D01*
X619374Y449817D01*
X618469Y450059D01*
D02*
G37*
G36*
X267962Y449884D02*
X267038D01*
X266145Y449645D01*
X265345Y449183D01*
X264691Y448529D01*
X264229Y447729D01*
X263990Y446836D01*
Y445912D01*
X264229Y445019D01*
X264691Y444219D01*
X265345Y443565D01*
X266145Y443103D01*
X267038Y442864D01*
X267962D01*
X268855Y443103D01*
X269655Y443565D01*
X270309Y444219D01*
X270771Y445019D01*
X271010Y445912D01*
Y446836D01*
X270771Y447729D01*
X270309Y448529D01*
X269655Y449183D01*
X268855Y449645D01*
X267962Y449884D01*
D02*
G37*
G36*
X338337Y450256D02*
X337348D01*
X336393Y450000D01*
X335536Y449506D01*
X334837Y448806D01*
X334343Y447950D01*
X334087Y446994D01*
Y446005D01*
X334343Y445050D01*
X334837Y444194D01*
X335536Y443495D01*
X336393Y443000D01*
X337348Y442744D01*
X338337D01*
X339292Y443000D01*
X340149Y443495D01*
X340848Y444194D01*
X341342Y445050D01*
X341598Y446005D01*
Y446994D01*
X341342Y447950D01*
X340848Y448806D01*
X340149Y449506D01*
X339292Y450000D01*
X338337Y450256D01*
D02*
G37*
G36*
X321913D02*
X314402D01*
Y442744D01*
X321913D01*
Y450256D01*
D02*
G37*
G36*
X576981Y449874D02*
X576018D01*
X575088Y449625D01*
X574254Y449143D01*
X573573Y448462D01*
X573092Y447628D01*
X572843Y446698D01*
Y445735D01*
X573092Y444805D01*
X573573Y443971D01*
X574254Y443290D01*
X575088Y442808D01*
X576018Y442559D01*
X576981D01*
X577912Y442808D01*
X578746Y443290D01*
X579427Y443971D01*
X579908Y444805D01*
X580158Y445735D01*
Y446698D01*
X579908Y447628D01*
X579427Y448462D01*
X578746Y449143D01*
X577912Y449625D01*
X576981Y449874D01*
D02*
G37*
G36*
X541292D02*
X540329D01*
X539399Y449625D01*
X538565Y449143D01*
X537884Y448462D01*
X537403Y447628D01*
X537153Y446698D01*
Y445735D01*
X537403Y444805D01*
X537884Y443971D01*
X538565Y443290D01*
X539399Y442808D01*
X540329Y442559D01*
X541292D01*
X542222Y442808D01*
X543056Y443290D01*
X543738Y443971D01*
X544219Y444805D01*
X544468Y445735D01*
Y446698D01*
X544219Y447628D01*
X543738Y448462D01*
X543056Y449143D01*
X542222Y449625D01*
X541292Y449874D01*
D02*
G37*
G36*
X435801Y444100D02*
X433400D01*
Y441699D01*
X433821Y441812D01*
X434601Y442262D01*
X435238Y442899D01*
X435688Y443679D01*
X435801Y444100D01*
D02*
G37*
G36*
X431600D02*
X429199D01*
X429312Y443679D01*
X429762Y442899D01*
X430399Y442262D01*
X431179Y441812D01*
X431600Y441699D01*
Y444100D01*
D02*
G37*
G36*
X708010Y447010D02*
X700990D01*
Y439990D01*
X708010D01*
Y447010D01*
D02*
G37*
G36*
X492655Y442119D02*
X490162D01*
X490284Y441664D01*
X490746Y440864D01*
X491400Y440211D01*
X492200Y439748D01*
X492655Y439627D01*
Y442119D01*
D02*
G37*
G36*
X496947D02*
X494455D01*
Y439627D01*
X494910Y439748D01*
X495710Y440211D01*
X496363Y440864D01*
X496826Y441664D01*
X496947Y442119D01*
D02*
G37*
G36*
X678010Y446636D02*
X670990D01*
Y439616D01*
X678010D01*
Y446636D01*
D02*
G37*
G36*
X394010Y442136D02*
X391250D01*
Y439376D01*
X394010D01*
Y442136D01*
D02*
G37*
G36*
X389750D02*
X386990D01*
Y439376D01*
X389750D01*
Y442136D01*
D02*
G37*
G36*
X271010Y442010D02*
X268250D01*
Y439250D01*
X271010D01*
Y442010D01*
D02*
G37*
G36*
X266750D02*
X263990D01*
Y439250D01*
X266750D01*
Y442010D01*
D02*
G37*
G36*
X758500Y440989D02*
Y438000D01*
X761489D01*
X761262Y438851D01*
X760801Y439649D01*
X760149Y440301D01*
X759351Y440762D01*
X758500Y440989D01*
D02*
G37*
G36*
X757500D02*
X756649Y440762D01*
X755851Y440301D01*
X755199Y439649D01*
X754739Y438851D01*
X754510Y438000D01*
X757500D01*
Y440989D01*
D02*
G37*
G36*
X740500D02*
Y438000D01*
X743490D01*
X743261Y438851D01*
X742801Y439649D01*
X742149Y440301D01*
X741351Y440762D01*
X740500Y440989D01*
D02*
G37*
G36*
X739500D02*
X738649Y440762D01*
X737851Y440301D01*
X737199Y439649D01*
X736738Y438851D01*
X736511Y438000D01*
X739500D01*
Y440989D01*
D02*
G37*
G36*
X722500D02*
Y438000D01*
X725490D01*
X725261Y438851D01*
X724801Y439649D01*
X724149Y440301D01*
X723351Y440762D01*
X722500Y440989D01*
D02*
G37*
G36*
X721500D02*
X720649Y440762D01*
X719851Y440301D01*
X719199Y439649D01*
X718739Y438851D01*
X718510Y438000D01*
X721500D01*
Y440989D01*
D02*
G37*
G36*
X394010Y437876D02*
X391250D01*
Y435116D01*
X394010D01*
Y437876D01*
D02*
G37*
G36*
X389750D02*
X386990D01*
Y435116D01*
X389750D01*
Y437876D01*
D02*
G37*
G36*
X271010Y437750D02*
X268250D01*
Y434990D01*
X271010D01*
Y437750D01*
D02*
G37*
G36*
X266750D02*
X263990D01*
Y434990D01*
X266750D01*
Y437750D01*
D02*
G37*
G36*
X761489Y437000D02*
X758500D01*
Y434011D01*
X759351Y434238D01*
X760149Y434699D01*
X760801Y435351D01*
X761262Y436149D01*
X761489Y437000D01*
D02*
G37*
G36*
X757500D02*
X754510D01*
X754739Y436149D01*
X755199Y435351D01*
X755851Y434699D01*
X756649Y434238D01*
X757500Y434011D01*
Y437000D01*
D02*
G37*
G36*
X743490D02*
X740500D01*
Y434011D01*
X741351Y434238D01*
X742149Y434699D01*
X742801Y435351D01*
X743261Y436149D01*
X743490Y437000D01*
D02*
G37*
G36*
X739500D02*
X736511D01*
X736738Y436149D01*
X737199Y435351D01*
X737851Y434699D01*
X738649Y434238D01*
X739500Y434011D01*
Y437000D01*
D02*
G37*
G36*
X725490D02*
X722500D01*
Y434011D01*
X723351Y434238D01*
X724149Y434699D01*
X724801Y435351D01*
X725261Y436149D01*
X725490Y437000D01*
D02*
G37*
G36*
X721500D02*
X718510D01*
X718739Y436149D01*
X719199Y435351D01*
X719851Y434699D01*
X720649Y434238D01*
X721500Y434011D01*
Y437000D01*
D02*
G37*
G36*
X442931Y438433D02*
X442030D01*
X441160Y438200D01*
X440380Y437749D01*
X439743Y437113D01*
X439292Y436332D01*
X439059Y435462D01*
Y434561D01*
X439292Y433691D01*
X439743Y432911D01*
X440380Y432274D01*
X441160Y431824D01*
X442030Y431591D01*
X442931D01*
X443801Y431824D01*
X444581Y432274D01*
X445218Y432911D01*
X445668Y433691D01*
X445902Y434561D01*
Y435462D01*
X445668Y436332D01*
X445218Y437113D01*
X444581Y437749D01*
X443801Y438200D01*
X442931Y438433D01*
D02*
G37*
G36*
X758500Y424990D02*
Y422000D01*
X761489D01*
X761262Y422851D01*
X760801Y423649D01*
X760149Y424301D01*
X759351Y424761D01*
X758500Y424990D01*
D02*
G37*
G36*
X757500D02*
X756649Y424761D01*
X755851Y424301D01*
X755199Y423649D01*
X754739Y422851D01*
X754510Y422000D01*
X757500D01*
Y424990D01*
D02*
G37*
G36*
X740500D02*
Y422000D01*
X743490D01*
X743261Y422851D01*
X742801Y423649D01*
X742149Y424301D01*
X741351Y424761D01*
X740500Y424990D01*
D02*
G37*
G36*
X739500D02*
X738649Y424761D01*
X737851Y424301D01*
X737199Y423649D01*
X736738Y422851D01*
X736511Y422000D01*
X739500D01*
Y424990D01*
D02*
G37*
G36*
X432950Y428441D02*
X432050D01*
X431179Y428208D01*
X430399Y427757D01*
X429762Y427120D01*
X429312Y426340D01*
X429079Y425470D01*
Y424569D01*
X429312Y423699D01*
X429762Y422919D01*
X430399Y422282D01*
X431179Y421832D01*
X432050Y421598D01*
X432950D01*
X433821Y421832D01*
X434601Y422282D01*
X435238Y422919D01*
X435688Y423699D01*
X435921Y424569D01*
Y425470D01*
X435688Y426340D01*
X435238Y427120D01*
X434601Y427757D01*
X433821Y428208D01*
X432950Y428441D01*
D02*
G37*
G36*
X218527Y428500D02*
X217473D01*
X216456Y428227D01*
X215544Y427701D01*
X214799Y426956D01*
X214273Y426044D01*
X214000Y425027D01*
Y423973D01*
X214273Y422956D01*
X214799Y422044D01*
X215544Y421299D01*
X216456Y420773D01*
X217473Y420500D01*
X218527D01*
X219544Y420773D01*
X220456Y421299D01*
X221201Y422044D01*
X221727Y422956D01*
X222000Y423973D01*
Y425027D01*
X221727Y426044D01*
X221201Y426956D01*
X220456Y427701D01*
X219544Y428227D01*
X218527Y428500D01*
D02*
G37*
G36*
X761489Y421000D02*
X758500D01*
Y418011D01*
X759351Y418238D01*
X760149Y418699D01*
X760801Y419351D01*
X761262Y420149D01*
X761489Y421000D01*
D02*
G37*
G36*
X757500D02*
X754510D01*
X754739Y420149D01*
X755199Y419351D01*
X755851Y418699D01*
X756649Y418238D01*
X757500Y418011D01*
Y421000D01*
D02*
G37*
G36*
X743490D02*
X740500D01*
Y418011D01*
X741351Y418238D01*
X742149Y418699D01*
X742801Y419351D01*
X743261Y420149D01*
X743490Y421000D01*
D02*
G37*
G36*
X739500D02*
X736511D01*
X736738Y420149D01*
X737199Y419351D01*
X737851Y418699D01*
X738649Y418238D01*
X739500Y418011D01*
Y421000D01*
D02*
G37*
G36*
X219250Y418306D02*
Y415750D01*
X221806D01*
X221727Y416044D01*
X221201Y416956D01*
X220456Y417701D01*
X219544Y418227D01*
X219250Y418306D01*
D02*
G37*
G36*
X216750D02*
X216456Y418227D01*
X215544Y417701D01*
X214799Y416956D01*
X214273Y416044D01*
X214194Y415750D01*
X216750D01*
Y418306D01*
D02*
G37*
G36*
X221806Y413250D02*
X219250D01*
Y410694D01*
X219544Y410773D01*
X220456Y411299D01*
X221201Y412044D01*
X221727Y412956D01*
X221806Y413250D01*
D02*
G37*
G36*
X216750D02*
X214194D01*
X214273Y412956D01*
X214799Y412044D01*
X215544Y411299D01*
X216456Y410773D01*
X216750Y410694D01*
Y413250D01*
D02*
G37*
G36*
X464765Y414657D02*
X463802D01*
X462872Y414408D01*
X462038Y413927D01*
X461357Y413246D01*
X460875Y412412D01*
X460626Y411482D01*
Y410519D01*
X460875Y409588D01*
X461357Y408754D01*
X462038Y408073D01*
X462872Y407592D01*
X463802Y407342D01*
X464765D01*
X465695Y407592D01*
X466529Y408073D01*
X467210Y408754D01*
X467692Y409588D01*
X467941Y410519D01*
Y411482D01*
X467692Y412412D01*
X467210Y413246D01*
X466529Y413927D01*
X465695Y414408D01*
X464765Y414657D01*
D02*
G37*
G36*
X758500Y407489D02*
Y404500D01*
X761489D01*
X761262Y405351D01*
X760801Y406149D01*
X760149Y406801D01*
X759351Y407262D01*
X758500Y407489D01*
D02*
G37*
G36*
X757500D02*
X756649Y407262D01*
X755851Y406801D01*
X755199Y406149D01*
X754739Y405351D01*
X754510Y404500D01*
X757500D01*
Y407489D01*
D02*
G37*
G36*
X761489Y403500D02*
X758500D01*
Y400511D01*
X759351Y400738D01*
X760149Y401199D01*
X760801Y401851D01*
X761262Y402649D01*
X761489Y403500D01*
D02*
G37*
G36*
X757500D02*
X754510D01*
X754739Y402649D01*
X755199Y401851D01*
X755851Y401199D01*
X756649Y400738D01*
X757500Y400511D01*
Y403500D01*
D02*
G37*
G36*
X218527Y408500D02*
X217473D01*
X216456Y408227D01*
X215544Y407701D01*
X214799Y406956D01*
X214273Y406044D01*
X214000Y405027D01*
Y403973D01*
X214273Y402956D01*
X214799Y402044D01*
X215544Y401299D01*
X216456Y400773D01*
X217473Y400500D01*
X218527D01*
X219544Y400773D01*
X220456Y401299D01*
X221201Y402044D01*
X221727Y402956D01*
X222000Y403973D01*
Y405027D01*
X221727Y406044D01*
X221201Y406956D01*
X220456Y407701D01*
X219544Y408227D01*
X218527Y408500D01*
D02*
G37*
G36*
X268250Y392433D02*
Y389750D01*
X270933D01*
X270771Y390355D01*
X270309Y391155D01*
X269655Y391809D01*
X268855Y392271D01*
X268250Y392433D01*
D02*
G37*
G36*
X266750D02*
X266145Y392271D01*
X265345Y391809D01*
X264691Y391155D01*
X264229Y390355D01*
X264067Y389750D01*
X266750D01*
Y392433D01*
D02*
G37*
G36*
X270933Y388250D02*
X268250D01*
Y385567D01*
X268855Y385729D01*
X269655Y386191D01*
X270309Y386845D01*
X270771Y387645D01*
X270933Y388250D01*
D02*
G37*
G36*
X266750D02*
X264067D01*
X264229Y387645D01*
X264691Y386845D01*
X265345Y386191D01*
X266145Y385729D01*
X266750Y385567D01*
Y388250D01*
D02*
G37*
G36*
X271010Y384636D02*
X263990D01*
Y377616D01*
X271010D01*
Y384636D01*
D02*
G37*
G36*
X445740Y384503D02*
X438720D01*
Y377483D01*
X445740D01*
Y384503D01*
D02*
G37*
G36*
X393510Y384384D02*
X386490D01*
Y377364D01*
X393510D01*
Y384384D01*
D02*
G37*
G36*
X339337Y384756D02*
X338348D01*
X337393Y384500D01*
X336536Y384005D01*
X335837Y383306D01*
X335343Y382450D01*
X335087Y381494D01*
Y380505D01*
X335343Y379550D01*
X335837Y378694D01*
X336536Y377994D01*
X337393Y377500D01*
X338348Y377244D01*
X339337D01*
X340292Y377500D01*
X341149Y377994D01*
X341848Y378694D01*
X342342Y379550D01*
X342598Y380505D01*
Y381494D01*
X342342Y382450D01*
X341848Y383306D01*
X341149Y384005D01*
X340292Y384500D01*
X339337Y384756D01*
D02*
G37*
G36*
X322913D02*
X315402D01*
Y377244D01*
X322913D01*
Y384756D01*
D02*
G37*
G36*
X759307Y379307D02*
X756250D01*
Y376250D01*
X759307D01*
Y379307D01*
D02*
G37*
G36*
X753750D02*
X750693D01*
Y376250D01*
X753750D01*
Y379307D01*
D02*
G37*
G36*
X442980Y376551D02*
Y373869D01*
X445663D01*
X445501Y374474D01*
X445039Y375274D01*
X444385Y375927D01*
X443585Y376389D01*
X442980Y376551D01*
D02*
G37*
G36*
X441480D02*
X440875Y376389D01*
X440075Y375927D01*
X439422Y375274D01*
X438959Y374474D01*
X438797Y373869D01*
X441480D01*
Y376551D01*
D02*
G37*
G36*
X390750Y376433D02*
Y373750D01*
X393433D01*
X393271Y374355D01*
X392809Y375155D01*
X392155Y375809D01*
X391355Y376271D01*
X390750Y376433D01*
D02*
G37*
G36*
X389250D02*
X388645Y376271D01*
X387845Y375809D01*
X387191Y375155D01*
X386729Y374355D01*
X386567Y373750D01*
X389250D01*
Y376433D01*
D02*
G37*
G36*
X759307Y373750D02*
X756250D01*
Y370693D01*
X759307D01*
Y373750D01*
D02*
G37*
G36*
X753750D02*
X750693D01*
Y370693D01*
X753750D01*
Y373750D01*
D02*
G37*
G36*
X445663Y372369D02*
X442980D01*
Y369686D01*
X443585Y369848D01*
X444385Y370310D01*
X445039Y370964D01*
X445501Y371764D01*
X445663Y372369D01*
D02*
G37*
G36*
X441480D02*
X438797D01*
X438959Y371764D01*
X439422Y370964D01*
X440075Y370310D01*
X440875Y369848D01*
X441480Y369686D01*
Y372369D01*
D02*
G37*
G36*
X393433Y372250D02*
X390750D01*
Y369567D01*
X391355Y369729D01*
X392155Y370191D01*
X392809Y370845D01*
X393271Y371645D01*
X393433Y372250D01*
D02*
G37*
G36*
X389250D02*
X386567D01*
X386729Y371645D01*
X387191Y370845D01*
X387845Y370191D01*
X388645Y369729D01*
X389250Y369567D01*
Y372250D01*
D02*
G37*
G36*
X380500Y366490D02*
Y363500D01*
X383489D01*
X383261Y364351D01*
X382801Y365149D01*
X382149Y365801D01*
X381351Y366262D01*
X380500Y366490D01*
D02*
G37*
G36*
X379500D02*
X378649Y366262D01*
X377851Y365801D01*
X377199Y365149D01*
X376739Y364351D01*
X376511Y363500D01*
X379500D01*
Y366490D01*
D02*
G37*
G36*
X361500D02*
Y363500D01*
X364490D01*
X364262Y364351D01*
X363801Y365149D01*
X363149Y365801D01*
X362351Y366262D01*
X361500Y366490D01*
D02*
G37*
G36*
X360500D02*
X359649Y366262D01*
X358851Y365801D01*
X358199Y365149D01*
X357738Y364351D01*
X357510Y363500D01*
X360500D01*
Y366490D01*
D02*
G37*
G36*
X383489Y362500D02*
X380500D01*
Y359510D01*
X381351Y359738D01*
X382149Y360199D01*
X382801Y360851D01*
X383261Y361649D01*
X383489Y362500D01*
D02*
G37*
G36*
X379500D02*
X376511D01*
X376739Y361649D01*
X377199Y360851D01*
X377851Y360199D01*
X378649Y359738D01*
X379500Y359510D01*
Y362500D01*
D02*
G37*
G36*
X364490D02*
X361500D01*
Y359510D01*
X362351Y359738D01*
X363149Y360199D01*
X363801Y360851D01*
X364262Y361649D01*
X364490Y362500D01*
D02*
G37*
G36*
X360500D02*
X357510D01*
X357738Y361649D01*
X358199Y360851D01*
X358851Y360199D01*
X359649Y359738D01*
X360500Y359510D01*
Y362500D01*
D02*
G37*
%LPD*%
G36*
X219000Y423500D02*
X217000D01*
Y425500D01*
X219000D01*
Y423500D01*
D02*
G37*
G36*
Y403500D02*
X217000D01*
Y405500D01*
X219000D01*
Y403500D01*
D02*
G37*
%LPC*%
G36*
X755500Y231912D02*
Y228658D01*
X758754D01*
X758500Y229607D01*
X758006Y230464D01*
X757306Y231163D01*
X756450Y231657D01*
X755500Y231912D01*
D02*
G37*
G36*
X754500D02*
X753550Y231657D01*
X752694Y231163D01*
X751995Y230464D01*
X751500Y229607D01*
X751246Y228658D01*
X754500D01*
Y231912D01*
D02*
G37*
G36*
X709000Y230489D02*
Y227500D01*
X711989D01*
X711762Y228351D01*
X711301Y229149D01*
X710649Y229801D01*
X709851Y230261D01*
X709000Y230489D01*
D02*
G37*
G36*
X708000D02*
X707149Y230261D01*
X706351Y229801D01*
X705699Y229149D01*
X705238Y228351D01*
X705011Y227500D01*
X708000D01*
Y230489D01*
D02*
G37*
G36*
X661500D02*
Y227500D01*
X664490D01*
X664261Y228351D01*
X663801Y229149D01*
X663149Y229801D01*
X662351Y230261D01*
X661500Y230489D01*
D02*
G37*
G36*
X660500D02*
X659649Y230261D01*
X658851Y229801D01*
X658199Y229149D01*
X657738Y228351D01*
X657511Y227500D01*
X660500D01*
Y230489D01*
D02*
G37*
G36*
X758754Y227658D02*
X755500D01*
Y224403D01*
X756450Y224658D01*
X757306Y225152D01*
X758006Y225851D01*
X758500Y226708D01*
X758754Y227658D01*
D02*
G37*
G36*
X754500D02*
X751246D01*
X751500Y226708D01*
X751995Y225851D01*
X752694Y225152D01*
X753550Y224658D01*
X754500Y224403D01*
Y227658D01*
D02*
G37*
G36*
X711989Y226500D02*
X709000D01*
Y223511D01*
X709851Y223739D01*
X710649Y224199D01*
X711301Y224851D01*
X711762Y225649D01*
X711989Y226500D01*
D02*
G37*
G36*
X708000D02*
X705011D01*
X705238Y225649D01*
X705699Y224851D01*
X706351Y224199D01*
X707149Y223739D01*
X708000Y223511D01*
Y226500D01*
D02*
G37*
G36*
X664490D02*
X661500D01*
Y223511D01*
X662351Y223739D01*
X663149Y224199D01*
X663801Y224851D01*
X664261Y225649D01*
X664490Y226500D01*
D02*
G37*
G36*
X660500D02*
X657511D01*
X657738Y225649D01*
X658199Y224851D01*
X658851Y224199D01*
X659649Y223739D01*
X660500Y223511D01*
Y226500D01*
D02*
G37*
G36*
X756000Y305824D02*
Y303000D01*
X758824D01*
X758683Y303526D01*
X758163Y304427D01*
X757427Y305163D01*
X756526Y305683D01*
X756000Y305824D01*
D02*
G37*
G36*
X754000D02*
X753474Y305683D01*
X752573Y305163D01*
X751837Y304427D01*
X751317Y303526D01*
X751176Y303000D01*
X754000D01*
Y305824D01*
D02*
G37*
G36*
X758824Y301000D02*
X756000D01*
Y298176D01*
X756526Y298317D01*
X757427Y298837D01*
X758163Y299573D01*
X758683Y300474D01*
X758824Y301000D01*
D02*
G37*
G36*
X754000D02*
X751176D01*
X751317Y300474D01*
X751837Y299573D01*
X752573Y298837D01*
X753474Y298317D01*
X754000Y298176D01*
Y301000D01*
D02*
G37*
G36*
X755500Y279489D02*
Y276500D01*
X758490D01*
X758261Y277351D01*
X757801Y278149D01*
X757149Y278801D01*
X756351Y279261D01*
X755500Y279489D01*
D02*
G37*
G36*
X754500D02*
X753649Y279261D01*
X752851Y278801D01*
X752199Y278149D01*
X751739Y277351D01*
X751510Y276500D01*
X754500D01*
Y279489D01*
D02*
G37*
G36*
X758490Y275500D02*
X755500D01*
Y272511D01*
X756351Y272739D01*
X757149Y273199D01*
X757801Y273851D01*
X758261Y274649D01*
X758490Y275500D01*
D02*
G37*
G36*
X754500D02*
X751510D01*
X751739Y274649D01*
X752199Y273851D01*
X752851Y273199D01*
X753649Y272739D01*
X754500Y272511D01*
Y275500D01*
D02*
G37*
G36*
X756000Y251981D02*
Y248843D01*
X759138D01*
X758966Y249485D01*
X758406Y250456D01*
X757613Y251248D01*
X756643Y251808D01*
X756000Y251981D01*
D02*
G37*
G36*
X754000D02*
X753357Y251808D01*
X752387Y251248D01*
X751594Y250456D01*
X751034Y249485D01*
X750862Y248843D01*
X754000D01*
Y251981D01*
D02*
G37*
G36*
X759138Y246843D02*
X756000D01*
Y243704D01*
X756643Y243877D01*
X757613Y244437D01*
X758406Y245229D01*
X758966Y246200D01*
X759138Y246843D01*
D02*
G37*
G36*
X754000D02*
X750862D01*
X751034Y246200D01*
X751594Y245229D01*
X752387Y244437D01*
X753357Y243877D01*
X754000Y243704D01*
Y246843D01*
D02*
G37*
%LPD*%
D10*
X432500Y382453D02*
G03*
X432500Y417492I0J17520D01*
G01*
D02*
G03*
X432500Y382453I0J-17520D01*
G01*
D12*
X684835Y447063D02*
G03*
X684835Y447063I-10335J0D01*
G01*
X714835Y447437D02*
G03*
X714835Y447437I-10335J0D01*
G01*
X344732Y446500D02*
G03*
X344732Y446500I-16732J0D01*
G01*
X400335Y376937D02*
G03*
X400335Y376937I-10335J0D01*
G01*
X400835Y442563D02*
G03*
X400835Y442563I-10335J0D01*
G01*
X345732Y381000D02*
G03*
X345732Y381000I-16732J0D01*
G01*
X277835Y442437D02*
G03*
X277835Y442437I-10335J0D01*
G01*
Y385063D02*
G03*
X277835Y385063I-10335J0D01*
G01*
X241500Y324701D02*
G03*
X241500Y303299I0J-10701D01*
G01*
D02*
G03*
X241500Y324701I0J10701D01*
G01*
X353335Y289937D02*
G03*
X353335Y289937I-10335J0D01*
G01*
X453743D02*
G03*
X453743Y289937I-10335J0D01*
G01*
X452565Y377056D02*
G03*
X452565Y377056I-10335J0D01*
G01*
X504272Y257382D02*
G03*
X504272Y257382I-10335J0D01*
G01*
X771732Y238000D02*
G03*
X771732Y238000I-16732J0D01*
G01*
X413566Y289937D02*
G03*
X413566Y289937I-10335J0D01*
G01*
X404299Y219939D02*
G03*
X404299Y219939I-10335J0D01*
G01*
X503890Y439082D02*
G03*
X503890Y439082I-10335J0D01*
G01*
X515748Y353902D02*
X520748Y358902D01*
Y353902D02*
Y372406D01*
X479252D02*
X520748D01*
X479252Y353902D02*
Y372406D01*
Y353902D02*
X520748D01*
X628528Y230240D02*
Y267760D01*
X609512Y230240D02*
Y267760D01*
X628528D01*
X609512Y230240D02*
X628528D01*
X232445Y305732D02*
X233311Y306716D01*
X232445Y305732D02*
X233823Y304354D01*
X235201Y305732D01*
X265024Y275171D02*
X284040D01*
X265024Y237652D02*
X284040D01*
Y275171D01*
X265024Y237652D02*
Y275171D01*
X231776Y276402D02*
X241224D01*
Y251598D02*
Y276402D01*
X231776Y251598D02*
Y276402D01*
Y251598D02*
X241224D01*
X373098Y251776D02*
Y261224D01*
X397902D01*
X373098Y251776D02*
X397902D01*
Y261224D01*
X502402Y281276D02*
Y290724D01*
X477598Y281276D02*
X502402D01*
X477598Y290724D02*
X502402D01*
X477598Y281276D02*
Y290724D01*
X473634Y414642D02*
X490366D01*
X473634Y407358D02*
Y414642D01*
X490366Y407358D02*
Y414642D01*
X473634Y407358D02*
X490366D01*
X437069Y254075D02*
X442069Y259075D01*
X437069Y219075D02*
Y259075D01*
Y219075D02*
X464069D01*
Y259075D01*
X437069D02*
X464069D01*
X531488Y229435D02*
Y238884D01*
X556291D01*
X531488Y229435D02*
X556291D01*
Y238884D01*
X668508Y302807D02*
X673508Y307807D01*
X668508Y292020D02*
Y307807D01*
Y292020D02*
X709492D01*
Y307807D01*
X668508D02*
X709492D01*
X763307Y339508D02*
Y380492D01*
X747520Y339508D02*
X763307D01*
X747520D02*
Y380492D01*
X763307D01*
X758307D02*
X763307Y375492D01*
X560791Y309697D02*
X565791Y314697D01*
X560791Y296390D02*
Y314697D01*
Y296390D02*
X602209D01*
Y314697D01*
X560791D02*
X602209D01*
X313098Y251776D02*
Y261224D01*
X337902D01*
X313098Y251776D02*
X337902D01*
Y261224D01*
X571776Y416098D02*
X581224D01*
X571776D02*
Y440902D01*
X581224Y416098D02*
Y440902D01*
X571776D02*
X581224D01*
X571064Y459333D02*
Y468782D01*
X546260Y459333D02*
X571064D01*
X546260Y468782D02*
X571064D01*
X546260Y459333D02*
Y468782D01*
X537169Y420134D02*
Y436866D01*
Y420134D02*
X544452D01*
X537169Y436866D02*
X544452D01*
Y420134D02*
Y436866D01*
X608512Y427740D02*
X627528D01*
X608512Y465260D02*
X627528D01*
X608512Y427740D02*
Y465260D01*
X627528Y427740D02*
Y465260D01*
X704992Y386193D02*
X709992Y391193D01*
Y386193D02*
Y401980D01*
X669008D02*
X709992D01*
X669008Y386193D02*
Y401980D01*
Y386193D02*
X709992D01*
X619000Y247031D02*
Y250969D01*
X617031Y249000D02*
X620968D01*
X326031Y446500D02*
X329969D01*
X328000Y444531D02*
Y448468D01*
X329000Y379031D02*
Y382968D01*
X327031Y381000D02*
X330968D01*
X226862Y299362D02*
X256138D01*
X226862D02*
Y328638D01*
X256138D01*
Y299362D02*
Y328638D01*
X272583Y256412D02*
X276520D01*
X274551Y254443D02*
Y258380D01*
X236500Y262032D02*
Y265968D01*
X234531Y264000D02*
X238469D01*
X383531Y256500D02*
X387469D01*
X385500Y254532D02*
Y258469D01*
X488031Y286000D02*
X491968D01*
X490000Y284032D02*
Y287968D01*
X482000Y409031D02*
Y412968D01*
X480031Y411000D02*
X483968D01*
X541921Y234159D02*
X545857D01*
X543889Y232191D02*
Y236128D01*
X753031Y238000D02*
X756968D01*
X755000Y236032D02*
Y239968D01*
X323532Y256500D02*
X327468D01*
X325500Y254532D02*
Y258469D01*
X576500Y426532D02*
Y430469D01*
X574532Y428500D02*
X578469D01*
X556694Y464058D02*
X560631D01*
X558662Y462089D02*
Y466026D01*
X538842Y428500D02*
X542779D01*
X540811Y426532D02*
Y430469D01*
X616032Y446500D02*
X619969D01*
X618000Y444531D02*
Y448468D01*
X453957Y413555D02*
Y456468D01*
X411043D02*
X453957D01*
X411043Y413555D02*
Y456468D01*
Y413555D02*
X453957D01*
D13*
X791500Y467500D02*
G03*
X778000Y480500I-13250J-250D01*
G01*
Y199500D02*
G03*
X791500Y213500I-250J13750D01*
G01*
X204000Y212000D02*
G03*
X217500Y199500I13000J500D01*
G01*
Y480500D02*
G03*
X204000Y467500I-250J-13250D01*
G01*
X217500Y480500D02*
X778000D01*
X791500Y213500D02*
Y467500D01*
X217500Y199500D02*
X778000D01*
X204000Y212000D02*
Y467500D01*
D16*
X223000Y422000D02*
Y427000D01*
X220500Y419500D02*
X223000Y422000D01*
X215500Y419500D02*
X220500D01*
X213000Y422000D02*
X215500Y419500D01*
X220500D02*
X223000Y417000D01*
Y412000D02*
Y417000D01*
X220500Y409500D02*
X223000Y412000D01*
X215500Y409500D02*
X220500D01*
X213000Y412000D02*
X215500Y409500D01*
X213000Y412000D02*
Y417000D01*
X215500Y419500D01*
Y429500D02*
X220500D01*
X223000Y427000D01*
X213000D02*
X215500Y429500D01*
X213000Y422000D02*
Y427000D01*
X220500Y409500D02*
X223000Y407000D01*
Y402000D02*
Y407000D01*
X220500Y399500D02*
X223000Y402000D01*
X215500Y399500D02*
X220500D01*
X213000Y402000D02*
X215500Y399500D01*
X213000Y402000D02*
Y407000D01*
X215500Y409500D01*
D17*
X686803Y447063D02*
G03*
X686803Y447063I-12303J0D01*
G01*
X716803Y447437D02*
G03*
X716803Y447437I-12303J0D01*
G01*
X402303Y376937D02*
G03*
X402303Y376937I-12303J0D01*
G01*
X402803Y442563D02*
G03*
X402803Y442563I-12303J0D01*
G01*
X279803Y442437D02*
G03*
X279803Y442437I-12303J0D01*
G01*
Y385063D02*
G03*
X279803Y385063I-12303J0D01*
G01*
X355303Y289937D02*
G03*
X355303Y289937I-12303J0D01*
G01*
X455711D02*
G03*
X455711Y289937I-12303J0D01*
G01*
X454533Y377056D02*
G03*
X454533Y377056I-12303J0D01*
G01*
X506240Y257382D02*
G03*
X506240Y257382I-12303J0D01*
G01*
X415535Y289937D02*
G03*
X415535Y289937I-12303J0D01*
G01*
X406268Y219939D02*
G03*
X406268Y219939I-12303J0D01*
G01*
X505858Y439082D02*
G03*
X505858Y439082I-12303J0D01*
G01*
X521732Y352917D02*
Y373390D01*
X478268D02*
X521732D01*
X478268Y352917D02*
Y373390D01*
Y352917D02*
X521732D01*
X628921Y229847D02*
Y268154D01*
X609118Y229847D02*
X628921D01*
X609118D02*
Y268154D01*
X628921D01*
X310874Y463626D02*
X345126D01*
X310874Y429374D02*
Y463626D01*
Y429374D02*
X345126D01*
Y463626D01*
X346126Y363874D02*
Y398126D01*
X311874Y363874D02*
X346126D01*
X311874D02*
Y398126D01*
X346126D01*
X264630Y237258D02*
X284433D01*
Y275565D01*
X264630D02*
X284433D01*
X264630Y237258D02*
Y275565D01*
X231382Y243232D02*
X241618D01*
Y284768D01*
X231382Y243232D02*
Y284768D01*
X241618D01*
X406268Y251382D02*
Y261618D01*
X364732D02*
X406268D01*
X364732Y251382D02*
X406268D01*
X364732D02*
Y261618D01*
X469232Y280882D02*
Y291118D01*
Y280882D02*
X510768D01*
X469232Y291118D02*
X510768D01*
Y280882D02*
Y291118D01*
X461232Y406965D02*
X502768D01*
X461232D02*
Y415035D01*
X502768Y406965D02*
Y415035D01*
X461232D02*
X502768D01*
X431105Y218091D02*
Y260059D01*
Y218091D02*
X470034D01*
Y260059D01*
X431105D02*
X470034D01*
X564657Y229041D02*
Y239277D01*
X523121D02*
X564657D01*
X523121Y229041D02*
X564657D01*
X523121D02*
Y239277D01*
X667524Y291035D02*
Y308791D01*
Y291035D02*
X710476D01*
Y308791D01*
X667524D02*
X710476D01*
X764291Y338524D02*
Y381476D01*
X746535Y338524D02*
X764291D01*
X746535D02*
Y381476D01*
X764291D01*
X737874Y255126D02*
X772126D01*
Y220874D02*
Y255126D01*
X737874Y220874D02*
X772126D01*
X737874D02*
Y255126D01*
X559807Y295406D02*
Y315681D01*
Y295406D02*
X603193D01*
Y315681D01*
X559807D02*
X603193D01*
X346268Y251382D02*
Y261618D01*
X304732D02*
X346268D01*
X304732Y251382D02*
X346268D01*
X304732D02*
Y261618D01*
X571382Y449268D02*
X581618D01*
X571382Y407732D02*
Y449268D01*
X581618Y407732D02*
Y449268D01*
X571382Y407732D02*
X581618D01*
X537894Y458940D02*
Y469176D01*
Y458940D02*
X579430D01*
X537894Y469176D02*
X579430D01*
Y458940D02*
Y469176D01*
X544846Y407732D02*
Y449268D01*
X536775Y407732D02*
X544846D01*
X536775Y449268D02*
X544846D01*
X536775Y407732D02*
Y449268D01*
X608118Y465654D02*
X627921D01*
X608118Y427347D02*
Y465654D01*
Y427347D02*
X627921D01*
Y465654D01*
X710976Y385209D02*
Y402965D01*
X668024D02*
X710976D01*
X668024Y385209D02*
Y402965D01*
Y385209D02*
X710976D01*
D46*
X755000Y345000D02*
X771500Y328500D01*
X781000D01*
X704000Y285500D02*
X716000Y273500D01*
X704000Y285500D02*
Y299500D01*
X571500Y237500D02*
Y302000D01*
X568159Y234159D02*
X571500Y237500D01*
X561606Y234159D02*
X568159D01*
X262588Y246412D02*
X274551D01*
X246500Y262500D02*
Y314000D01*
Y262500D02*
X262588Y246412D01*
X618792Y249208D02*
X619000Y249000D01*
X576608Y447608D02*
X577858Y446358D01*
X576608Y446325D02*
X576784Y446500D01*
X576500Y446216D02*
X576608Y446325D01*
Y447608D01*
X540557Y447423D02*
X540811Y447169D01*
X540878Y447236D01*
Y463990D02*
X540945Y464058D01*
X576439Y447777D02*
X576608Y447608D01*
X576379Y464058D02*
X576439Y463997D01*
X493422Y435012D02*
X493555Y435145D01*
D47*
X370500Y287000D02*
X376500Y281000D01*
X370500Y287000D02*
Y397500D01*
X490000Y250000D02*
Y257382D01*
X466195Y244075D02*
X484075D01*
X490000Y250000D01*
Y257382D02*
Y366500D01*
D48*
X428500Y216002D02*
X482002D01*
X393965D02*
X428500D01*
X497874Y231874D02*
Y257382D01*
X482002Y216002D02*
X497874Y231874D01*
D49*
X422000Y222502D02*
X428500Y216002D01*
X422000Y352889D02*
X442230Y373119D01*
X422000Y222502D02*
Y352889D01*
X271624Y223876D02*
X393965D01*
X236500Y259000D02*
X271624Y223876D01*
X236500Y259000D02*
Y281716D01*
D50*
X674500Y443126D02*
D03*
X704500Y443500D02*
D03*
X390000Y380874D02*
D03*
X390500Y438626D02*
D03*
X267500Y438500D02*
D03*
Y381126D02*
D03*
X343000Y293874D02*
D03*
X443408D02*
D03*
X442230Y380993D02*
D03*
X403232Y293874D02*
D03*
X393965Y216002D02*
D03*
X493555Y435145D02*
D03*
D51*
X674500Y451000D02*
D03*
X704500Y451374D02*
D03*
X493555Y443019D02*
D03*
X390000Y373000D02*
D03*
X390500Y446500D02*
D03*
X267500Y446374D02*
D03*
Y389000D02*
D03*
X343000Y286000D02*
D03*
X443408D02*
D03*
X442230Y373119D02*
D03*
X497874Y257382D02*
D03*
X403232Y286000D02*
D03*
X393965Y223876D02*
D03*
D52*
X490000Y366500D02*
D03*
X500000D02*
D03*
D53*
X510000D02*
D03*
D54*
X619000Y259000D02*
D03*
X274551Y246412D02*
D03*
X618000Y456500D02*
D03*
D55*
X619000Y249000D02*
D03*
Y239000D02*
D03*
X274551Y266412D02*
D03*
Y256412D02*
D03*
X618000Y436500D02*
D03*
Y446500D02*
D03*
D56*
X755000Y302000D02*
D03*
X694500Y416500D02*
D03*
Y250500D02*
D03*
X684500D02*
D03*
X780500Y365000D02*
D03*
D57*
X755000Y312000D02*
D03*
X780500Y355000D02*
D03*
D58*
X318158Y446500D02*
D03*
X319158Y381000D02*
D03*
D59*
X337842Y446500D02*
D03*
X338843Y381000D02*
D03*
X755000Y247843D02*
D03*
Y228157D02*
D03*
D60*
X218000Y424500D02*
D03*
Y414500D02*
D03*
Y404500D02*
D03*
D61*
X236500Y314000D02*
D03*
X241500Y319000D02*
D03*
X246500Y314000D02*
D03*
D62*
X241500Y309000D02*
D03*
D63*
X236500Y281716D02*
D03*
X367783Y256500D02*
D03*
X403217D02*
D03*
X507717Y286000D02*
D03*
X499717Y411000D02*
D03*
X464284D02*
D03*
X526172Y234159D02*
D03*
X307784Y256500D02*
D03*
X343216D02*
D03*
X576500Y410783D02*
D03*
Y446216D02*
D03*
X576379Y464058D02*
D03*
X540945D02*
D03*
X540811Y446216D02*
D03*
Y410783D02*
D03*
D64*
X236500Y246284D02*
D03*
D65*
X472284Y286000D02*
D03*
X561606Y234159D02*
D03*
D66*
X490000Y257382D02*
D03*
D67*
X466195Y254075D02*
D03*
Y244075D02*
D03*
Y234075D02*
D03*
Y224075D02*
D03*
X434943D02*
D03*
Y234075D02*
D03*
Y244075D02*
D03*
D68*
Y254075D02*
D03*
D69*
X704000Y299500D02*
D03*
X694000D02*
D03*
X684000D02*
D03*
X755000Y365000D02*
D03*
Y355000D02*
D03*
Y345000D02*
D03*
X674500Y394500D02*
D03*
X684500D02*
D03*
X694500D02*
D03*
D70*
X674000Y299500D02*
D03*
X704500Y394500D02*
D03*
D71*
X755000Y375000D02*
D03*
D72*
X684500Y416500D02*
D03*
D73*
X591500Y302000D02*
D03*
X581500D02*
D03*
D74*
X571500D02*
D03*
D75*
X432500Y425020D02*
D03*
X442480Y435012D02*
D03*
X432500Y445000D02*
D03*
D76*
X539500Y318500D02*
D03*
X705500Y326000D02*
D03*
X510000Y390500D02*
D03*
X520000Y435500D02*
D03*
X253500Y255500D02*
D03*
X307500Y334500D02*
D03*
X313000Y282000D02*
D03*
X648000Y411000D02*
D03*
X625000Y411500D02*
D03*
X707000Y356000D02*
D03*
X661000Y227000D02*
D03*
X708500D02*
D03*
X755000Y276000D02*
D03*
X722000Y437500D02*
D03*
X740000Y421500D02*
D03*
Y437500D02*
D03*
X758000D02*
D03*
Y421500D02*
D03*
X781000Y328500D02*
D03*
X716000Y273500D02*
D03*
X657500Y259000D02*
D03*
X758000Y404000D02*
D03*
X361000Y363000D02*
D03*
X380000D02*
D03*
X370500Y397500D02*
D03*
X376500Y281000D02*
D03*
D77*
X774000Y464500D02*
D03*
X776000Y217000D02*
D03*
X222000Y216000D02*
D03*
X218000Y466500D02*
D03*
M02*
