G04*
G04 #@! TF.GenerationSoftware,Altium Limited,Altium Designer,21.2.2 (38)*
G04*
G04 Layer_Physical_Order=2*
G04 Layer_Color=16776960*
%FSLAX25Y25*%
%MOIN*%
G70*
G04*
G04 #@! TF.SameCoordinates,821FD0D4-0334-4DB9-88A1-7179C856D29A*
G04*
G04*
G04 #@! TF.FilePolarity,Positive*
G04*
G01*
G75*
%ADD10C,0.00787*%
%ADD12C,0.00394*%
%ADD16C,0.00600*%
%ADD17C,0.00197*%
%ADD46C,0.01200*%
%ADD47C,0.02500*%
%ADD48C,0.02000*%
%ADD49C,0.02200*%
%ADD50R,0.05020X0.05020*%
%ADD51C,0.05020*%
%ADD52C,0.07618*%
%ADD53R,0.07618X0.07618*%
%ADD54R,0.05118X0.05118*%
%ADD55C,0.05118*%
%ADD56C,0.05906*%
%ADD57R,0.05906X0.05906*%
%ADD58R,0.05512X0.05512*%
%ADD59C,0.05512*%
%ADD60C,0.06000*%
%ADD61C,0.04654*%
%ADD62R,0.04654X0.04654*%
%ADD63C,0.05315*%
%ADD64R,0.05315X0.05315*%
%ADD65R,0.05315X0.05315*%
%ADD66R,0.05020X0.05020*%
%ADD67C,0.04461*%
%ADD68R,0.04461X0.04461*%
%ADD69C,0.06614*%
%ADD70R,0.06614X0.06614*%
%ADD71R,0.06614X0.06614*%
%ADD72R,0.05906X0.05906*%
%ADD73C,0.08209*%
%ADD74R,0.08209X0.08209*%
%ADD75C,0.04842*%
%ADD76C,0.05000*%
%ADD77C,0.11811*%
%ADD78C,0.04000*%
G36*
X397000Y449000D02*
Y442000D01*
X395272Y440272D01*
X394810Y440463D01*
Y442936D01*
X392346D01*
X392212Y443436D01*
X392655Y443691D01*
X393309Y444345D01*
X393771Y445145D01*
X394000Y446000D01*
X390500D01*
X387000D01*
X387229Y445145D01*
X387691Y444345D01*
X388345Y443691D01*
X388788Y443436D01*
X388654Y442936D01*
X386190D01*
Y438626D01*
X335374D01*
X331500Y442500D01*
Y449500D01*
X335000Y453000D01*
X393000D01*
X397000Y449000D01*
D02*
G37*
G36*
X326000Y449789D02*
X326000Y443000D01*
X322500Y439500D01*
X271810D01*
Y442810D01*
X269346D01*
X269212Y443310D01*
X269655Y443565D01*
X270309Y444219D01*
X270771Y445019D01*
X271000Y445874D01*
X267500D01*
X264000D01*
X264229Y445019D01*
X264691Y444219D01*
X265345Y443565D01*
X265788Y443310D01*
X265654Y442810D01*
X263190D01*
Y439500D01*
X241000D01*
X220500Y419000D01*
X219752D01*
X218632Y419300D01*
X217368D01*
X216248Y419000D01*
X215000D01*
X211500Y422500D01*
Y429000D01*
X236289Y453789D01*
X322000D01*
X326000Y449789D01*
D02*
G37*
G36*
X219000Y413500D02*
X217000D01*
Y415500D01*
X219000D01*
Y413500D01*
D02*
G37*
G36*
X714000Y401000D02*
Y296500D01*
X707000Y289500D01*
X701443D01*
X695881Y295062D01*
Y295613D01*
X696645Y296054D01*
X697446Y296855D01*
X698014Y297837D01*
X698307Y298933D01*
Y300067D01*
X698014Y301163D01*
X697446Y302145D01*
X696645Y302946D01*
X695662Y303514D01*
X694567Y303807D01*
X693433D01*
X692338Y303514D01*
X691355Y302946D01*
X690554Y302145D01*
X690170Y301481D01*
X689551Y301393D01*
X677443Y313500D01*
X513500D01*
X489500Y289500D01*
X475941D01*
Y289657D01*
X468626D01*
Y289500D01*
X443907D01*
X443870Y289510D01*
X442946D01*
X442909Y289500D01*
X403730D01*
X403694Y289510D01*
X402770D01*
X402733Y289500D01*
X343499D01*
X343462Y289510D01*
X342538D01*
X342501Y289500D01*
X327000D01*
X298500Y261000D01*
X264000Y261000D01*
X239000Y286000D01*
X239000Y305673D01*
X241000D01*
Y309000D01*
X242000D01*
Y305673D01*
X244000D01*
X244000Y291500D01*
X262500Y273000D01*
X296000D01*
X324500Y301500D01*
X478000D01*
X501000Y324500D01*
X687000D01*
X698500Y336000D01*
Y392814D01*
X698514Y392838D01*
X698807Y393933D01*
Y395067D01*
X698514Y396163D01*
X698500Y396186D01*
Y402000D01*
X701897Y405397D01*
X702359Y405206D01*
Y398807D01*
X700193D01*
Y395000D01*
X704500D01*
X708807D01*
Y398807D01*
X706641D01*
Y406000D01*
X709000D01*
X714000Y401000D01*
D02*
G37*
G36*
X242000Y388500D02*
X263190D01*
Y388433D01*
X263484Y387336D01*
X264051Y386354D01*
X264854Y385551D01*
X265573Y385136D01*
X265439Y384636D01*
X263990D01*
Y381626D01*
X267500D01*
X271010D01*
Y384636D01*
X269561D01*
X269427Y385136D01*
X270146Y385551D01*
X270949Y386354D01*
X271516Y387336D01*
X271810Y388433D01*
Y388500D01*
X321500Y388500D01*
X325000Y385000D01*
X325000Y377000D01*
X321500Y373500D01*
X241000Y373500D01*
X212500Y402000D01*
Y407000D01*
X215000Y409500D01*
X221000D01*
X242000Y388500D01*
D02*
G37*
G36*
X495500Y382000D02*
Y369924D01*
X494827Y368758D01*
X494499Y368696D01*
X494271Y368721D01*
X493848Y369453D01*
X492953Y370348D01*
X491856Y370981D01*
X490633Y371309D01*
X490500D01*
Y366500D01*
Y361691D01*
X490633D01*
X491856Y362019D01*
X492953Y362652D01*
X493848Y363547D01*
X494271Y364279D01*
X494499Y364304D01*
X494827Y364242D01*
X495500Y363076D01*
Y359000D01*
X493500Y357000D01*
X485000D01*
X468881Y373119D01*
X446540D01*
Y373686D01*
X446246Y374782D01*
X445679Y375765D01*
X444876Y376568D01*
X444157Y376983D01*
X444291Y377483D01*
X445740D01*
Y380493D01*
X442230D01*
X438720D01*
Y377483D01*
X440169D01*
X440303Y376983D01*
X439584Y376568D01*
X438781Y375765D01*
X438214Y374782D01*
X437920Y373686D01*
Y373119D01*
X394310D01*
Y373567D01*
X394016Y374663D01*
X393449Y375646D01*
X392646Y376449D01*
X391927Y376864D01*
X392061Y377364D01*
X393510D01*
Y380374D01*
X390000D01*
X386490D01*
Y377364D01*
X387939D01*
X388073Y376864D01*
X387354Y376449D01*
X386551Y375646D01*
X385984Y374663D01*
X385690Y373567D01*
Y373119D01*
X337881D01*
X333500Y377500D01*
Y385500D01*
X337500Y389500D01*
X488000D01*
X495500Y382000D01*
D02*
G37*
G36*
X762500Y346500D02*
Y310000D01*
X759000Y306500D01*
X750000D01*
X746500Y310000D01*
Y339000D01*
Y346000D01*
X750500Y350000D01*
X759000D01*
X762500Y346500D01*
D02*
G37*
%LPC*%
G36*
X391000Y450000D02*
Y447000D01*
X394000D01*
X393771Y447855D01*
X393309Y448655D01*
X392655Y449309D01*
X391855Y449771D01*
X391000Y450000D01*
D02*
G37*
G36*
X338342Y450254D02*
Y447000D01*
X341597D01*
X341342Y447950D01*
X340848Y448806D01*
X340149Y449506D01*
X339292Y450000D01*
X338342Y450254D01*
D02*
G37*
G36*
X337343D02*
X336393Y450000D01*
X335536Y449506D01*
X334837Y448806D01*
X334343Y447950D01*
X334088Y447000D01*
X337343D01*
Y450254D01*
D02*
G37*
G36*
X390000Y450000D02*
X389145Y449771D01*
X388345Y449309D01*
X387691Y448655D01*
X387229Y447855D01*
X387000Y447000D01*
X390000D01*
Y450000D01*
D02*
G37*
G36*
X341597Y446000D02*
X338342D01*
Y442746D01*
X339292Y443000D01*
X340149Y443495D01*
X340848Y444194D01*
X341342Y445050D01*
X341597Y446000D01*
D02*
G37*
G36*
X337343D02*
X334088D01*
X334343Y445050D01*
X334837Y444194D01*
X335536Y443495D01*
X336393Y443000D01*
X337343Y442746D01*
Y446000D01*
D02*
G37*
G36*
X321913Y450256D02*
X318657D01*
Y447000D01*
X321913D01*
Y450256D01*
D02*
G37*
G36*
X317657D02*
X314402D01*
Y447000D01*
X317657D01*
Y450256D01*
D02*
G37*
G36*
X268000Y449874D02*
Y446874D01*
X271000D01*
X270771Y447729D01*
X270309Y448529D01*
X269655Y449183D01*
X268855Y449645D01*
X268000Y449874D01*
D02*
G37*
G36*
X267000Y449874D02*
X266145Y449645D01*
X265345Y449183D01*
X264691Y448529D01*
X264229Y447729D01*
X264000Y446874D01*
X267000D01*
Y449874D01*
D02*
G37*
G36*
X321913Y446000D02*
X318657D01*
Y442744D01*
X321913D01*
Y446000D01*
D02*
G37*
G36*
X317657D02*
X314402D01*
Y442744D01*
X317657D01*
Y446000D01*
D02*
G37*
G36*
X218527Y428500D02*
X218500D01*
Y425500D01*
X219000D01*
Y425000D01*
X222000D01*
Y425027D01*
X221727Y426044D01*
X221201Y426956D01*
X220456Y427701D01*
X219544Y428227D01*
X218527Y428500D01*
D02*
G37*
G36*
X217500D02*
X217473D01*
X216456Y428227D01*
X215544Y427701D01*
X214799Y426956D01*
X214273Y426044D01*
X214000Y425027D01*
Y425000D01*
X217000D01*
Y425500D01*
X217500D01*
Y428500D01*
D02*
G37*
G36*
X222000Y424000D02*
X219000D01*
Y423500D01*
X218500D01*
Y420500D01*
X218527D01*
X219544Y420773D01*
X220456Y421299D01*
X221201Y422044D01*
X221727Y422956D01*
X222000Y423973D01*
Y424000D01*
D02*
G37*
G36*
X217000D02*
X214000D01*
Y423973D01*
X214273Y422956D01*
X214799Y422044D01*
X215544Y421299D01*
X216456Y420773D01*
X217473Y420500D01*
X217500D01*
Y423500D01*
X217000D01*
Y424000D01*
D02*
G37*
G36*
X708807Y394000D02*
X705000D01*
Y390193D01*
X708807D01*
Y394000D01*
D02*
G37*
G36*
X704000D02*
X700193D01*
Y390193D01*
X704000D01*
Y394000D01*
D02*
G37*
G36*
X707500Y359489D02*
Y356500D01*
X710490D01*
X710261Y357351D01*
X709801Y358149D01*
X709149Y358801D01*
X708351Y359261D01*
X707500Y359489D01*
D02*
G37*
G36*
X706500D02*
X705649Y359261D01*
X704851Y358801D01*
X704199Y358149D01*
X703738Y357351D01*
X703511Y356500D01*
X706500D01*
Y359489D01*
D02*
G37*
G36*
X710490Y355500D02*
X707500D01*
Y352510D01*
X708351Y352738D01*
X709149Y353199D01*
X709801Y353851D01*
X710261Y354649D01*
X710490Y355500D01*
D02*
G37*
G36*
X706500D02*
X703511D01*
X703738Y354649D01*
X704199Y353851D01*
X704851Y353199D01*
X705649Y352738D01*
X706500Y352510D01*
Y355500D01*
D02*
G37*
G36*
X706000Y329489D02*
Y326500D01*
X708989D01*
X708762Y327351D01*
X708301Y328149D01*
X707649Y328801D01*
X706851Y329261D01*
X706000Y329489D01*
D02*
G37*
G36*
X705000D02*
X704149Y329261D01*
X703351Y328801D01*
X702699Y328149D01*
X702239Y327351D01*
X702010Y326500D01*
X705000D01*
Y329489D01*
D02*
G37*
G36*
X708989Y325500D02*
X706000D01*
Y322511D01*
X706851Y322739D01*
X707649Y323199D01*
X708301Y323851D01*
X708762Y324649D01*
X708989Y325500D01*
D02*
G37*
G36*
X705000D02*
X702010D01*
X702239Y324649D01*
X702699Y323851D01*
X703351Y323199D01*
X704149Y322739D01*
X705000Y322511D01*
Y325500D01*
D02*
G37*
G36*
X540000Y321989D02*
Y319000D01*
X542989D01*
X542762Y319851D01*
X542301Y320649D01*
X541649Y321301D01*
X540851Y321761D01*
X540000Y321989D01*
D02*
G37*
G36*
X539000D02*
X538149Y321761D01*
X537351Y321301D01*
X536699Y320649D01*
X536238Y319851D01*
X536011Y319000D01*
X539000D01*
Y321989D01*
D02*
G37*
G36*
X542989Y318000D02*
X540000D01*
Y315010D01*
X540851Y315238D01*
X541649Y315699D01*
X542301Y316351D01*
X542762Y317149D01*
X542989Y318000D01*
D02*
G37*
G36*
X539000D02*
X536011D01*
X536238Y317149D01*
X536699Y316351D01*
X537351Y315699D01*
X538149Y315238D01*
X539000Y315010D01*
Y318000D01*
D02*
G37*
G36*
X704567Y303807D02*
X704500D01*
Y300000D01*
X708307D01*
Y300067D01*
X708014Y301163D01*
X707446Y302145D01*
X706645Y302946D01*
X705662Y303514D01*
X704567Y303807D01*
D02*
G37*
G36*
X703500D02*
X703433D01*
X702338Y303514D01*
X701355Y302946D01*
X700554Y302145D01*
X699986Y301163D01*
X699693Y300067D01*
Y300000D01*
X703500D01*
Y303807D01*
D02*
G37*
G36*
X708307Y299000D02*
X704500D01*
Y295193D01*
X704567D01*
X705662Y295486D01*
X706645Y296054D01*
X707446Y296855D01*
X708014Y297837D01*
X708307Y298933D01*
Y299000D01*
D02*
G37*
G36*
X703500D02*
X699693D01*
Y298933D01*
X699986Y297837D01*
X700554Y296855D01*
X701355Y296054D01*
X702338Y295486D01*
X703433Y295193D01*
X703500D01*
Y299000D01*
D02*
G37*
G36*
X446918Y297384D02*
X443908D01*
Y294374D01*
X446918D01*
Y297384D01*
D02*
G37*
G36*
X406742D02*
X403732D01*
Y294374D01*
X406742D01*
Y297384D01*
D02*
G37*
G36*
X346510D02*
X343500D01*
Y294374D01*
X346510D01*
Y297384D01*
D02*
G37*
G36*
X442908D02*
X439898D01*
Y294374D01*
X442908D01*
Y297384D01*
D02*
G37*
G36*
X402732D02*
X399722D01*
Y294374D01*
X402732D01*
Y297384D01*
D02*
G37*
G36*
X342500D02*
X339490D01*
Y294374D01*
X342500D01*
Y297384D01*
D02*
G37*
G36*
X446918Y293374D02*
X443908D01*
Y290364D01*
X446918D01*
Y293374D01*
D02*
G37*
G36*
X442908D02*
X439898D01*
Y290364D01*
X442908D01*
Y293374D01*
D02*
G37*
G36*
X406742D02*
X403732D01*
Y290364D01*
X406742D01*
Y293374D01*
D02*
G37*
G36*
X402732D02*
X399722D01*
Y290364D01*
X402732D01*
Y293374D01*
D02*
G37*
G36*
X346510D02*
X343500D01*
Y290364D01*
X346510D01*
Y293374D01*
D02*
G37*
G36*
X342500D02*
X339490D01*
Y290364D01*
X342500D01*
Y293374D01*
D02*
G37*
G36*
X313500Y285490D02*
Y282500D01*
X316490D01*
X316262Y283351D01*
X315801Y284149D01*
X315149Y284801D01*
X314351Y285262D01*
X313500Y285490D01*
D02*
G37*
G36*
X312500D02*
X311649Y285262D01*
X310851Y284801D01*
X310199Y284149D01*
X309738Y283351D01*
X309510Y282500D01*
X312500D01*
Y285490D01*
D02*
G37*
G36*
X316490Y281500D02*
X313500D01*
Y278510D01*
X314351Y278738D01*
X315149Y279199D01*
X315801Y279851D01*
X316262Y280649D01*
X316490Y281500D01*
D02*
G37*
G36*
X312500D02*
X309510D01*
X309738Y280649D01*
X310199Y279851D01*
X310851Y279199D01*
X311649Y278738D01*
X312500Y278510D01*
Y281500D01*
D02*
G37*
G36*
X275051Y269962D02*
Y266912D01*
X278102D01*
X277868Y267785D01*
X277399Y268597D01*
X276737Y269260D01*
X275925Y269728D01*
X275051Y269962D01*
D02*
G37*
G36*
X274051D02*
X273178Y269728D01*
X272366Y269260D01*
X271704Y268597D01*
X271235Y267785D01*
X271001Y266912D01*
X274051D01*
Y269962D01*
D02*
G37*
G36*
X278102Y265912D02*
X275051D01*
Y262861D01*
X275925Y263095D01*
X276737Y263564D01*
X277399Y264226D01*
X277868Y265038D01*
X278102Y265912D01*
D02*
G37*
G36*
X274051D02*
X271001D01*
X271235Y265038D01*
X271704Y264226D01*
X272366Y263564D01*
X273178Y263095D01*
X274051Y262861D01*
Y265912D01*
D02*
G37*
G36*
X218527Y408500D02*
X218500D01*
Y405500D01*
X219000D01*
Y405000D01*
X222000D01*
Y405027D01*
X221727Y406044D01*
X221201Y406956D01*
X220456Y407701D01*
X219544Y408227D01*
X218527Y408500D01*
D02*
G37*
G36*
X217500D02*
X217473D01*
X216456Y408227D01*
X215544Y407701D01*
X214799Y406956D01*
X214273Y406044D01*
X214000Y405027D01*
Y405000D01*
X217000D01*
Y405500D01*
X217500D01*
Y408500D01*
D02*
G37*
G36*
X222000Y404000D02*
X219000D01*
Y403500D01*
X218500D01*
Y400500D01*
X218527D01*
X219544Y400773D01*
X220456Y401299D01*
X221201Y402044D01*
X221727Y402956D01*
X222000Y403973D01*
Y404000D01*
D02*
G37*
G36*
X217000D02*
X214000D01*
Y403973D01*
X214273Y402956D01*
X214799Y402044D01*
X215544Y401299D01*
X216456Y400773D01*
X217473Y400500D01*
X217500D01*
Y403500D01*
X217000D01*
Y404000D01*
D02*
G37*
G36*
X322913Y384756D02*
X319657D01*
Y381500D01*
X322913D01*
Y384756D01*
D02*
G37*
G36*
X318657D02*
X315402D01*
Y381500D01*
X318657D01*
Y384756D01*
D02*
G37*
G36*
X271010Y380626D02*
X268000D01*
Y377616D01*
X271010D01*
Y380626D01*
D02*
G37*
G36*
X267000D02*
X263990D01*
Y377616D01*
X267000D01*
Y380626D01*
D02*
G37*
G36*
X322913Y380500D02*
X319657D01*
Y377244D01*
X322913D01*
Y380500D01*
D02*
G37*
G36*
X318657D02*
X315402D01*
Y377244D01*
X318657D01*
Y380500D01*
D02*
G37*
G36*
X339342Y384754D02*
Y381500D01*
X342597D01*
X342342Y382450D01*
X341848Y383306D01*
X341149Y384005D01*
X340292Y384500D01*
X339342Y384754D01*
D02*
G37*
G36*
X338342D02*
X337393Y384500D01*
X336536Y384005D01*
X335837Y383306D01*
X335343Y382450D01*
X335088Y381500D01*
X338342D01*
Y384754D01*
D02*
G37*
G36*
X445740Y384503D02*
X442730D01*
Y381493D01*
X445740D01*
Y384503D01*
D02*
G37*
G36*
X441730D02*
X438720D01*
Y381493D01*
X441730D01*
Y384503D01*
D02*
G37*
G36*
X393510Y384384D02*
X390500D01*
Y381374D01*
X393510D01*
Y384384D01*
D02*
G37*
G36*
X389500D02*
X386490D01*
Y381374D01*
X389500D01*
Y384384D01*
D02*
G37*
G36*
X342597Y380500D02*
X339342D01*
Y377246D01*
X340292Y377500D01*
X341149Y377994D01*
X341848Y378694D01*
X342342Y379550D01*
X342597Y380500D01*
D02*
G37*
G36*
X338342D02*
X335088D01*
X335343Y379550D01*
X335837Y378694D01*
X336536Y377994D01*
X337393Y377500D01*
X338342Y377246D01*
Y380500D01*
D02*
G37*
G36*
X489500Y371309D02*
X489367D01*
X488144Y370981D01*
X487047Y370348D01*
X486152Y369453D01*
X485519Y368356D01*
X485191Y367133D01*
Y367000D01*
X489500D01*
Y371309D01*
D02*
G37*
G36*
Y366000D02*
X485191D01*
Y365867D01*
X485519Y364644D01*
X486152Y363547D01*
X487047Y362652D01*
X488144Y362019D01*
X489367Y361691D01*
X489500D01*
Y366000D01*
D02*
G37*
G36*
X755567Y349307D02*
X755500D01*
Y345500D01*
X759307D01*
Y345567D01*
X759014Y346662D01*
X758447Y347645D01*
X757645Y348446D01*
X756663Y349014D01*
X755567Y349307D01*
D02*
G37*
G36*
X754500D02*
X754433D01*
X753337Y349014D01*
X752355Y348446D01*
X751553Y347645D01*
X750986Y346662D01*
X750693Y345567D01*
Y345500D01*
X754500D01*
Y349307D01*
D02*
G37*
G36*
X759307Y344500D02*
X755500D01*
Y340693D01*
X755567D01*
X756663Y340986D01*
X757645Y341553D01*
X758447Y342355D01*
X759014Y343337D01*
X759307Y344433D01*
Y344500D01*
D02*
G37*
G36*
X754500D02*
X750693D01*
Y344433D01*
X750986Y343337D01*
X751553Y342355D01*
X752355Y341553D01*
X753337Y340986D01*
X754433Y340693D01*
X754500D01*
Y344500D01*
D02*
G37*
G36*
X758953Y315953D02*
X755500D01*
Y312500D01*
X758953D01*
Y315953D01*
D02*
G37*
G36*
X754500D02*
X751047D01*
Y312500D01*
X754500D01*
Y315953D01*
D02*
G37*
G36*
X758953Y311500D02*
X755500D01*
Y308047D01*
X758953D01*
Y311500D01*
D02*
G37*
G36*
X754500D02*
X751047D01*
Y308047D01*
X754500D01*
Y311500D01*
D02*
G37*
%LPD*%
D10*
X432500Y382453D02*
G03*
X432500Y417492I0J17520D01*
G01*
D02*
G03*
X432500Y382453I0J-17520D01*
G01*
D12*
X684835Y447063D02*
G03*
X684835Y447063I-10335J0D01*
G01*
X714835Y447437D02*
G03*
X714835Y447437I-10335J0D01*
G01*
X344732Y446500D02*
G03*
X344732Y446500I-16732J0D01*
G01*
X400335Y376937D02*
G03*
X400335Y376937I-10335J0D01*
G01*
X400835Y442563D02*
G03*
X400835Y442563I-10335J0D01*
G01*
X345732Y381000D02*
G03*
X345732Y381000I-16732J0D01*
G01*
X277835Y442437D02*
G03*
X277835Y442437I-10335J0D01*
G01*
Y385063D02*
G03*
X277835Y385063I-10335J0D01*
G01*
X241500Y324701D02*
G03*
X241500Y303299I0J-10701D01*
G01*
D02*
G03*
X241500Y324701I0J10701D01*
G01*
X353335Y289937D02*
G03*
X353335Y289937I-10335J0D01*
G01*
X453743D02*
G03*
X453743Y289937I-10335J0D01*
G01*
X452565Y377056D02*
G03*
X452565Y377056I-10335J0D01*
G01*
X504272Y257382D02*
G03*
X504272Y257382I-10335J0D01*
G01*
X771732Y238000D02*
G03*
X771732Y238000I-16732J0D01*
G01*
X413566Y289937D02*
G03*
X413566Y289937I-10335J0D01*
G01*
X404299Y219939D02*
G03*
X404299Y219939I-10335J0D01*
G01*
X503890Y439082D02*
G03*
X503890Y439082I-10335J0D01*
G01*
X515748Y353902D02*
X520748Y358902D01*
Y353902D02*
Y372406D01*
X479252D02*
X520748D01*
X479252Y353902D02*
Y372406D01*
Y353902D02*
X520748D01*
X628528Y230240D02*
Y267760D01*
X609512Y230240D02*
Y267760D01*
X628528D01*
X609512Y230240D02*
X628528D01*
X232445Y305732D02*
X233311Y306716D01*
X232445Y305732D02*
X233823Y304354D01*
X235201Y305732D01*
X265024Y275171D02*
X284040D01*
X265024Y237652D02*
X284040D01*
Y275171D01*
X265024Y237652D02*
Y275171D01*
X231776Y276402D02*
X241224D01*
Y251598D02*
Y276402D01*
X231776Y251598D02*
Y276402D01*
Y251598D02*
X241224D01*
X373098Y251776D02*
Y261224D01*
X397902D01*
X373098Y251776D02*
X397902D01*
Y261224D01*
X502402Y281276D02*
Y290724D01*
X477598Y281276D02*
X502402D01*
X477598Y290724D02*
X502402D01*
X477598Y281276D02*
Y290724D01*
X473634Y414642D02*
X490366D01*
X473634Y407358D02*
Y414642D01*
X490366Y407358D02*
Y414642D01*
X473634Y407358D02*
X490366D01*
X437069Y254075D02*
X442069Y259075D01*
X437069Y219075D02*
Y259075D01*
Y219075D02*
X464069D01*
Y259075D01*
X437069D02*
X464069D01*
X531488Y229435D02*
Y238884D01*
X556291D01*
X531488Y229435D02*
X556291D01*
Y238884D01*
X668508Y302807D02*
X673508Y307807D01*
X668508Y292020D02*
Y307807D01*
Y292020D02*
X709492D01*
Y307807D01*
X668508D02*
X709492D01*
X763307Y339508D02*
Y380492D01*
X747520Y339508D02*
X763307D01*
X747520D02*
Y380492D01*
X763307D01*
X758307D02*
X763307Y375492D01*
X560791Y309697D02*
X565791Y314697D01*
X560791Y296390D02*
Y314697D01*
Y296390D02*
X602209D01*
Y314697D01*
X560791D02*
X602209D01*
X313098Y251776D02*
Y261224D01*
X337902D01*
X313098Y251776D02*
X337902D01*
Y261224D01*
X571776Y416098D02*
X581224D01*
X571776D02*
Y440902D01*
X581224Y416098D02*
Y440902D01*
X571776D02*
X581224D01*
X571064Y459333D02*
Y468782D01*
X546260Y459333D02*
X571064D01*
X546260Y468782D02*
X571064D01*
X546260Y459333D02*
Y468782D01*
X537169Y420134D02*
Y436866D01*
Y420134D02*
X544452D01*
X537169Y436866D02*
X544452D01*
Y420134D02*
Y436866D01*
X608512Y427740D02*
X627528D01*
X608512Y465260D02*
X627528D01*
X608512Y427740D02*
Y465260D01*
X627528Y427740D02*
Y465260D01*
X704992Y386193D02*
X709992Y391193D01*
Y386193D02*
Y401980D01*
X669008D02*
X709992D01*
X669008Y386193D02*
Y401980D01*
Y386193D02*
X709992D01*
X619000Y247031D02*
Y250969D01*
X617031Y249000D02*
X620968D01*
X326031Y446500D02*
X329969D01*
X328000Y444531D02*
Y448468D01*
X329000Y379031D02*
Y382968D01*
X327031Y381000D02*
X330968D01*
X226862Y299362D02*
X256138D01*
X226862D02*
Y328638D01*
X256138D01*
Y299362D02*
Y328638D01*
X272583Y256412D02*
X276520D01*
X274551Y254443D02*
Y258380D01*
X236500Y262032D02*
Y265968D01*
X234531Y264000D02*
X238469D01*
X383531Y256500D02*
X387469D01*
X385500Y254532D02*
Y258469D01*
X488031Y286000D02*
X491968D01*
X490000Y284032D02*
Y287968D01*
X482000Y409031D02*
Y412968D01*
X480031Y411000D02*
X483968D01*
X541921Y234159D02*
X545857D01*
X543889Y232191D02*
Y236128D01*
X753031Y238000D02*
X756968D01*
X755000Y236032D02*
Y239968D01*
X323532Y256500D02*
X327468D01*
X325500Y254532D02*
Y258469D01*
X576500Y426532D02*
Y430469D01*
X574532Y428500D02*
X578469D01*
X556694Y464058D02*
X560631D01*
X558662Y462089D02*
Y466026D01*
X538842Y428500D02*
X542779D01*
X540811Y426532D02*
Y430469D01*
X616032Y446500D02*
X619969D01*
X618000Y444531D02*
Y448468D01*
X453957Y413555D02*
Y456468D01*
X411043D02*
X453957D01*
X411043Y413555D02*
Y456468D01*
Y413555D02*
X453957D01*
D16*
X223000Y422000D02*
Y427000D01*
X220500Y419500D02*
X223000Y422000D01*
X215500Y419500D02*
X220500D01*
X213000Y422000D02*
X215500Y419500D01*
X220500D02*
X223000Y417000D01*
Y412000D02*
Y417000D01*
X220500Y409500D02*
X223000Y412000D01*
X215500Y409500D02*
X220500D01*
X213000Y412000D02*
X215500Y409500D01*
X213000Y412000D02*
Y417000D01*
X215500Y419500D01*
Y429500D02*
X220500D01*
X223000Y427000D01*
X213000D02*
X215500Y429500D01*
X213000Y422000D02*
Y427000D01*
X220500Y409500D02*
X223000Y407000D01*
Y402000D02*
Y407000D01*
X220500Y399500D02*
X223000Y402000D01*
X215500Y399500D02*
X220500D01*
X213000Y402000D02*
X215500Y399500D01*
X213000Y402000D02*
Y407000D01*
X215500Y409500D01*
D17*
X686803Y447063D02*
G03*
X686803Y447063I-12303J0D01*
G01*
X716803Y447437D02*
G03*
X716803Y447437I-12303J0D01*
G01*
X402303Y376937D02*
G03*
X402303Y376937I-12303J0D01*
G01*
X402803Y442563D02*
G03*
X402803Y442563I-12303J0D01*
G01*
X279803Y442437D02*
G03*
X279803Y442437I-12303J0D01*
G01*
Y385063D02*
G03*
X279803Y385063I-12303J0D01*
G01*
X355303Y289937D02*
G03*
X355303Y289937I-12303J0D01*
G01*
X455711D02*
G03*
X455711Y289937I-12303J0D01*
G01*
X454533Y377056D02*
G03*
X454533Y377056I-12303J0D01*
G01*
X506240Y257382D02*
G03*
X506240Y257382I-12303J0D01*
G01*
X415535Y289937D02*
G03*
X415535Y289937I-12303J0D01*
G01*
X406268Y219939D02*
G03*
X406268Y219939I-12303J0D01*
G01*
X505858Y439082D02*
G03*
X505858Y439082I-12303J0D01*
G01*
X521732Y352917D02*
Y373390D01*
X478268D02*
X521732D01*
X478268Y352917D02*
Y373390D01*
Y352917D02*
X521732D01*
X628921Y229847D02*
Y268154D01*
X609118Y229847D02*
X628921D01*
X609118D02*
Y268154D01*
X628921D01*
X310874Y463626D02*
X345126D01*
X310874Y429374D02*
Y463626D01*
Y429374D02*
X345126D01*
Y463626D01*
X346126Y363874D02*
Y398126D01*
X311874Y363874D02*
X346126D01*
X311874D02*
Y398126D01*
X346126D01*
X264630Y237258D02*
X284433D01*
Y275565D01*
X264630D02*
X284433D01*
X264630Y237258D02*
Y275565D01*
X231382Y243232D02*
X241618D01*
Y284768D01*
X231382Y243232D02*
Y284768D01*
X241618D01*
X406268Y251382D02*
Y261618D01*
X364732D02*
X406268D01*
X364732Y251382D02*
X406268D01*
X364732D02*
Y261618D01*
X469232Y280882D02*
Y291118D01*
Y280882D02*
X510768D01*
X469232Y291118D02*
X510768D01*
Y280882D02*
Y291118D01*
X461232Y406965D02*
X502768D01*
X461232D02*
Y415035D01*
X502768Y406965D02*
Y415035D01*
X461232D02*
X502768D01*
X431105Y218091D02*
Y260059D01*
Y218091D02*
X470034D01*
Y260059D01*
X431105D02*
X470034D01*
X564657Y229041D02*
Y239277D01*
X523121D02*
X564657D01*
X523121Y229041D02*
X564657D01*
X523121D02*
Y239277D01*
X667524Y291035D02*
Y308791D01*
Y291035D02*
X710476D01*
Y308791D01*
X667524D02*
X710476D01*
X764291Y338524D02*
Y381476D01*
X746535Y338524D02*
X764291D01*
X746535D02*
Y381476D01*
X764291D01*
X737874Y255126D02*
X772126D01*
Y220874D02*
Y255126D01*
X737874Y220874D02*
X772126D01*
X737874D02*
Y255126D01*
X559807Y295406D02*
Y315681D01*
Y295406D02*
X603193D01*
Y315681D01*
X559807D02*
X603193D01*
X346268Y251382D02*
Y261618D01*
X304732D02*
X346268D01*
X304732Y251382D02*
X346268D01*
X304732D02*
Y261618D01*
X571382Y449268D02*
X581618D01*
X571382Y407732D02*
Y449268D01*
X581618Y407732D02*
Y449268D01*
X571382Y407732D02*
X581618D01*
X537894Y458940D02*
Y469176D01*
Y458940D02*
X579430D01*
X537894Y469176D02*
X579430D01*
Y458940D02*
Y469176D01*
X544846Y407732D02*
Y449268D01*
X536775Y407732D02*
X544846D01*
X536775Y449268D02*
X544846D01*
X536775Y407732D02*
Y449268D01*
X608118Y465654D02*
X627921D01*
X608118Y427347D02*
Y465654D01*
Y427347D02*
X627921D01*
Y465654D01*
X710976Y385209D02*
Y402965D01*
X668024D02*
X710976D01*
X668024Y385209D02*
Y402965D01*
Y385209D02*
X710976D01*
D46*
X684250Y250750D02*
Y299250D01*
X601000Y249000D02*
X619000D01*
X591500Y258500D02*
X601000Y249000D01*
X591500Y258500D02*
Y302000D01*
X439868Y249000D02*
X601000D01*
X523716Y302000D02*
X571500D01*
X507717Y286000D02*
X523716Y302000D01*
X619208Y258792D02*
X657792D01*
X619000Y259000D02*
X619208Y258792D01*
X674000Y275000D02*
Y299500D01*
X657792Y258792D02*
X674000Y275000D01*
X684250Y250750D02*
X684500Y250500D01*
X684000Y299500D02*
X684250Y299250D01*
X694250Y250750D02*
Y299250D01*
X694000Y299500D02*
X694250Y299250D01*
Y250750D02*
X694500Y250500D01*
Y394500D02*
Y416500D01*
X684500Y394500D02*
Y416500D01*
X755000Y355000D02*
X780500D01*
X755000Y365000D02*
X780500D01*
X434943Y244075D02*
X439868Y249000D01*
X384500Y446500D02*
X390500D01*
X394000Y223911D02*
X394064Y223975D01*
X393965Y223876D02*
X394000Y223911D01*
X434844Y223975D02*
X434943Y224075D01*
X236500Y246284D02*
X236628Y246412D01*
X274551D01*
X495077Y234102D02*
X526115D01*
X526172Y234159D01*
X495053Y234078D02*
X495077Y234102D01*
X466198Y234078D02*
X495053D01*
X466195Y234075D02*
X466198Y234078D01*
X561500Y234265D02*
X561606Y234159D01*
X443408Y286000D02*
X472284D01*
X343108Y256608D02*
Y285892D01*
X343000Y286000D02*
X343108Y285892D01*
Y256608D02*
X343216Y256500D01*
X403224Y256507D02*
Y285993D01*
X403217Y256500D02*
X403224Y256507D01*
Y285993D02*
X403232Y286000D01*
X430925Y234075D02*
X434943D01*
X408500Y256500D02*
X430925Y234075D01*
X403217Y256500D02*
X408500D01*
X343216D02*
X367783D01*
X274596Y256456D02*
X307739D01*
X307784Y256500D01*
X274551Y256412D02*
X274596Y256456D01*
X565717Y446216D02*
X576500D01*
X475480Y425020D02*
X510000Y390500D01*
X565717Y446216D01*
X510000Y366500D02*
Y390500D01*
X432500Y425020D02*
X475480D01*
X618000Y436500D02*
Y446500D01*
X576642Y446358D02*
X617858D01*
X576500Y446216D02*
X576642Y446358D01*
X617858D02*
X618000Y446500D01*
X576439Y446277D02*
X576500Y446216D01*
X576379Y464058D02*
X576439Y463997D01*
Y446277D02*
Y463997D01*
X540878Y446284D02*
Y463990D01*
X540945Y464058D01*
X540811Y446216D02*
X540878Y446284D01*
X493555Y435145D02*
X529739D01*
X540811Y446216D01*
X493422Y435012D02*
X493555Y435145D01*
X442480Y435012D02*
X493422D01*
X499858Y366642D02*
X500000Y366500D01*
X499825Y410892D02*
X499858Y410858D01*
X499717Y411000D02*
X499825Y410892D01*
X540702D02*
X540811Y410783D01*
X442230Y380993D02*
Y400230D01*
X453000Y411000D01*
X464284D01*
D47*
X376500Y281000D02*
X383500Y274000D01*
Y234341D02*
X393965Y223876D01*
X383500Y234341D02*
Y274000D01*
X370500Y397500D02*
Y432500D01*
X384500Y446500D01*
X674500Y394500D02*
Y443126D01*
D48*
X338843Y365843D02*
Y381000D01*
X292000Y319000D02*
X338843Y365843D01*
X241500Y319000D02*
X292000D01*
X236500Y281716D02*
Y314000D01*
D49*
X704500Y394500D02*
Y443500D01*
X394064Y223975D02*
X434844D01*
D50*
X674500Y443126D02*
D03*
X704500Y443500D02*
D03*
X390000Y380874D02*
D03*
X390500Y438626D02*
D03*
X267500Y438500D02*
D03*
Y381126D02*
D03*
X343000Y293874D02*
D03*
X443408D02*
D03*
X442230Y380993D02*
D03*
X403232Y293874D02*
D03*
X393965Y216002D02*
D03*
X493555Y435145D02*
D03*
D51*
X674500Y451000D02*
D03*
X704500Y451374D02*
D03*
X493555Y443019D02*
D03*
X390000Y373000D02*
D03*
X390500Y446500D02*
D03*
X267500Y446374D02*
D03*
Y389000D02*
D03*
X343000Y286000D02*
D03*
X443408D02*
D03*
X442230Y373119D02*
D03*
X497874Y257382D02*
D03*
X403232Y286000D02*
D03*
X393965Y223876D02*
D03*
D52*
X490000Y366500D02*
D03*
X500000D02*
D03*
D53*
X510000D02*
D03*
D54*
X619000Y259000D02*
D03*
X274551Y246412D02*
D03*
X618000Y456500D02*
D03*
D55*
X619000Y249000D02*
D03*
Y239000D02*
D03*
X274551Y266412D02*
D03*
Y256412D02*
D03*
X618000Y436500D02*
D03*
Y446500D02*
D03*
D56*
X755000Y302000D02*
D03*
X694500Y416500D02*
D03*
Y250500D02*
D03*
X684500D02*
D03*
X780500Y365000D02*
D03*
D57*
X755000Y312000D02*
D03*
X780500Y355000D02*
D03*
D58*
X318158Y446500D02*
D03*
X319158Y381000D02*
D03*
D59*
X337842Y446500D02*
D03*
X338843Y381000D02*
D03*
X755000Y247843D02*
D03*
Y228157D02*
D03*
D60*
X218000Y424500D02*
D03*
Y414500D02*
D03*
Y404500D02*
D03*
D61*
X236500Y314000D02*
D03*
X241500Y319000D02*
D03*
X246500Y314000D02*
D03*
D62*
X241500Y309000D02*
D03*
D63*
X236500Y281716D02*
D03*
X367783Y256500D02*
D03*
X403217D02*
D03*
X507717Y286000D02*
D03*
X499717Y411000D02*
D03*
X464284D02*
D03*
X526172Y234159D02*
D03*
X307784Y256500D02*
D03*
X343216D02*
D03*
X576500Y410783D02*
D03*
Y446216D02*
D03*
X576379Y464058D02*
D03*
X540945D02*
D03*
X540811Y446216D02*
D03*
Y410783D02*
D03*
D64*
X236500Y246284D02*
D03*
D65*
X472284Y286000D02*
D03*
X561606Y234159D02*
D03*
D66*
X490000Y257382D02*
D03*
D67*
X466195Y254075D02*
D03*
Y244075D02*
D03*
Y234075D02*
D03*
Y224075D02*
D03*
X434943D02*
D03*
Y234075D02*
D03*
Y244075D02*
D03*
D68*
Y254075D02*
D03*
D69*
X704000Y299500D02*
D03*
X694000D02*
D03*
X684000D02*
D03*
X755000Y365000D02*
D03*
Y355000D02*
D03*
Y345000D02*
D03*
X674500Y394500D02*
D03*
X684500D02*
D03*
X694500D02*
D03*
D70*
X674000Y299500D02*
D03*
X704500Y394500D02*
D03*
D71*
X755000Y375000D02*
D03*
D72*
X684500Y416500D02*
D03*
D73*
X591500Y302000D02*
D03*
X581500D02*
D03*
D74*
X571500D02*
D03*
D75*
X432500Y425020D02*
D03*
X442480Y435012D02*
D03*
X432500Y445000D02*
D03*
D76*
X539500Y318500D02*
D03*
X705500Y326000D02*
D03*
X510000Y390500D02*
D03*
X520000Y435500D02*
D03*
X253500Y255500D02*
D03*
X307500Y334500D02*
D03*
X313000Y282000D02*
D03*
X648000Y411000D02*
D03*
X625000Y411500D02*
D03*
X707000Y356000D02*
D03*
X661000Y227000D02*
D03*
X708500D02*
D03*
X755000Y276000D02*
D03*
X722000Y437500D02*
D03*
X740000Y421500D02*
D03*
Y437500D02*
D03*
X758000D02*
D03*
Y421500D02*
D03*
X781000Y328500D02*
D03*
X716000Y273500D02*
D03*
X657500Y259000D02*
D03*
X758000Y404000D02*
D03*
X361000Y363000D02*
D03*
X380000D02*
D03*
X370500Y397500D02*
D03*
X376500Y281000D02*
D03*
D77*
X774000Y464500D02*
D03*
X776000Y217000D02*
D03*
X222000Y216000D02*
D03*
X218000Y466500D02*
D03*
D78*
X361000Y363000D02*
X380000D01*
M02*
