G04*
G04 #@! TF.GenerationSoftware,Altium Limited,Altium Designer,21.2.2 (38)*
G04*
G04 Layer_Color=32768*
%FSLAX25Y25*%
%MOIN*%
G70*
G04*
G04 #@! TF.SameCoordinates,821FD0D4-0334-4DB9-88A1-7179C856D29A*
G04*
G04*
G04 #@! TF.FilePolarity,Positive*
G04*
G01*
G75*
%ADD10C,0.00787*%
%ADD12C,0.00394*%
%ADD16C,0.00600*%
%ADD17C,0.00197*%
G36*
X217000Y405500D02*
X219000D01*
Y403500D01*
X217000D01*
Y405500D01*
D02*
G37*
G36*
Y415500D02*
X219000D01*
Y413500D01*
X217000D01*
Y415500D01*
D02*
G37*
G36*
Y425500D02*
X219000D01*
Y423500D01*
X217000D01*
Y425500D01*
D02*
G37*
D10*
X432500Y382453D02*
G03*
X432500Y417492I0J17520D01*
G01*
D02*
G03*
X432500Y382453I0J-17520D01*
G01*
D12*
X684835Y447063D02*
G03*
X684835Y447063I-10335J0D01*
G01*
X714835Y447437D02*
G03*
X714835Y447437I-10335J0D01*
G01*
X344732Y446500D02*
G03*
X344732Y446500I-16732J0D01*
G01*
X400335Y376937D02*
G03*
X400335Y376937I-10335J0D01*
G01*
X400835Y442563D02*
G03*
X400835Y442563I-10335J0D01*
G01*
X345732Y381000D02*
G03*
X345732Y381000I-16732J0D01*
G01*
X277835Y442437D02*
G03*
X277835Y442437I-10335J0D01*
G01*
Y385063D02*
G03*
X277835Y385063I-10335J0D01*
G01*
X241500Y324701D02*
G03*
X241500Y303299I0J-10701D01*
G01*
D02*
G03*
X241500Y324701I0J10701D01*
G01*
X353335Y289937D02*
G03*
X353335Y289937I-10335J0D01*
G01*
X453743D02*
G03*
X453743Y289937I-10335J0D01*
G01*
X452565Y377056D02*
G03*
X452565Y377056I-10335J0D01*
G01*
X504272Y257382D02*
G03*
X504272Y257382I-10335J0D01*
G01*
X771732Y238000D02*
G03*
X771732Y238000I-16732J0D01*
G01*
X413566Y289937D02*
G03*
X413566Y289937I-10335J0D01*
G01*
X404299Y219939D02*
G03*
X404299Y219939I-10335J0D01*
G01*
X503890Y439082D02*
G03*
X503890Y439082I-10335J0D01*
G01*
X515748Y353902D02*
X520748Y358902D01*
Y353902D02*
Y372406D01*
X479252D02*
X520748D01*
X479252Y353902D02*
Y372406D01*
Y353902D02*
X520748D01*
X628528Y230240D02*
Y267760D01*
X609512Y230240D02*
Y267760D01*
X628528D01*
X609512Y230240D02*
X628528D01*
X232445Y305732D02*
X233311Y306716D01*
X232445Y305732D02*
X233823Y304354D01*
X235201Y305732D01*
X265024Y275171D02*
X284040D01*
X265024Y237652D02*
X284040D01*
Y275171D01*
X265024Y237652D02*
Y275171D01*
X231776Y276402D02*
X241224D01*
Y251598D02*
Y276402D01*
X231776Y251598D02*
Y276402D01*
Y251598D02*
X241224D01*
X373098Y251776D02*
Y261224D01*
X397902D01*
X373098Y251776D02*
X397902D01*
Y261224D01*
X502402Y281276D02*
Y290724D01*
X477598Y281276D02*
X502402D01*
X477598Y290724D02*
X502402D01*
X477598Y281276D02*
Y290724D01*
X473634Y414642D02*
X490366D01*
X473634Y407358D02*
Y414642D01*
X490366Y407358D02*
Y414642D01*
X473634Y407358D02*
X490366D01*
X437069Y254075D02*
X442069Y259075D01*
X437069Y219075D02*
Y259075D01*
Y219075D02*
X464069D01*
Y259075D01*
X437069D02*
X464069D01*
X531488Y229435D02*
Y238884D01*
X556291D01*
X531488Y229435D02*
X556291D01*
Y238884D01*
X668508Y302807D02*
X673508Y307807D01*
X668508Y292020D02*
Y307807D01*
Y292020D02*
X709492D01*
Y307807D01*
X668508D02*
X709492D01*
X763307Y339508D02*
Y380492D01*
X747520Y339508D02*
X763307D01*
X747520D02*
Y380492D01*
X763307D01*
X758307D02*
X763307Y375492D01*
X560791Y309697D02*
X565791Y314697D01*
X560791Y296390D02*
Y314697D01*
Y296390D02*
X602209D01*
Y314697D01*
X560791D02*
X602209D01*
X313098Y251776D02*
Y261224D01*
X337902D01*
X313098Y251776D02*
X337902D01*
Y261224D01*
X571776Y416098D02*
X581224D01*
X571776D02*
Y440902D01*
X581224Y416098D02*
Y440902D01*
X571776D02*
X581224D01*
X571064Y459333D02*
Y468782D01*
X546260Y459333D02*
X571064D01*
X546260Y468782D02*
X571064D01*
X546260Y459333D02*
Y468782D01*
X537169Y420134D02*
Y436866D01*
Y420134D02*
X544452D01*
X537169Y436866D02*
X544452D01*
Y420134D02*
Y436866D01*
X608512Y427740D02*
X627528D01*
X608512Y465260D02*
X627528D01*
X608512Y427740D02*
Y465260D01*
X627528Y427740D02*
Y465260D01*
X704992Y386193D02*
X709992Y391193D01*
Y386193D02*
Y401980D01*
X669008D02*
X709992D01*
X669008Y386193D02*
Y401980D01*
Y386193D02*
X709992D01*
X619000Y247031D02*
Y250969D01*
X617031Y249000D02*
X620968D01*
X326031Y446500D02*
X329969D01*
X328000Y444531D02*
Y448468D01*
X329000Y379031D02*
Y382968D01*
X327031Y381000D02*
X330968D01*
X226862Y299362D02*
X256138D01*
X226862D02*
Y328638D01*
X256138D01*
Y299362D02*
Y328638D01*
X272583Y256412D02*
X276520D01*
X274551Y254443D02*
Y258380D01*
X236500Y262032D02*
Y265968D01*
X234531Y264000D02*
X238469D01*
X383531Y256500D02*
X387469D01*
X385500Y254532D02*
Y258469D01*
X488031Y286000D02*
X491968D01*
X490000Y284032D02*
Y287968D01*
X482000Y409031D02*
Y412968D01*
X480031Y411000D02*
X483968D01*
X541921Y234159D02*
X545857D01*
X543889Y232191D02*
Y236128D01*
X753031Y238000D02*
X756968D01*
X755000Y236032D02*
Y239968D01*
X323532Y256500D02*
X327468D01*
X325500Y254532D02*
Y258469D01*
X576500Y426532D02*
Y430469D01*
X574532Y428500D02*
X578469D01*
X556694Y464058D02*
X560631D01*
X558662Y462089D02*
Y466026D01*
X538842Y428500D02*
X542779D01*
X540811Y426532D02*
Y430469D01*
X616032Y446500D02*
X619969D01*
X618000Y444531D02*
Y448468D01*
X453957Y413555D02*
Y456468D01*
X411043D02*
X453957D01*
X411043Y413555D02*
Y456468D01*
Y413555D02*
X453957D01*
D16*
X223000Y422000D02*
Y427000D01*
X220500Y419500D02*
X223000Y422000D01*
X215500Y419500D02*
X220500D01*
X213000Y422000D02*
X215500Y419500D01*
X220500D02*
X223000Y417000D01*
Y412000D02*
Y417000D01*
X220500Y409500D02*
X223000Y412000D01*
X215500Y409500D02*
X220500D01*
X213000Y412000D02*
X215500Y409500D01*
X213000Y412000D02*
Y417000D01*
X215500Y419500D01*
Y429500D02*
X220500D01*
X223000Y427000D01*
X213000D02*
X215500Y429500D01*
X213000Y422000D02*
Y427000D01*
X220500Y409500D02*
X223000Y407000D01*
Y402000D02*
Y407000D01*
X220500Y399500D02*
X223000Y402000D01*
X215500Y399500D02*
X220500D01*
X213000Y402000D02*
X215500Y399500D01*
X213000Y402000D02*
Y407000D01*
X215500Y409500D01*
X223000Y422000D02*
Y427000D01*
X220500Y419500D02*
X223000Y422000D01*
X215500Y419500D02*
X220500D01*
X213000Y422000D02*
X215500Y419500D01*
X220500D02*
X223000Y417000D01*
Y412000D02*
Y417000D01*
X220500Y409500D02*
X223000Y412000D01*
X215500Y409500D02*
X220500D01*
X213000Y412000D02*
X215500Y409500D01*
X213000Y412000D02*
Y417000D01*
X215500Y419500D01*
Y429500D02*
X220500D01*
X223000Y427000D01*
X213000D02*
X215500Y429500D01*
X213000Y422000D02*
Y427000D01*
X220500Y409500D02*
X223000Y407000D01*
Y402000D02*
Y407000D01*
X220500Y399500D02*
X223000Y402000D01*
X215500Y399500D02*
X220500D01*
X213000Y402000D02*
X215500Y399500D01*
X213000Y402000D02*
Y407000D01*
X215500Y409500D01*
D17*
X686803Y447063D02*
G03*
X686803Y447063I-12303J0D01*
G01*
X716803Y447437D02*
G03*
X716803Y447437I-12303J0D01*
G01*
X402303Y376937D02*
G03*
X402303Y376937I-12303J0D01*
G01*
X402803Y442563D02*
G03*
X402803Y442563I-12303J0D01*
G01*
X279803Y442437D02*
G03*
X279803Y442437I-12303J0D01*
G01*
Y385063D02*
G03*
X279803Y385063I-12303J0D01*
G01*
X355303Y289937D02*
G03*
X355303Y289937I-12303J0D01*
G01*
X455711D02*
G03*
X455711Y289937I-12303J0D01*
G01*
X454533Y377056D02*
G03*
X454533Y377056I-12303J0D01*
G01*
X506240Y257382D02*
G03*
X506240Y257382I-12303J0D01*
G01*
X415535Y289937D02*
G03*
X415535Y289937I-12303J0D01*
G01*
X406268Y219939D02*
G03*
X406268Y219939I-12303J0D01*
G01*
X505858Y439082D02*
G03*
X505858Y439082I-12303J0D01*
G01*
X521732Y352917D02*
Y373390D01*
X478268D02*
X521732D01*
X478268Y352917D02*
Y373390D01*
Y352917D02*
X521732D01*
X628921Y229847D02*
Y268154D01*
X609118Y229847D02*
X628921D01*
X609118D02*
Y268154D01*
X628921D01*
X310874Y463626D02*
X345126D01*
X310874Y429374D02*
Y463626D01*
Y429374D02*
X345126D01*
Y463626D01*
X346126Y363874D02*
Y398126D01*
X311874Y363874D02*
X346126D01*
X311874D02*
Y398126D01*
X346126D01*
X264630Y237258D02*
X284433D01*
Y275565D01*
X264630D02*
X284433D01*
X264630Y237258D02*
Y275565D01*
X231382Y243232D02*
X241618D01*
Y284768D01*
X231382Y243232D02*
Y284768D01*
X241618D01*
X406268Y251382D02*
Y261618D01*
X364732D02*
X406268D01*
X364732Y251382D02*
X406268D01*
X364732D02*
Y261618D01*
X469232Y280882D02*
Y291118D01*
Y280882D02*
X510768D01*
X469232Y291118D02*
X510768D01*
Y280882D02*
Y291118D01*
X461232Y406965D02*
X502768D01*
X461232D02*
Y415035D01*
X502768Y406965D02*
Y415035D01*
X461232D02*
X502768D01*
X431105Y218091D02*
Y260059D01*
Y218091D02*
X470034D01*
Y260059D01*
X431105D02*
X470034D01*
X564657Y229041D02*
Y239277D01*
X523121D02*
X564657D01*
X523121Y229041D02*
X564657D01*
X523121D02*
Y239277D01*
X667524Y291035D02*
Y308791D01*
Y291035D02*
X710476D01*
Y308791D01*
X667524D02*
X710476D01*
X764291Y338524D02*
Y381476D01*
X746535Y338524D02*
X764291D01*
X746535D02*
Y381476D01*
X764291D01*
X737874Y255126D02*
X772126D01*
Y220874D02*
Y255126D01*
X737874Y220874D02*
X772126D01*
X737874D02*
Y255126D01*
X559807Y295406D02*
Y315681D01*
Y295406D02*
X603193D01*
Y315681D01*
X559807D02*
X603193D01*
X346268Y251382D02*
Y261618D01*
X304732D02*
X346268D01*
X304732Y251382D02*
X346268D01*
X304732D02*
Y261618D01*
X571382Y449268D02*
X581618D01*
X571382Y407732D02*
Y449268D01*
X581618Y407732D02*
Y449268D01*
X571382Y407732D02*
X581618D01*
X537894Y458940D02*
Y469176D01*
Y458940D02*
X579430D01*
X537894Y469176D02*
X579430D01*
Y458940D02*
Y469176D01*
X544846Y407732D02*
Y449268D01*
X536775Y407732D02*
X544846D01*
X536775Y449268D02*
X544846D01*
X536775Y407732D02*
Y449268D01*
X608118Y465654D02*
X627921D01*
X608118Y427347D02*
Y465654D01*
Y427347D02*
X627921D01*
Y465654D01*
X710976Y385209D02*
Y402965D01*
X668024D02*
X710976D01*
X668024Y385209D02*
Y402965D01*
Y385209D02*
X710976D01*
M02*
