%TF.GenerationSoftware,Altium Limited,Altium Designer,21.2.2 (38)*%
G04 Layer_Physical_Order=1*
G04 Layer_Color=255*
%FSLAX26Y26*%
%MOIN*%
%TF.SameCoordinates,77551777-079B-400F-9D4E-00EB0A9A3649*%
%TF.FilePolarity,Positive*%
%TF.FileFunction,Copper,L1,Top,Signal*%
%TF.Part,Single*%
G01*
G75*
%TA.AperFunction,NonConductor*%
%ADD10C,0.010000*%
%TA.AperFunction,Conductor*%
%ADD11C,0.012000*%
%ADD12C,0.025000*%
%ADD13C,0.020000*%
%ADD14C,0.022000*%
%TA.AperFunction,ComponentPad*%
%ADD15R,0.050197X0.050197*%
%ADD16C,0.050197*%
%ADD17C,0.076181*%
%ADD18R,0.076181X0.076181*%
%ADD19R,0.051181X0.051181*%
%ADD20C,0.051181*%
%ADD21C,0.059055*%
%ADD22R,0.059055X0.059055*%
%ADD23R,0.055118X0.055118*%
%ADD24C,0.055118*%
%ADD25C,0.060000*%
%ADD26C,0.046535*%
%ADD27R,0.046535X0.046535*%
%ADD28C,0.053150*%
%ADD29R,0.053150X0.053150*%
%ADD30R,0.053150X0.053150*%
%ADD31R,0.050197X0.050197*%
%ADD32C,0.044606*%
%ADD33R,0.044606X0.044606*%
%ADD34C,0.066142*%
%ADD35R,0.066142X0.066142*%
%ADD36R,0.066142X0.066142*%
%ADD37R,0.059055X0.059055*%
%ADD38C,0.082087*%
%ADD39R,0.082087X0.082087*%
%ADD40C,0.048425*%
%TA.AperFunction,ViaPad*%
%ADD41C,0.050000*%
%ADD42C,0.118110*%
G36*
X6800000Y4060000D02*
Y3910000D01*
X6775000Y3885000D01*
X6635000D01*
X6470000Y4050000D01*
X5105000D01*
X5080000Y4050000D01*
X5050000Y4020000D01*
X5050000Y3683524D01*
X5045000Y3682865D01*
X5044813Y3683562D01*
X5038482Y3694528D01*
X5029528Y3703482D01*
X5018562Y3709813D01*
X5006331Y3713090D01*
X5005000D01*
Y3665000D01*
Y3616910D01*
X5006331D01*
X5018562Y3620187D01*
X5029528Y3626518D01*
X5038482Y3635472D01*
X5044813Y3646438D01*
X5045000Y3647135D01*
X5050000Y3646476D01*
Y3600000D01*
X5033051Y3583051D01*
X4976949D01*
X4950000Y3610000D01*
Y3646477D01*
X4955000Y3647135D01*
X4955187Y3646438D01*
X4961518Y3635472D01*
X4970472Y3626518D01*
X4981438Y3620187D01*
X4993669Y3616910D01*
X4995000D01*
Y3665000D01*
Y3713090D01*
X4993669D01*
X4981438Y3709813D01*
X4970472Y3703482D01*
X4961518Y3694528D01*
X4955187Y3683562D01*
X4955000Y3682865D01*
X4950000Y3683523D01*
Y4135000D01*
X4990000Y4175000D01*
X6685000D01*
X6800000Y4060000D01*
D02*
G37*
G36*
X7670000Y4525000D02*
Y3665000D01*
X7620000Y3615000D01*
X7582983D01*
X7580911Y3620000D01*
X7584465Y3623554D01*
X7590136Y3633375D01*
X7593071Y3644330D01*
Y3655670D01*
X7590136Y3666625D01*
X7584465Y3676446D01*
X7576446Y3684465D01*
X7566625Y3690136D01*
X7555670Y3693071D01*
X7544330D01*
X7533375Y3690136D01*
X7523554Y3684465D01*
X7515535Y3676446D01*
X7509864Y3666625D01*
X7506929Y3655670D01*
Y3644330D01*
X7509864Y3633375D01*
X7515535Y3623554D01*
X7519089Y3620000D01*
X7517017Y3615000D01*
X7480000D01*
X7410000Y3685000D01*
Y3985000D01*
X7050000Y4345000D01*
X6214549D01*
X6212049Y4349330D01*
X6213165Y4351263D01*
X6215591Y4360314D01*
Y4369686D01*
X6213165Y4378737D01*
X6208480Y4386853D01*
X6201853Y4393480D01*
X6193737Y4398165D01*
X6184686Y4400591D01*
X6175314D01*
X6166263Y4398165D01*
X6158147Y4393480D01*
X6151520Y4386853D01*
X6146835Y4378737D01*
X6144409Y4369686D01*
Y4360314D01*
X6146835Y4351263D01*
X6147951Y4349330D01*
X6145451Y4345000D01*
X5237662Y4345000D01*
X5234618Y4348967D01*
X5235000Y4350392D01*
Y4359608D01*
X5232615Y4368510D01*
X5228007Y4376490D01*
X5221490Y4383007D01*
X5213510Y4387615D01*
X5204608Y4390000D01*
X5195392D01*
X5186490Y4387615D01*
X5178510Y4383007D01*
X5171993Y4376490D01*
X5167385Y4368510D01*
X5165000Y4359608D01*
Y4350392D01*
X5165382Y4348967D01*
X5162338Y4345000D01*
X4970648D01*
Y4386550D01*
X4900451D01*
Y4345000D01*
X4845000D01*
X4700000Y4200000D01*
Y3705000D01*
X4585000Y3590000D01*
X3727941D01*
Y3948443D01*
X3733007Y3953510D01*
X3737615Y3961490D01*
X3740000Y3970392D01*
Y3979608D01*
X3737615Y3988510D01*
X3733007Y3996490D01*
X3726490Y4003007D01*
X3718510Y4007615D01*
X3709608Y4010000D01*
X3700392D01*
X3691490Y4007615D01*
X3683510Y4003007D01*
X3676993Y3996490D01*
X3672385Y3988510D01*
X3670000Y3979608D01*
Y3970392D01*
X3672385Y3961490D01*
X3676993Y3953510D01*
X3682059Y3948443D01*
Y3590000D01*
X2495000D01*
X2080000Y4005000D01*
Y4310000D01*
X2460000Y4690000D01*
X7505000D01*
X7670000Y4525000D01*
D02*
G37*
G36*
X5835000Y2967339D02*
X5836632Y2967776D01*
X5849411Y2975154D01*
X5850381Y2976123D01*
X5855000Y2974210D01*
X5854999Y2440000D01*
X5950001Y2345000D01*
X7580000Y2345000D01*
X7620000Y2305000D01*
X7620000Y2240000D01*
X7580000Y2200000D01*
X5935000Y2200000D01*
X5775000Y2360000D01*
X5775000Y2974210D01*
X5779619Y2976123D01*
X5780589Y2975154D01*
X5793368Y2967776D01*
X5795000Y2967339D01*
Y3020000D01*
X5835000D01*
Y2967339D01*
D02*
G37*
G36*
X7620000Y3030000D02*
Y2460000D01*
X7590000Y2430000D01*
X7515000D01*
X7485000Y2460000D01*
Y3040000D01*
X7510000Y3065000D01*
X7585000D01*
X7620000Y3030000D01*
D02*
G37*
%LPC*%
G36*
X6255000Y4149895D02*
Y4120000D01*
X6284895D01*
X6282615Y4128510D01*
X6278007Y4136490D01*
X6271490Y4143007D01*
X6263510Y4147615D01*
X6255000Y4149895D01*
D02*
G37*
G36*
X6245000D02*
X6236490Y4147615D01*
X6228510Y4143007D01*
X6221993Y4136490D01*
X6217385Y4128510D01*
X6215105Y4120000D01*
X6245000D01*
Y4149895D01*
D02*
G37*
G36*
X5002166Y4146525D02*
Y4115000D01*
X5033691D01*
X5031248Y4124117D01*
X5026432Y4132458D01*
X5019623Y4139267D01*
X5011283Y4144082D01*
X5002166Y4146525D01*
D02*
G37*
G36*
X6485000Y4144895D02*
Y4115000D01*
X6514895D01*
X6512615Y4123510D01*
X6508007Y4131490D01*
X6501490Y4138007D01*
X6493510Y4142615D01*
X6485000Y4144895D01*
D02*
G37*
G36*
X6475000D02*
X6466490Y4142615D01*
X6458510Y4138007D01*
X6451993Y4131490D01*
X6447385Y4123510D01*
X6445105Y4115000D01*
X6475000D01*
Y4144895D01*
D02*
G37*
G36*
X4992166Y4146525D02*
X4983048Y4144082D01*
X4974708Y4139267D01*
X4967898Y4132458D01*
X4963083Y4124117D01*
X4960640Y4115000D01*
X4992166D01*
Y4146525D01*
D02*
G37*
G36*
X5770000Y4144360D02*
Y4112834D01*
X5801525D01*
X5799082Y4121952D01*
X5794267Y4130292D01*
X5787458Y4137102D01*
X5779117Y4141917D01*
X5770000Y4144360D01*
D02*
G37*
G36*
X5413108D02*
Y4112834D01*
X5444633D01*
X5442190Y4121952D01*
X5437375Y4130292D01*
X5430565Y4137102D01*
X5422225Y4141917D01*
X5413108Y4144360D01*
D02*
G37*
G36*
X5760000Y4144360D02*
X5750883Y4141917D01*
X5742542Y4137102D01*
X5735733Y4130292D01*
X5730918Y4121952D01*
X5728475Y4112834D01*
X5760000D01*
Y4144360D01*
D02*
G37*
G36*
X5403108D02*
X5393991Y4141917D01*
X5385650Y4137102D01*
X5378841Y4130292D01*
X5374026Y4121952D01*
X5371583Y4112834D01*
X5403108D01*
Y4144360D01*
D02*
G37*
G36*
X6284895Y4110000D02*
X6255000D01*
Y4080105D01*
X6263510Y4082385D01*
X6271490Y4086993D01*
X6278007Y4093510D01*
X6282615Y4101490D01*
X6284895Y4110000D01*
D02*
G37*
G36*
X6245000D02*
X6215105D01*
X6217385Y4101490D01*
X6221993Y4093510D01*
X6228510Y4086993D01*
X6236490Y4082385D01*
X6245000Y4080105D01*
Y4110000D01*
D02*
G37*
G36*
X6514895Y4105000D02*
X6485000D01*
Y4075105D01*
X6493510Y4077385D01*
X6501490Y4081993D01*
X6508007Y4088510D01*
X6512615Y4096490D01*
X6514895Y4105000D01*
D02*
G37*
G36*
X6475000D02*
X6445105D01*
X6447385Y4096490D01*
X6451993Y4088510D01*
X6458510Y4081993D01*
X6466490Y4077385D01*
X6475000Y4075105D01*
Y4105000D01*
D02*
G37*
G36*
X5033691D02*
X5002166D01*
Y4073475D01*
X5011283Y4075918D01*
X5019623Y4080733D01*
X5026432Y4087543D01*
X5031248Y4095883D01*
X5033691Y4105000D01*
D02*
G37*
G36*
X4992166D02*
X4960640D01*
X4963083Y4095883D01*
X4967898Y4087543D01*
X4974708Y4080733D01*
X4983048Y4075918D01*
X4992166Y4073475D01*
Y4105000D01*
D02*
G37*
G36*
X5801525Y4102834D02*
X5770000D01*
Y4071309D01*
X5779117Y4073752D01*
X5787458Y4078568D01*
X5794267Y4085377D01*
X5799082Y4093717D01*
X5801525Y4102834D01*
D02*
G37*
G36*
X5444633D02*
X5413108D01*
Y4071309D01*
X5422225Y4073752D01*
X5430565Y4078568D01*
X5437375Y4085377D01*
X5442190Y4093717D01*
X5444633Y4102834D01*
D02*
G37*
G36*
X5760000D02*
X5728475D01*
X5730918Y4093717D01*
X5735733Y4085377D01*
X5742542Y4078568D01*
X5750883Y4073752D01*
X5760000Y4071309D01*
Y4102834D01*
D02*
G37*
G36*
X5403108D02*
X5371583D01*
X5374026Y4093717D01*
X5378841Y4085377D01*
X5385650Y4078568D01*
X5393991Y4073752D01*
X5403108Y4071309D01*
Y4102834D01*
D02*
G37*
G36*
X6750670Y3988071D02*
X6750000D01*
Y3950000D01*
X6788071D01*
Y3950670D01*
X6785136Y3961625D01*
X6779465Y3971446D01*
X6771446Y3979465D01*
X6761625Y3985136D01*
X6750670Y3988071D01*
D02*
G37*
G36*
X6740000D02*
X6739330D01*
X6728375Y3985136D01*
X6718554Y3979465D01*
X6710535Y3971446D01*
X6704864Y3961625D01*
X6701929Y3950670D01*
Y3950000D01*
X6740000D01*
Y3988071D01*
D02*
G37*
G36*
X6788071Y3940000D02*
X6750000D01*
Y3901929D01*
X6750670D01*
X6761625Y3904864D01*
X6771446Y3910535D01*
X6779465Y3918554D01*
X6785136Y3928375D01*
X6788071Y3939330D01*
Y3940000D01*
D02*
G37*
G36*
X6740000D02*
X6701929D01*
Y3939330D01*
X6704864Y3928375D01*
X6710535Y3918554D01*
X6718554Y3910535D01*
X6728375Y3904864D01*
X6739330Y3901929D01*
X6740000D01*
Y3940000D01*
D02*
G37*
G36*
X5768601Y4677153D02*
X5758971D01*
X5749669Y4674661D01*
X5741329Y4669846D01*
X5734519Y4663036D01*
X5729704Y4654696D01*
X5727211Y4645394D01*
Y4635763D01*
X5729704Y4626461D01*
X5734519Y4618121D01*
X5741329Y4611311D01*
X5749669Y4606496D01*
X5758971Y4604004D01*
X5768601D01*
X5777904Y4606496D01*
X5786244Y4611311D01*
X5793053Y4618121D01*
X5797868Y4626461D01*
X5800361Y4635763D01*
Y4645394D01*
X5797868Y4654696D01*
X5793053Y4663036D01*
X5786244Y4669846D01*
X5777904Y4674661D01*
X5768601Y4677153D01*
D02*
G37*
G36*
X5414271D02*
X5404640D01*
X5395338Y4674661D01*
X5386998Y4669846D01*
X5380188Y4663036D01*
X5375373Y4654696D01*
X5372881Y4645394D01*
Y4635763D01*
X5375373Y4626461D01*
X5380188Y4618121D01*
X5386998Y4611311D01*
X5395338Y4606496D01*
X5404640Y4604004D01*
X5414271D01*
X5423573Y4606496D01*
X5431913Y4611311D01*
X5438722Y4618121D01*
X5443538Y4626461D01*
X5446030Y4635763D01*
Y4645394D01*
X5443538Y4654696D01*
X5438722Y4663036D01*
X5431913Y4669846D01*
X5423573Y4674661D01*
X5414271Y4677153D01*
D02*
G37*
G36*
X6215591Y4600591D02*
X6189000D01*
Y4574000D01*
X6215591D01*
Y4600591D01*
D02*
G37*
G36*
X6171000D02*
X6144409D01*
Y4574000D01*
X6171000D01*
Y4600591D01*
D02*
G37*
G36*
X6215591Y4556000D02*
X6189000D01*
Y4529409D01*
X6215591D01*
Y4556000D01*
D02*
G37*
G36*
X6171000D02*
X6144409D01*
Y4529409D01*
X6171000D01*
Y4556000D01*
D02*
G37*
G36*
X7054000Y4547665D02*
Y4522740D01*
X7078925D01*
X7077707Y4527288D01*
X7073086Y4535291D01*
X7066551Y4541826D01*
X7058547Y4546447D01*
X7054000Y4547665D01*
D02*
G37*
G36*
X7036000Y4547665D02*
X7031453Y4546447D01*
X7023449Y4541826D01*
X7016914Y4535291D01*
X7012293Y4527288D01*
X7011075Y4522740D01*
X7036000D01*
Y4547665D01*
D02*
G37*
G36*
X6754000Y4543925D02*
Y4519000D01*
X6778925D01*
X6777707Y4523547D01*
X6773086Y4531551D01*
X6766551Y4538086D01*
X6758547Y4542707D01*
X6754000Y4543925D01*
D02*
G37*
G36*
X6736000D02*
X6731453Y4542707D01*
X6723449Y4538086D01*
X6716914Y4531551D01*
X6712293Y4523547D01*
X6711075Y4519000D01*
X6736000D01*
Y4543925D01*
D02*
G37*
G36*
X7036000Y4504740D02*
X7011075D01*
X7012293Y4500193D01*
X7016914Y4492189D01*
X7023449Y4485654D01*
X7031453Y4481034D01*
X7036000Y4479815D01*
Y4504740D01*
D02*
G37*
G36*
X7078925D02*
X7054000D01*
Y4479815D01*
X7058547Y4481034D01*
X7066551Y4485654D01*
X7073086Y4492189D01*
X7077707Y4500193D01*
X7078925Y4504740D01*
D02*
G37*
G36*
X6778925Y4501000D02*
X6754000D01*
Y4476075D01*
X6758547Y4477293D01*
X6766551Y4481914D01*
X6773086Y4488449D01*
X6777707Y4496453D01*
X6778925Y4501000D01*
D02*
G37*
G36*
X6736000D02*
X6711075D01*
X6712293Y4496453D01*
X6716914Y4488449D01*
X6723449Y4481914D01*
X6731453Y4477293D01*
X6736000Y4476075D01*
Y4501000D01*
D02*
G37*
G36*
X4334000Y4483008D02*
Y4459000D01*
X4358008D01*
X4356881Y4463206D01*
X4352377Y4471007D01*
X4346007Y4477377D01*
X4338206Y4481881D01*
X4334000Y4483008D01*
D02*
G37*
G36*
X4316000D02*
X4311794Y4481881D01*
X4303993Y4477377D01*
X4297623Y4471007D01*
X4293119Y4463206D01*
X4291992Y4459000D01*
X4316000D01*
Y4483008D01*
D02*
G37*
G36*
X4944549Y4464117D02*
Y4439191D01*
X4969474D01*
X4968256Y4443739D01*
X4963635Y4451742D01*
X4957100Y4458277D01*
X4949097Y4462898D01*
X4944549Y4464117D01*
D02*
G37*
G36*
X4926549Y4464116D02*
X4922002Y4462898D01*
X4913998Y4458277D01*
X4907463Y4451742D01*
X4902843Y4443739D01*
X4901624Y4439191D01*
X4926549D01*
Y4464116D01*
D02*
G37*
G36*
X3909621Y4500098D02*
X3900379D01*
X3891452Y4497707D01*
X3883449Y4493086D01*
X3876914Y4486551D01*
X3872294Y4478547D01*
X3869902Y4469621D01*
Y4460379D01*
X3872294Y4451453D01*
X3876914Y4443449D01*
X3883449Y4436914D01*
X3891452Y4432293D01*
X3900379Y4429902D01*
X3909621D01*
X3918548Y4432293D01*
X3926551Y4436914D01*
X3933086Y4443449D01*
X3937706Y4451453D01*
X3940098Y4460379D01*
Y4469621D01*
X3937706Y4478547D01*
X3933086Y4486551D01*
X3926551Y4493086D01*
X3918548Y4497707D01*
X3909621Y4500098D01*
D02*
G37*
G36*
X6184686Y4500591D02*
X6175314D01*
X6166263Y4498165D01*
X6158147Y4493480D01*
X6151520Y4486853D01*
X6146835Y4478737D01*
X6144409Y4469686D01*
Y4460314D01*
X6146835Y4451263D01*
X6151520Y4443147D01*
X6158147Y4436520D01*
X6166263Y4431835D01*
X6175314Y4429409D01*
X6184686D01*
X6193737Y4431835D01*
X6201853Y4436520D01*
X6208480Y4443147D01*
X6213165Y4451263D01*
X6215591Y4460314D01*
Y4469686D01*
X6213165Y4478737D01*
X6208480Y4486853D01*
X6201853Y4493480D01*
X6193737Y4498165D01*
X6184686Y4500591D01*
D02*
G37*
G36*
X2679621Y4498839D02*
X2670379D01*
X2661452Y4496447D01*
X2653449Y4491826D01*
X2646914Y4485291D01*
X2642294Y4477288D01*
X2639902Y4468361D01*
Y4459119D01*
X2642294Y4450193D01*
X2646914Y4442189D01*
X2653449Y4435654D01*
X2661452Y4431034D01*
X2670379Y4428642D01*
X2679621D01*
X2688548Y4431034D01*
X2696551Y4435654D01*
X2703086Y4442189D01*
X2707706Y4450193D01*
X2710098Y4459119D01*
Y4468361D01*
X2707706Y4477288D01*
X2703086Y4485291D01*
X2696551Y4491826D01*
X2688548Y4496447D01*
X2679621Y4498839D01*
D02*
G37*
G36*
X3383370Y4502559D02*
X3373481D01*
X3363928Y4499999D01*
X3355363Y4495055D01*
X3348370Y4488062D01*
X3343426Y4479497D01*
X3340866Y4469945D01*
Y4460055D01*
X3343426Y4450503D01*
X3348370Y4441938D01*
X3355363Y4434945D01*
X3363928Y4430001D01*
X3373481Y4427441D01*
X3383370D01*
X3392922Y4430001D01*
X3401487Y4434945D01*
X3408480Y4441938D01*
X3413425Y4450503D01*
X3415984Y4460055D01*
Y4469945D01*
X3413425Y4479497D01*
X3408480Y4488062D01*
X3401487Y4495055D01*
X3392922Y4499999D01*
X3383370Y4502559D01*
D02*
G37*
G36*
X3219134D02*
X3144016D01*
Y4427441D01*
X3219134D01*
Y4502559D01*
D02*
G37*
G36*
X5769815Y4498740D02*
X5760185D01*
X5750883Y4496248D01*
X5742542Y4491432D01*
X5735733Y4484623D01*
X5730918Y4476283D01*
X5728425Y4466981D01*
Y4457350D01*
X5730918Y4448048D01*
X5735733Y4439708D01*
X5742542Y4432898D01*
X5750883Y4428083D01*
X5760185Y4425591D01*
X5769815D01*
X5779117Y4428083D01*
X5787458Y4432898D01*
X5794267Y4439708D01*
X5799082Y4448048D01*
X5801575Y4457350D01*
Y4466981D01*
X5799082Y4476283D01*
X5794267Y4484623D01*
X5787458Y4491432D01*
X5779117Y4496248D01*
X5769815Y4498740D01*
D02*
G37*
G36*
X5412923D02*
X5403293D01*
X5393991Y4496248D01*
X5385650Y4491432D01*
X5378841Y4484623D01*
X5374026Y4476283D01*
X5371533Y4466981D01*
Y4457350D01*
X5374026Y4448048D01*
X5378841Y4439708D01*
X5385650Y4432898D01*
X5393991Y4428083D01*
X5403293Y4425591D01*
X5412923D01*
X5422225Y4428083D01*
X5430565Y4432898D01*
X5437375Y4439708D01*
X5442190Y4448048D01*
X5444683Y4457350D01*
Y4466981D01*
X5442190Y4476283D01*
X5437375Y4484623D01*
X5430565Y4491432D01*
X5422225Y4496248D01*
X5412923Y4498740D01*
D02*
G37*
G36*
X4358008Y4441000D02*
X4334000D01*
Y4416992D01*
X4338206Y4418119D01*
X4346007Y4422623D01*
X4352377Y4428993D01*
X4356881Y4436794D01*
X4358008Y4441000D01*
D02*
G37*
G36*
X4316000D02*
X4291992D01*
X4293119Y4436794D01*
X4297623Y4428993D01*
X4303993Y4422623D01*
X4311794Y4418119D01*
X4316000Y4416992D01*
Y4441000D01*
D02*
G37*
G36*
X7080098Y4470098D02*
X7009902D01*
Y4399902D01*
X7080098D01*
Y4470098D01*
D02*
G37*
G36*
X4926549Y4421191D02*
X4901624D01*
X4902843Y4416644D01*
X4907463Y4408641D01*
X4913998Y4402106D01*
X4922002Y4397485D01*
X4926549Y4396266D01*
Y4421191D01*
D02*
G37*
G36*
X4969474D02*
X4944549D01*
Y4396266D01*
X4949097Y4397485D01*
X4957100Y4402106D01*
X4963635Y4408641D01*
X4968256Y4416644D01*
X4969474Y4421191D01*
D02*
G37*
G36*
X6780098Y4466358D02*
X6709902D01*
Y4396161D01*
X6780098D01*
Y4466358D01*
D02*
G37*
G36*
X3940098Y4421358D02*
X3912500D01*
Y4393760D01*
X3940098D01*
Y4421358D01*
D02*
G37*
G36*
X3897500D02*
X3869902D01*
Y4393760D01*
X3897500D01*
Y4421358D01*
D02*
G37*
G36*
X2710098Y4420098D02*
X2682500D01*
Y4392500D01*
X2710098D01*
Y4420098D01*
D02*
G37*
G36*
X2667500D02*
X2639902D01*
Y4392500D01*
X2667500D01*
Y4420098D01*
D02*
G37*
G36*
X7585000Y4409895D02*
Y4380000D01*
X7614895D01*
X7612615Y4388510D01*
X7608007Y4396490D01*
X7601490Y4403007D01*
X7593510Y4407615D01*
X7585000Y4409895D01*
D02*
G37*
G36*
X7575000D02*
X7566490Y4407615D01*
X7558510Y4403007D01*
X7551993Y4396490D01*
X7547385Y4388510D01*
X7545105Y4380000D01*
X7575000D01*
Y4409895D01*
D02*
G37*
G36*
X7405000D02*
Y4380000D01*
X7434895D01*
X7432615Y4388510D01*
X7428007Y4396490D01*
X7421490Y4403007D01*
X7413510Y4407615D01*
X7405000Y4409895D01*
D02*
G37*
G36*
X7395000D02*
X7386490Y4407615D01*
X7378510Y4403007D01*
X7371993Y4396490D01*
X7367385Y4388510D01*
X7365105Y4380000D01*
X7395000D01*
Y4409895D01*
D02*
G37*
G36*
X7225000D02*
Y4380000D01*
X7254895D01*
X7252615Y4388510D01*
X7248007Y4396490D01*
X7241490Y4403007D01*
X7233510Y4407615D01*
X7225000Y4409895D01*
D02*
G37*
G36*
X7215000D02*
X7206490Y4407615D01*
X7198510Y4403007D01*
X7191993Y4396490D01*
X7187385Y4388510D01*
X7185105Y4380000D01*
X7215000D01*
Y4409895D01*
D02*
G37*
G36*
X3940098Y4378760D02*
X3912500D01*
Y4351161D01*
X3940098D01*
Y4378760D01*
D02*
G37*
G36*
X3897500D02*
X3869902D01*
Y4351161D01*
X3897500D01*
Y4378760D01*
D02*
G37*
G36*
X2710098Y4377500D02*
X2682500D01*
Y4349902D01*
X2710098D01*
Y4377500D01*
D02*
G37*
G36*
X2667500D02*
X2639902D01*
Y4349902D01*
X2667500D01*
Y4377500D01*
D02*
G37*
G36*
X7614895Y4370000D02*
X7585000D01*
Y4340105D01*
X7593510Y4342385D01*
X7601490Y4346993D01*
X7608007Y4353510D01*
X7612615Y4361490D01*
X7614895Y4370000D01*
D02*
G37*
G36*
X7575000D02*
X7545105D01*
X7547385Y4361490D01*
X7551993Y4353510D01*
X7558510Y4346993D01*
X7566490Y4342385D01*
X7575000Y4340105D01*
Y4370000D01*
D02*
G37*
G36*
X7434895D02*
X7405000D01*
Y4340105D01*
X7413510Y4342385D01*
X7421490Y4346993D01*
X7428007Y4353510D01*
X7432615Y4361490D01*
X7434895Y4370000D01*
D02*
G37*
G36*
X7395000D02*
X7365105D01*
X7367385Y4361490D01*
X7371993Y4353510D01*
X7378510Y4346993D01*
X7386490Y4342385D01*
X7395000Y4340105D01*
Y4370000D01*
D02*
G37*
G36*
X7254895D02*
X7225000D01*
Y4340105D01*
X7233510Y4342385D01*
X7241490Y4346993D01*
X7248007Y4353510D01*
X7252615Y4361490D01*
X7254895Y4370000D01*
D02*
G37*
G36*
X7215000D02*
X7185105D01*
X7187385Y4361490D01*
X7191993Y4353510D01*
X7198510Y4346993D01*
X7206490Y4342385D01*
X7215000Y4340105D01*
Y4370000D01*
D02*
G37*
G36*
X4429307Y4384331D02*
X4420299D01*
X4411597Y4381999D01*
X4403796Y4377495D01*
X4397426Y4371125D01*
X4392922Y4363324D01*
X4390591Y4354622D01*
Y4345614D01*
X4392922Y4336913D01*
X4397426Y4329111D01*
X4403796Y4322741D01*
X4411597Y4318237D01*
X4420299Y4315906D01*
X4429307D01*
X4438009Y4318237D01*
X4445810Y4322741D01*
X4452180Y4329111D01*
X4456684Y4336913D01*
X4459016Y4345614D01*
Y4354622D01*
X4456684Y4363324D01*
X4452180Y4371125D01*
X4445810Y4377495D01*
X4438009Y4381999D01*
X4429307Y4384331D01*
D02*
G37*
G36*
X7585000Y4249895D02*
Y4220000D01*
X7614895D01*
X7612615Y4228510D01*
X7608007Y4236490D01*
X7601490Y4243007D01*
X7593510Y4247615D01*
X7585000Y4249895D01*
D02*
G37*
G36*
X7575000D02*
X7566490Y4247615D01*
X7558510Y4243007D01*
X7551993Y4236490D01*
X7547385Y4228510D01*
X7545105Y4220000D01*
X7575000D01*
Y4249895D01*
D02*
G37*
G36*
X7405000D02*
Y4220000D01*
X7434895D01*
X7432615Y4228510D01*
X7428007Y4236490D01*
X7421490Y4243007D01*
X7413510Y4247615D01*
X7405000Y4249895D01*
D02*
G37*
G36*
X7395000D02*
X7386490Y4247615D01*
X7378510Y4243007D01*
X7371993Y4236490D01*
X7367385Y4228510D01*
X7365105Y4220000D01*
X7395000D01*
Y4249895D01*
D02*
G37*
G36*
X4329504Y4284409D02*
X4320496D01*
X4311794Y4282078D01*
X4303993Y4277574D01*
X4297623Y4271204D01*
X4293119Y4263403D01*
X4290787Y4254701D01*
Y4245693D01*
X4293119Y4236991D01*
X4297623Y4229190D01*
X4303993Y4222820D01*
X4311794Y4218316D01*
X4320496Y4215984D01*
X4329504D01*
X4338206Y4218316D01*
X4346007Y4222820D01*
X4352377Y4229190D01*
X4356881Y4236991D01*
X4359213Y4245693D01*
Y4254701D01*
X4356881Y4263403D01*
X4352377Y4271204D01*
X4346007Y4277574D01*
X4338206Y4282078D01*
X4329504Y4284409D01*
D02*
G37*
G36*
X2185266Y4285000D02*
X2174734D01*
X2164561Y4282274D01*
X2155439Y4277008D01*
X2147992Y4269561D01*
X2142726Y4260439D01*
X2140000Y4250266D01*
Y4239734D01*
X2142726Y4229561D01*
X2147992Y4220439D01*
X2155439Y4212992D01*
X2164561Y4207726D01*
X2174734Y4205000D01*
X2185266D01*
X2195439Y4207726D01*
X2204561Y4212992D01*
X2212008Y4220439D01*
X2217274Y4229561D01*
X2220000Y4239734D01*
Y4250266D01*
X2217274Y4260439D01*
X2212008Y4269561D01*
X2204561Y4277008D01*
X2195439Y4282274D01*
X2185266Y4285000D01*
D02*
G37*
G36*
X7614895Y4210000D02*
X7585000D01*
Y4180105D01*
X7593510Y4182385D01*
X7601490Y4186993D01*
X7608007Y4193510D01*
X7612615Y4201490D01*
X7614895Y4210000D01*
D02*
G37*
G36*
X7575000D02*
X7545105D01*
X7547385Y4201490D01*
X7551993Y4193510D01*
X7558510Y4186993D01*
X7566490Y4182385D01*
X7575000Y4180105D01*
Y4210000D01*
D02*
G37*
G36*
X7434895D02*
X7405000D01*
Y4180105D01*
X7413510Y4182385D01*
X7421490Y4186993D01*
X7428007Y4193510D01*
X7432615Y4201490D01*
X7434895Y4210000D01*
D02*
G37*
G36*
X7395000D02*
X7365105D01*
X7367385Y4201490D01*
X7371993Y4193510D01*
X7378510Y4186993D01*
X7386490Y4182385D01*
X7395000Y4180105D01*
Y4210000D01*
D02*
G37*
G36*
X2192500Y4183062D02*
Y4157500D01*
X2218062D01*
X2217274Y4160439D01*
X2212008Y4169561D01*
X2204561Y4177008D01*
X2195439Y4182274D01*
X2192500Y4183062D01*
D02*
G37*
G36*
X2167500D02*
X2164561Y4182274D01*
X2155439Y4177008D01*
X2147992Y4169561D01*
X2142726Y4160439D01*
X2141938Y4157500D01*
X2167500D01*
Y4183062D01*
D02*
G37*
G36*
X2218062Y4132500D02*
X2192500D01*
Y4106938D01*
X2195439Y4107726D01*
X2204561Y4112992D01*
X2212008Y4120439D01*
X2217274Y4129561D01*
X2218062Y4132500D01*
D02*
G37*
G36*
X2167500D02*
X2141938D01*
X2142726Y4129561D01*
X2147992Y4120439D01*
X2155439Y4112992D01*
X2164561Y4107726D01*
X2167500Y4106938D01*
Y4132500D01*
D02*
G37*
G36*
X4647650Y4146575D02*
X4638019D01*
X4628717Y4144082D01*
X4620377Y4139267D01*
X4613568Y4132458D01*
X4608752Y4124117D01*
X4606260Y4114815D01*
Y4105185D01*
X4608752Y4095883D01*
X4613568Y4087543D01*
X4620377Y4080733D01*
X4628717Y4075918D01*
X4638019Y4073425D01*
X4647650D01*
X4656952Y4075918D01*
X4665292Y4080733D01*
X4672102Y4087543D01*
X4676917Y4095883D01*
X4679409Y4105185D01*
Y4114815D01*
X4676917Y4124117D01*
X4672102Y4132458D01*
X4665292Y4139267D01*
X4656952Y4144082D01*
X4647650Y4146575D01*
D02*
G37*
G36*
X7585000Y4074895D02*
Y4045000D01*
X7614895D01*
X7612615Y4053510D01*
X7608007Y4061490D01*
X7601490Y4068007D01*
X7593510Y4072615D01*
X7585000Y4074895D01*
D02*
G37*
G36*
X7575000D02*
X7566490Y4072615D01*
X7558510Y4068007D01*
X7551993Y4061490D01*
X7547385Y4053510D01*
X7545105Y4045000D01*
X7575000D01*
Y4074895D01*
D02*
G37*
G36*
X7614895Y4035000D02*
X7585000D01*
Y4005105D01*
X7593510Y4007385D01*
X7601490Y4011993D01*
X7608007Y4018510D01*
X7612615Y4026490D01*
X7614895Y4035000D01*
D02*
G37*
G36*
X7575000D02*
X7545105D01*
X7547385Y4026490D01*
X7551993Y4018510D01*
X7558510Y4011993D01*
X7566490Y4007385D01*
X7575000Y4005105D01*
Y4035000D01*
D02*
G37*
G36*
X2185266Y4085000D02*
X2174734D01*
X2164561Y4082274D01*
X2155439Y4077008D01*
X2147992Y4069561D01*
X2142726Y4060439D01*
X2140000Y4050266D01*
Y4039734D01*
X2142726Y4029561D01*
X2147992Y4020439D01*
X2155439Y4012992D01*
X2164561Y4007726D01*
X2174734Y4005000D01*
X2185266D01*
X2195439Y4007726D01*
X2204561Y4012992D01*
X2212008Y4020439D01*
X2217274Y4029561D01*
X2220000Y4039734D01*
Y4050266D01*
X2217274Y4060439D01*
X2212008Y4069561D01*
X2204561Y4077008D01*
X2195439Y4082274D01*
X2185266Y4085000D01*
D02*
G37*
G36*
X2682500Y3924327D02*
Y3897500D01*
X2709327D01*
X2707706Y3903548D01*
X2703086Y3911551D01*
X2696551Y3918086D01*
X2688548Y3922706D01*
X2682500Y3924327D01*
D02*
G37*
G36*
X2667500D02*
X2661452Y3922706D01*
X2653449Y3918086D01*
X2646914Y3911551D01*
X2642294Y3903548D01*
X2640673Y3897500D01*
X2667500D01*
Y3924327D01*
D02*
G37*
G36*
X2709327Y3882500D02*
X2682500D01*
Y3855673D01*
X2688548Y3857294D01*
X2696551Y3861914D01*
X2703086Y3868449D01*
X2707706Y3876452D01*
X2709327Y3882500D01*
D02*
G37*
G36*
X2667500D02*
X2640673D01*
X2642294Y3876452D01*
X2646914Y3868449D01*
X2653449Y3861914D01*
X2661452Y3857294D01*
X2667500Y3855673D01*
Y3882500D01*
D02*
G37*
G36*
X2710098Y3846358D02*
X2639902D01*
Y3776161D01*
X2710098D01*
Y3846358D01*
D02*
G37*
G36*
X4457399Y3845026D02*
X4387202D01*
Y3774829D01*
X4457399D01*
Y3845026D01*
D02*
G37*
G36*
X3935098Y3843839D02*
X3864902D01*
Y3773642D01*
X3935098D01*
Y3843839D01*
D02*
G37*
G36*
X3393370Y3847559D02*
X3383481D01*
X3373928Y3844999D01*
X3365363Y3840055D01*
X3358370Y3833062D01*
X3353426Y3824497D01*
X3350866Y3814945D01*
Y3805055D01*
X3353426Y3795503D01*
X3358370Y3786938D01*
X3365363Y3779945D01*
X3373928Y3775001D01*
X3383481Y3772441D01*
X3393370D01*
X3402922Y3775001D01*
X3411487Y3779945D01*
X3418480Y3786938D01*
X3423425Y3795503D01*
X3425984Y3805055D01*
Y3814945D01*
X3423425Y3824497D01*
X3418480Y3833062D01*
X3411487Y3840055D01*
X3402922Y3844999D01*
X3393370Y3847559D01*
D02*
G37*
G36*
X3229134D02*
X3154016D01*
Y3772441D01*
X3229134D01*
Y3847559D01*
D02*
G37*
G36*
X7593071Y3793071D02*
X7562500D01*
Y3762500D01*
X7593071D01*
Y3793071D01*
D02*
G37*
G36*
X7537500D02*
X7506929D01*
Y3762500D01*
X7537500D01*
Y3793071D01*
D02*
G37*
G36*
X4429800Y3765514D02*
Y3738687D01*
X4456627D01*
X4455007Y3744735D01*
X4450386Y3752738D01*
X4443851Y3759273D01*
X4435848Y3763894D01*
X4429800Y3765514D01*
D02*
G37*
G36*
X4414800D02*
X4408753Y3763894D01*
X4400749Y3759273D01*
X4394215Y3752738D01*
X4389594Y3744735D01*
X4387974Y3738687D01*
X4414800D01*
Y3765514D01*
D02*
G37*
G36*
X3907500Y3764327D02*
Y3737500D01*
X3934327D01*
X3932706Y3743548D01*
X3928086Y3751551D01*
X3921551Y3758086D01*
X3913548Y3762706D01*
X3907500Y3764327D01*
D02*
G37*
G36*
X3892500D02*
X3886452Y3762706D01*
X3878449Y3758086D01*
X3871914Y3751551D01*
X3867294Y3743548D01*
X3865673Y3737500D01*
X3892500D01*
Y3764327D01*
D02*
G37*
G36*
X7593071Y3737500D02*
X7562500D01*
Y3706929D01*
X7593071D01*
Y3737500D01*
D02*
G37*
G36*
X7537500D02*
X7506929D01*
Y3706929D01*
X7537500D01*
Y3737500D01*
D02*
G37*
G36*
X4456627Y3723687D02*
X4429800D01*
Y3696860D01*
X4435848Y3698481D01*
X4443851Y3703102D01*
X4450386Y3709636D01*
X4455007Y3717640D01*
X4456627Y3723687D01*
D02*
G37*
G36*
X4414800D02*
X4387974D01*
X4389594Y3717640D01*
X4394215Y3709636D01*
X4400749Y3703102D01*
X4408753Y3698481D01*
X4414800Y3696860D01*
Y3723687D01*
D02*
G37*
G36*
X3934327Y3722500D02*
X3907500D01*
Y3695673D01*
X3913548Y3697294D01*
X3921551Y3701914D01*
X3928086Y3708449D01*
X3932706Y3716452D01*
X3934327Y3722500D01*
D02*
G37*
G36*
X3892500D02*
X3865673D01*
X3867294Y3716452D01*
X3871914Y3708449D01*
X3878449Y3701914D01*
X3886452Y3697294D01*
X3892500Y3695673D01*
Y3722500D01*
D02*
G37*
G36*
X3805000Y3664895D02*
Y3635000D01*
X3834895D01*
X3832615Y3643510D01*
X3828007Y3651490D01*
X3821490Y3658007D01*
X3813510Y3662615D01*
X3805000Y3664895D01*
D02*
G37*
G36*
X3795000D02*
X3786490Y3662615D01*
X3778510Y3658007D01*
X3771993Y3651490D01*
X3767385Y3643510D01*
X3765105Y3635000D01*
X3795000D01*
Y3664895D01*
D02*
G37*
G36*
X3615000D02*
Y3635000D01*
X3644895D01*
X3642615Y3643510D01*
X3638007Y3651490D01*
X3631490Y3658007D01*
X3623510Y3662615D01*
X3615000Y3664895D01*
D02*
G37*
G36*
X3605000D02*
X3596490Y3662615D01*
X3588510Y3658007D01*
X3581993Y3651490D01*
X3577385Y3643510D01*
X3575105Y3635000D01*
X3605000D01*
Y3664895D01*
D02*
G37*
G36*
X3834895Y3625000D02*
X3805000D01*
Y3595105D01*
X3813510Y3597385D01*
X3821490Y3601993D01*
X3828007Y3608510D01*
X3832615Y3616490D01*
X3834895Y3625000D01*
D02*
G37*
G36*
X3795000D02*
X3765105D01*
X3767385Y3616490D01*
X3771993Y3608510D01*
X3778510Y3601993D01*
X3786490Y3597385D01*
X3795000Y3595105D01*
Y3625000D01*
D02*
G37*
G36*
X3644895D02*
X3615000D01*
Y3595105D01*
X3623510Y3597385D01*
X3631490Y3601993D01*
X3638007Y3608510D01*
X3642615Y3616490D01*
X3644895Y3625000D01*
D02*
G37*
G36*
X3605000D02*
X3575105D01*
X3577385Y3616490D01*
X3581993Y3608510D01*
X3588510Y3601993D01*
X3596490Y3597385D01*
X3605000Y3595105D01*
Y3625000D01*
D02*
G37*
G36*
X7555000Y2319119D02*
Y2286575D01*
X7587544D01*
X7584999Y2296072D01*
X7580055Y2304637D01*
X7573062Y2311630D01*
X7564497Y2316574D01*
X7555000Y2319119D01*
D02*
G37*
G36*
X7545000D02*
X7535503Y2316574D01*
X7526938Y2311630D01*
X7519945Y2304637D01*
X7515001Y2296072D01*
X7512456Y2286575D01*
X7545000D01*
Y2319119D01*
D02*
G37*
G36*
X7090000Y2304895D02*
Y2275000D01*
X7119895D01*
X7117615Y2283510D01*
X7113007Y2291490D01*
X7106490Y2298007D01*
X7098510Y2302615D01*
X7090000Y2304895D01*
D02*
G37*
G36*
X7080000D02*
X7071490Y2302615D01*
X7063510Y2298007D01*
X7056993Y2291490D01*
X7052385Y2283510D01*
X7050105Y2275000D01*
X7080000D01*
Y2304895D01*
D02*
G37*
G36*
X6615000D02*
Y2275000D01*
X6644895D01*
X6642615Y2283510D01*
X6638007Y2291490D01*
X6631490Y2298007D01*
X6623510Y2302615D01*
X6615000Y2304895D01*
D02*
G37*
G36*
X6605000D02*
X6596490Y2302615D01*
X6588510Y2298007D01*
X6581993Y2291490D01*
X6577385Y2283510D01*
X6575105Y2275000D01*
X6605000D01*
Y2304895D01*
D02*
G37*
G36*
X7587544Y2276575D02*
X7555000D01*
Y2244031D01*
X7564497Y2246575D01*
X7573062Y2251520D01*
X7580055Y2258513D01*
X7584999Y2267078D01*
X7587544Y2276575D01*
D02*
G37*
G36*
X7545000D02*
X7512456D01*
X7515001Y2267078D01*
X7519945Y2258513D01*
X7526938Y2251520D01*
X7535503Y2246575D01*
X7545000Y2244031D01*
Y2276575D01*
D02*
G37*
G36*
X7119895Y2265000D02*
X7090000D01*
Y2235105D01*
X7098510Y2237385D01*
X7106490Y2241993D01*
X7113007Y2248510D01*
X7117615Y2256490D01*
X7119895Y2265000D01*
D02*
G37*
G36*
X7080000D02*
X7050105D01*
X7052385Y2256490D01*
X7056993Y2248510D01*
X7063510Y2241993D01*
X7071490Y2237385D01*
X7080000Y2235105D01*
Y2265000D01*
D02*
G37*
G36*
X6644895D02*
X6615000D01*
Y2235105D01*
X6623510Y2237385D01*
X6631490Y2241993D01*
X6638007Y2248510D01*
X6642615Y2256490D01*
X6644895Y2265000D01*
D02*
G37*
G36*
X6605000D02*
X6575105D01*
X6577385Y2256490D01*
X6581993Y2248510D01*
X6588510Y2241993D01*
X6596490Y2237385D01*
X6605000Y2235105D01*
Y2265000D01*
D02*
G37*
G36*
X7560000Y3058242D02*
Y3030000D01*
X7588242D01*
X7586834Y3035257D01*
X7581630Y3044271D01*
X7574270Y3051630D01*
X7565257Y3056834D01*
X7560000Y3058242D01*
D02*
G37*
G36*
X7540000D02*
X7534743Y3056834D01*
X7525730Y3051630D01*
X7518370Y3044271D01*
X7513166Y3035257D01*
X7511758Y3030000D01*
X7540000D01*
Y3058242D01*
D02*
G37*
G36*
X7588242Y3010000D02*
X7560000D01*
Y2981758D01*
X7565257Y2983166D01*
X7574270Y2988370D01*
X7581630Y2995729D01*
X7586834Y3004743D01*
X7588242Y3010000D01*
D02*
G37*
G36*
X7540000D02*
X7511758D01*
X7513166Y3004743D01*
X7518370Y2995729D01*
X7525730Y2988370D01*
X7534743Y2983166D01*
X7540000Y2981758D01*
Y3010000D01*
D02*
G37*
G36*
X7555000Y2794895D02*
Y2765000D01*
X7584895D01*
X7582615Y2773510D01*
X7578007Y2781490D01*
X7571490Y2788007D01*
X7563510Y2792615D01*
X7555000Y2794895D01*
D02*
G37*
G36*
X7545000D02*
X7536490Y2792615D01*
X7528510Y2788007D01*
X7521993Y2781490D01*
X7517385Y2773510D01*
X7515105Y2765000D01*
X7545000D01*
Y2794895D01*
D02*
G37*
G36*
X7584895Y2755000D02*
X7555000D01*
Y2725105D01*
X7563510Y2727385D01*
X7571490Y2731993D01*
X7578007Y2738510D01*
X7582615Y2746490D01*
X7584895Y2755000D01*
D02*
G37*
G36*
X7545000D02*
X7515105D01*
X7517385Y2746490D01*
X7521993Y2738510D01*
X7528510Y2731993D01*
X7536490Y2727385D01*
X7545000Y2725105D01*
Y2755000D01*
D02*
G37*
G36*
X7560000Y2519806D02*
Y2488425D01*
X7591381D01*
X7589659Y2494852D01*
X7584056Y2504557D01*
X7576132Y2512481D01*
X7566427Y2518084D01*
X7560000Y2519806D01*
D02*
G37*
G36*
X7540000D02*
X7533573Y2518084D01*
X7523868Y2512481D01*
X7515944Y2504557D01*
X7510341Y2494852D01*
X7508619Y2488425D01*
X7540000D01*
Y2519806D01*
D02*
G37*
G36*
X7591381Y2468425D02*
X7560000D01*
Y2437044D01*
X7566427Y2438767D01*
X7576132Y2444370D01*
X7584056Y2452293D01*
X7589659Y2461998D01*
X7591381Y2468425D01*
D02*
G37*
G36*
X7540000D02*
X7508619D01*
X7510341Y2461998D01*
X7515944Y2452293D01*
X7523868Y2444370D01*
X7533573Y2438767D01*
X7540000Y2437044D01*
Y2468425D01*
D02*
G37*
%LPD*%
D10*
X7915000Y4675000D02*
G03*
X7780000Y4805000I-132500J-2500D01*
G01*
Y1995000D02*
G03*
X7915000Y2135000I-2500J137500D01*
G01*
X2040000Y2120000D02*
G03*
X2175000Y1995000I130000J5000D01*
G01*
Y4805000D02*
G03*
X2040000Y4675000I-2500J-132500D01*
G01*
X2175000Y4805000D02*
X7780000D01*
X7915000Y2135000D02*
Y4675000D01*
X2175000Y1995000D02*
X7780000D01*
X2040000Y2120000D02*
Y4675000D01*
D11*
X7550000Y3450000D02*
X7715000Y3285000D01*
X7810000D01*
X7040000Y2855000D02*
X7160000Y2735000D01*
X7040000Y2855000D02*
Y2995000D01*
X5715000Y2375000D02*
Y3020000D01*
X5681592Y2341592D02*
X5715000Y2375000D01*
X5616056Y2341592D02*
X5681592D01*
X2625883Y2464117D02*
X2745514D01*
X2465000Y2625000D02*
Y3140000D01*
Y2625000D02*
X2625883Y2464117D01*
X6187918Y2492082D02*
X6190000Y2490000D01*
X5766083Y4476083D02*
X5778583Y4463583D01*
X5766083Y4463248D02*
X5767835Y4465000D01*
X5765000Y4462165D02*
X5766083Y4463248D01*
Y4476083D01*
X5405572Y4474225D02*
X5408108Y4471689D01*
X5408782Y4472363D01*
Y4639905D02*
X5409455Y4640578D01*
X5764393Y4477772D02*
X5766083Y4476083D01*
X5763786Y4640578D02*
X5764393Y4639971D01*
X4934216Y4350118D02*
X4935549Y4351451D01*
D12*
X3705000Y2870000D02*
X3765000Y2810000D01*
X3705000Y2870000D02*
Y3975000D01*
X4900000Y2500000D02*
Y2573822D01*
X4661952Y2440750D02*
X4840750D01*
X4900000Y2500000D01*
Y2573822D02*
Y3665000D01*
D13*
X4285000Y2160019D02*
X4820019D01*
X3939646D02*
X4285000D01*
X4978740Y2318740D02*
Y2573822D01*
X4820019Y2160019D02*
X4978740Y2318740D01*
D14*
X4220000Y2225019D02*
X4285000Y2160019D01*
X4220000Y3528887D02*
X4422300Y3731187D01*
X4220000Y2225019D02*
Y3528887D01*
X2716241Y2238759D02*
X3939646D01*
X2365000Y2590000D02*
X2716241Y2238759D01*
X2365000Y2590000D02*
Y2817165D01*
D15*
X6745000Y4431260D02*
D03*
X7045000Y4435000D02*
D03*
X3900000Y3808740D02*
D03*
X3905000Y4386260D02*
D03*
X2675000Y4385000D02*
D03*
Y3811260D02*
D03*
X3430000Y2938740D02*
D03*
X4434078D02*
D03*
X4422300Y3809927D02*
D03*
X4032316Y2938740D02*
D03*
X3939646Y2160019D02*
D03*
X4935549Y4351451D02*
D03*
D16*
X6745000Y4510000D02*
D03*
X7045000Y4513740D02*
D03*
X4935549Y4430191D02*
D03*
X3900000Y3730000D02*
D03*
X3905000Y4465000D02*
D03*
X2675000Y4463740D02*
D03*
Y3890000D02*
D03*
X3430000Y2860000D02*
D03*
X4434078D02*
D03*
X4422300Y3731187D02*
D03*
X4978740Y2573822D02*
D03*
X4032316Y2860000D02*
D03*
X3939646Y2238759D02*
D03*
D17*
X4900000Y3665000D02*
D03*
X5000000D02*
D03*
D18*
X5100000D02*
D03*
D19*
X6190000Y2590000D02*
D03*
X2745514Y2464117D02*
D03*
X6180000Y4565000D02*
D03*
D20*
X6190000Y2490000D02*
D03*
Y2390000D02*
D03*
X2745514Y2664117D02*
D03*
Y2564117D02*
D03*
X6180000Y4365000D02*
D03*
Y4465000D02*
D03*
D21*
X7550000Y3020000D02*
D03*
X6945000Y4165000D02*
D03*
Y2505000D02*
D03*
X6845000D02*
D03*
X7805000Y3650000D02*
D03*
D22*
X7550000Y3120000D02*
D03*
X7805000Y3550000D02*
D03*
D23*
X3181575Y4465000D02*
D03*
X3191575Y3810000D02*
D03*
D24*
X3378425Y4465000D02*
D03*
X3388425Y3810000D02*
D03*
X7550000Y2478425D02*
D03*
Y2281575D02*
D03*
D25*
X2180000Y4245000D02*
D03*
Y4145000D02*
D03*
Y4045000D02*
D03*
D26*
X2365000Y3140000D02*
D03*
X2415000Y3190000D02*
D03*
X2465000Y3140000D02*
D03*
D27*
X2415000Y3090000D02*
D03*
D28*
X2365000Y2817165D02*
D03*
X3677835Y2565000D02*
D03*
X4032165D02*
D03*
X5077165Y2860000D02*
D03*
X4997165Y4110000D02*
D03*
X4642835D02*
D03*
X5261725Y2341592D02*
D03*
X3077835Y2565000D02*
D03*
X3432165D02*
D03*
X5765000Y4107835D02*
D03*
Y4462165D02*
D03*
X5763786Y4640578D02*
D03*
X5409455D02*
D03*
X5408108Y4462165D02*
D03*
Y4107835D02*
D03*
D29*
X2365000Y2462835D02*
D03*
D30*
X4722835Y2860000D02*
D03*
X5616056Y2341592D02*
D03*
D31*
X4900000Y2573822D02*
D03*
D32*
X4661952Y2540750D02*
D03*
Y2440750D02*
D03*
Y2340750D02*
D03*
Y2240750D02*
D03*
X4349433D02*
D03*
Y2340750D02*
D03*
Y2440750D02*
D03*
D33*
Y2540750D02*
D03*
D34*
X7040000Y2995000D02*
D03*
X6940000D02*
D03*
X6840000D02*
D03*
X7550000Y3650000D02*
D03*
Y3550000D02*
D03*
Y3450000D02*
D03*
X6745000Y3945000D02*
D03*
X6845000D02*
D03*
X6945000D02*
D03*
D35*
X6740000Y2995000D02*
D03*
X7045000Y3945000D02*
D03*
D36*
X7550000Y3750000D02*
D03*
D37*
X6845000Y4165000D02*
D03*
D38*
X5915000Y3020000D02*
D03*
X5815000D02*
D03*
D39*
X5715000D02*
D03*
D40*
X4325000Y4250197D02*
D03*
X4424803Y4350118D02*
D03*
X4325000Y4450000D02*
D03*
D41*
X5395000Y3185000D02*
D03*
X7055000Y3260000D02*
D03*
X5100000Y3905000D02*
D03*
X5200000Y4355000D02*
D03*
X2535000Y2555000D02*
D03*
X3075000Y3345000D02*
D03*
X3130000Y2820000D02*
D03*
X6480000Y4110000D02*
D03*
X6250000Y4115000D02*
D03*
X7070000Y3560000D02*
D03*
X6610000Y2270000D02*
D03*
X7085000D02*
D03*
X7550000Y2760000D02*
D03*
X7220000Y4375000D02*
D03*
X7400000Y4215000D02*
D03*
Y4375000D02*
D03*
X7580000D02*
D03*
Y4215000D02*
D03*
X7810000Y3285000D02*
D03*
X7160000Y2735000D02*
D03*
X6575000Y2590000D02*
D03*
X7580000Y4040000D02*
D03*
X3610000Y3630000D02*
D03*
X3800000D02*
D03*
X3705000Y3975000D02*
D03*
X3765000Y2810000D02*
D03*
D42*
X7740000Y4645000D02*
D03*
X7760000Y2170000D02*
D03*
X2220000Y2160000D02*
D03*
X2180000Y4665000D02*
D03*
%TF.MD5,e3251cb2f31e1e09daa7e38004d27f58*%
M02*
