%TF.GenerationSoftware,Altium Limited,Altium Designer,21.2.2 (38)*%
G04 Layer_Color=32768*
%FSLAX26Y26*%
%MOIN*%
%TF.SameCoordinates,77551777-079B-400F-9D4E-00EB0A9A3649*%
%TF.FilePolarity,Positive*%
%TF.FileFunction,Other,Mechanical_7*%
%TF.Part,Single*%
G01*
G75*
%TA.AperFunction,NonConductor*%
%ADD77C,0.006000*%
D77*
X2230000Y4220000D02*
Y4270000D01*
X2205000Y4195000D02*
X2230000Y4220000D01*
X2155000Y4195000D02*
X2205000D01*
X2130000Y4220000D02*
X2155000Y4195000D01*
X2205000D02*
X2230000Y4170000D01*
Y4120000D02*
Y4170000D01*
X2205000Y4095000D02*
X2230000Y4120000D01*
X2155000Y4095000D02*
X2205000D01*
X2130000Y4120000D02*
X2155000Y4095000D01*
X2130000Y4120000D02*
Y4170000D01*
X2155000Y4195000D01*
Y4295000D02*
X2205000D01*
X2230000Y4270000D01*
X2130000D02*
X2155000Y4295000D01*
X2130000Y4220000D02*
Y4270000D01*
X2205000Y4095000D02*
X2230000Y4070000D01*
Y4020000D02*
Y4070000D01*
X2205000Y3995000D02*
X2230000Y4020000D01*
X2155000Y3995000D02*
X2205000D01*
X2130000Y4020000D02*
X2155000Y3995000D01*
X2130000Y4020000D02*
Y4070000D01*
X2155000Y4095000D01*
%TF.MD5,a5dc0d4a606d19ff07c9ebc5bc692680*%
M02*
