%TF.GenerationSoftware,Altium Limited,Altium Designer,21.2.2 (38)*%
G04 Layer_Color=32768*
%FSLAX26Y26*%
%MOIN*%
%TF.SameCoordinates,77551777-079B-400F-9D4E-00EB0A9A3649*%
%TF.FilePolarity,Positive*%
%TF.FileFunction,Other,Mechanical_15*%
%TF.Part,Single*%
G01*
G75*
%TA.AperFunction,NonConductor*%
%ADD74C,0.003937*%
%ADD78C,0.001968*%
D74*
X6190000Y2470315D02*
Y2509685D01*
X6170315Y2490000D02*
X6209685D01*
X3260315Y4465000D02*
X3299685D01*
X3280000Y4445315D02*
Y4484685D01*
X3290000Y3790315D02*
Y3829685D01*
X3270315Y3810000D02*
X3309685D01*
X2268622Y2993622D02*
X2561378D01*
X2268622D02*
Y3286378D01*
X2561378D01*
Y2993622D02*
Y3286378D01*
X2725829Y2564117D02*
X2765199D01*
X2745514Y2544432D02*
Y2583802D01*
X2365000Y2620315D02*
Y2659685D01*
X2345315Y2640000D02*
X2384685D01*
X3835315Y2565000D02*
X3874685D01*
X3855000Y2545315D02*
Y2584685D01*
X4880315Y2860000D02*
X4919685D01*
X4900000Y2840315D02*
Y2879685D01*
X4820000Y4090315D02*
Y4129685D01*
X4800315Y4110000D02*
X4839685D01*
X5419205Y2341592D02*
X5458575D01*
X5438890Y2321907D02*
Y2361277D01*
X7530315Y2380000D02*
X7569685D01*
X7550000Y2360315D02*
Y2399685D01*
X3235315Y2565000D02*
X3274685D01*
X3255000Y2545315D02*
Y2584685D01*
X5765000Y4265315D02*
Y4304685D01*
X5745315Y4285000D02*
X5784685D01*
X5566936Y4640578D02*
X5606306D01*
X5586621Y4620893D02*
Y4660263D01*
X5388423Y4285000D02*
X5427793D01*
X5408108Y4265315D02*
Y4304685D01*
X6160315Y4465000D02*
X6199685D01*
X6180000Y4445315D02*
Y4484685D01*
X4539567Y4135551D02*
Y4564685D01*
X4110433D02*
X4539567D01*
X4110433Y4135551D02*
Y4564685D01*
Y4135551D02*
X4539567D01*
D78*
X6868032Y4470630D02*
G03*
X6868032Y4470630I-123031J0D01*
G01*
X7168032Y4474370D02*
G03*
X7168032Y4474370I-123031J0D01*
G01*
X4023032Y3769370D02*
G03*
X4023032Y3769370I-123031J0D01*
G01*
X4028032Y4425630D02*
G03*
X4028032Y4425630I-123031J0D01*
G01*
X2798032Y4424370D02*
G03*
X2798032Y4424370I-123031J0D01*
G01*
Y3850630D02*
G03*
X2798032Y3850630I-123031J0D01*
G01*
X3553032Y2899370D02*
G03*
X3553032Y2899370I-123031J0D01*
G01*
X4557109D02*
G03*
X4557109Y2899370I-123031J0D01*
G01*
X4545332Y3770557D02*
G03*
X4545332Y3770557I-123031J0D01*
G01*
X5062402Y2573822D02*
G03*
X5062402Y2573822I-123031J0D01*
G01*
X4155348Y2899370D02*
G03*
X4155348Y2899370I-123031J0D01*
G01*
X4062677Y2199389D02*
G03*
X4062677Y2199389I-123031J0D01*
G01*
X5058581Y4390821D02*
G03*
X5058581Y4390821I-123031J0D01*
G01*
X5217323Y3529173D02*
Y3733898D01*
X4782677D02*
X5217323D01*
X4782677Y3529173D02*
Y3733898D01*
Y3529173D02*
X5217323D01*
X6289213Y2298465D02*
Y2681535D01*
X6091181Y2298465D02*
X6289213D01*
X6091181D02*
Y2681535D01*
X6289213D01*
X3108740Y4636260D02*
X3451260D01*
X3108740Y4293740D02*
Y4636260D01*
Y4293740D02*
X3451260D01*
Y4636260D01*
X3461260Y3638740D02*
Y3981260D01*
X3118740Y3638740D02*
X3461260D01*
X3118740D02*
Y3981260D01*
X3461260D01*
X2646301Y2372582D02*
X2844333D01*
Y2755652D01*
X2646301D02*
X2844333D01*
X2646301Y2372582D02*
Y2755652D01*
X2313819Y2432323D02*
X2416181D01*
Y2847677D01*
X2313819Y2432323D02*
Y2847677D01*
X2416181D01*
X4062677Y2513819D02*
Y2616181D01*
X3647323D02*
X4062677D01*
X3647323Y2513819D02*
X4062677D01*
X3647323D02*
Y2616181D01*
X4692323Y2808819D02*
Y2911181D01*
Y2808819D02*
X5107677D01*
X4692323Y2911181D02*
X5107677D01*
Y2808819D02*
Y2911181D01*
X4612323Y4069646D02*
X5027677D01*
X4612323D02*
Y4150354D01*
X5027677Y4069646D02*
Y4150354D01*
X4612323D02*
X5027677D01*
X4311047Y2180907D02*
Y2600592D01*
Y2180907D02*
X4700338D01*
Y2600592D01*
X4311047D02*
X4700338D01*
X5646568Y2290411D02*
Y2392773D01*
X5231213D02*
X5646568D01*
X5231213Y2290411D02*
X5646568D01*
X5231213D02*
Y2392773D01*
X6675236Y2910354D02*
Y3087913D01*
Y2910354D02*
X7104764D01*
Y3087913D01*
X6675236D02*
X7104764D01*
X7642913Y3385236D02*
Y3814764D01*
X7465354Y3385236D02*
X7642913D01*
X7465354D02*
Y3814764D01*
X7642913D01*
X7378740Y2551260D02*
X7721260D01*
Y2208740D02*
Y2551260D01*
X7378740Y2208740D02*
X7721260D01*
X7378740D02*
Y2551260D01*
X5598071Y2954055D02*
Y3156811D01*
Y2954055D02*
X6031929D01*
Y3156811D01*
X5598071D02*
X6031929D01*
X3462677Y2513819D02*
Y2616181D01*
X3047323D02*
X3462677D01*
X3047323Y2513819D02*
X3462677D01*
X3047323D02*
Y2616181D01*
X5713819Y4492677D02*
X5816181D01*
X5713819Y4077323D02*
Y4492677D01*
X5816181Y4077323D02*
Y4492677D01*
X5713819Y4077323D02*
X5816181D01*
X5378944Y4589397D02*
Y4691760D01*
Y4589397D02*
X5794298D01*
X5378944Y4691760D02*
X5794298D01*
Y4589397D02*
Y4691760D01*
X5448462Y4077323D02*
Y4492677D01*
X5367754Y4077323D02*
X5448462D01*
X5367754Y4492677D02*
X5448462D01*
X5367754Y4077323D02*
Y4492677D01*
X6081181Y4656535D02*
X6279213D01*
X6081181Y4273465D02*
Y4656535D01*
Y4273465D02*
X6279213D01*
Y4656535D01*
X7109764Y3852087D02*
Y4029646D01*
X6680236D02*
X7109764D01*
X6680236Y3852087D02*
Y4029646D01*
Y3852087D02*
X7109764D01*
%TF.MD5,1994fbc77a7a837a4c5961f636c116a4*%
M02*
