%TF.GenerationSoftware,Altium Limited,Altium Designer,21.2.2 (38)*%
G04 Layer_Physical_Order=2*
G04 Layer_Color=16776960*
%FSLAX26Y26*%
%MOIN*%
%TF.SameCoordinates,77551777-079B-400F-9D4E-00EB0A9A3649*%
%TF.FilePolarity,Positive*%
%TF.FileFunction,Copper,L2,Bot,Signal*%
%TF.Part,Single*%
G01*
G75*
%TA.AperFunction,Conductor*%
%ADD11C,0.012000*%
%ADD12C,0.025000*%
%ADD13C,0.020000*%
%ADD14C,0.022000*%
%TA.AperFunction,ComponentPad*%
%ADD15R,0.050197X0.050197*%
%ADD16C,0.050197*%
%ADD17C,0.076181*%
%ADD18R,0.076181X0.076181*%
%ADD19R,0.051181X0.051181*%
%ADD20C,0.051181*%
%ADD21C,0.059055*%
%ADD22R,0.059055X0.059055*%
%ADD23R,0.055118X0.055118*%
%ADD24C,0.055118*%
%ADD25C,0.060000*%
%ADD26C,0.046535*%
%ADD27R,0.046535X0.046535*%
%ADD28C,0.053150*%
%ADD29R,0.053150X0.053150*%
%ADD30R,0.053150X0.053150*%
%ADD31R,0.050197X0.050197*%
%ADD32C,0.044606*%
%ADD33R,0.044606X0.044606*%
%ADD34C,0.066142*%
%ADD35R,0.066142X0.066142*%
%ADD36R,0.066142X0.066142*%
%ADD37R,0.059055X0.059055*%
%ADD38C,0.082087*%
%ADD39R,0.082087X0.082087*%
%ADD40C,0.048425*%
%TA.AperFunction,ViaPad*%
%ADD41C,0.050000*%
%ADD42C,0.118110*%
%TA.AperFunction,Conductor*%
%ADD43C,0.040000*%
G36*
X3970000Y4490000D02*
Y4420000D01*
X3952718Y4402718D01*
X3948098Y4404631D01*
Y4429358D01*
X3923463D01*
X3922124Y4434358D01*
X3926551Y4436914D01*
X3933086Y4443449D01*
X3937706Y4451453D01*
X3939997Y4460000D01*
X3905000D01*
X3870003D01*
X3872294Y4451453D01*
X3876914Y4443449D01*
X3883449Y4436914D01*
X3887876Y4434358D01*
X3886537Y4429358D01*
X3861902D01*
Y4386260D01*
X3353740D01*
X3315000Y4425000D01*
Y4495000D01*
X3350000Y4530000D01*
X3930000D01*
X3970000Y4490000D01*
D02*
G37*
G36*
X3260000Y4497891D02*
X3260000Y4430000D01*
X3225000Y4395000D01*
X2718098D01*
Y4428098D01*
X2693463D01*
X2692124Y4433098D01*
X2696551Y4435654D01*
X2703086Y4442189D01*
X2707706Y4450193D01*
X2709997Y4458740D01*
X2675000D01*
X2640003D01*
X2642294Y4450193D01*
X2646914Y4442189D01*
X2653449Y4435654D01*
X2657876Y4433098D01*
X2656537Y4428098D01*
X2631902D01*
Y4395000D01*
X2410000D01*
X2205000Y4190000D01*
X2197515D01*
X2186319Y4193000D01*
X2173681D01*
X2162485Y4190000D01*
X2150000D01*
X2115000Y4225000D01*
Y4290000D01*
X2362891Y4537891D01*
X3220000D01*
X3260000Y4497891D01*
D02*
G37*
G36*
X7140000Y4010000D02*
Y2965000D01*
X7070000Y2895000D01*
X7014434D01*
X6958814Y2950620D01*
Y2956128D01*
X6966446Y2960535D01*
X6974465Y2968554D01*
X6980136Y2978375D01*
X6983071Y2989330D01*
Y3000670D01*
X6980136Y3011625D01*
X6974465Y3021446D01*
X6966446Y3029465D01*
X6956625Y3035136D01*
X6945670Y3038071D01*
X6934330D01*
X6923375Y3035136D01*
X6913554Y3029465D01*
X6905535Y3021446D01*
X6901700Y3014805D01*
X6895508Y3013926D01*
X6774434Y3135000D01*
X5135000D01*
X4895000Y2895000D01*
X4759409D01*
Y2896575D01*
X4686260D01*
Y2895000D01*
X4439066D01*
X4438699Y2895098D01*
X4429457D01*
X4429090Y2895000D01*
X4037304D01*
X4036937Y2895098D01*
X4027696D01*
X4027328Y2895000D01*
X3434988D01*
X3434621Y2895098D01*
X3425379D01*
X3425012Y2895000D01*
X3270000D01*
X2985000Y2610000D01*
X2640000Y2610000D01*
X2390000Y2860000D01*
X2390000Y3056732D01*
X2410000D01*
Y3090000D01*
X2420000D01*
Y3056732D01*
X2440000D01*
X2440000Y2915000D01*
X2625000Y2730000D01*
X2960000D01*
X3245000Y3015000D01*
X4780000D01*
X5010000Y3245000D01*
X6870000D01*
X6985000Y3360000D01*
Y3928140D01*
X6985136Y3928375D01*
X6988071Y3939330D01*
Y3950670D01*
X6985136Y3961625D01*
X6985000Y3961860D01*
Y4020000D01*
X7018969Y4053969D01*
X7023589Y4052056D01*
Y3988071D01*
X7001929D01*
Y3950000D01*
X7045000D01*
X7088071D01*
Y3988071D01*
X7066411D01*
Y4060000D01*
X7090000D01*
X7140000Y4010000D01*
D02*
G37*
G36*
X2420000Y3885000D02*
X2631902D01*
Y3884326D01*
X2634839Y3873365D01*
X2640513Y3863537D01*
X2648537Y3855513D01*
X2655733Y3851358D01*
X2654393Y3846358D01*
X2639902D01*
Y3816260D01*
X2675000D01*
X2710098D01*
Y3846358D01*
X2695607D01*
X2694267Y3851358D01*
X2701463Y3855513D01*
X2709487Y3863537D01*
X2715161Y3873365D01*
X2718098Y3884326D01*
Y3885000D01*
X3215000Y3885000D01*
X3250000Y3850000D01*
X3250000Y3770000D01*
X3215000Y3735000D01*
X2410000Y3735000D01*
X2125000Y4020000D01*
Y4070000D01*
X2150000Y4095000D01*
X2210000D01*
X2420000Y3885000D01*
D02*
G37*
G36*
X4955000Y3820000D02*
Y3699239D01*
X4948268Y3687579D01*
X4944992Y3686956D01*
X4942706Y3687212D01*
X4938482Y3694528D01*
X4929528Y3703482D01*
X4918562Y3709813D01*
X4906331Y3713090D01*
X4905000D01*
Y3665000D01*
Y3616910D01*
X4906331D01*
X4918562Y3620187D01*
X4929528Y3626518D01*
X4938482Y3635472D01*
X4942706Y3642788D01*
X4944992Y3643044D01*
X4948268Y3642421D01*
X4955000Y3630761D01*
Y3590000D01*
X4935000Y3570000D01*
X4850000D01*
X4688813Y3731187D01*
X4465399D01*
Y3736861D01*
X4462462Y3747823D01*
X4456788Y3757650D01*
X4448763Y3765675D01*
X4441568Y3769829D01*
X4442908Y3774829D01*
X4457399D01*
Y3804927D01*
X4422301D01*
X4387202D01*
Y3774829D01*
X4401693D01*
X4403033Y3769829D01*
X4395837Y3765675D01*
X4387813Y3757650D01*
X4382139Y3747823D01*
X4379202Y3736861D01*
Y3731187D01*
X3943098D01*
Y3735674D01*
X3940161Y3746635D01*
X3934487Y3756463D01*
X3926463Y3764487D01*
X3919267Y3768642D01*
X3920607Y3773642D01*
X3935098D01*
Y3803740D01*
X3900000D01*
X3864902D01*
Y3773642D01*
X3879393D01*
X3880733Y3768642D01*
X3873537Y3764487D01*
X3865513Y3756463D01*
X3859839Y3746635D01*
X3856902Y3735674D01*
Y3731187D01*
X3378813D01*
X3335000Y3775000D01*
Y3855000D01*
X3375000Y3895000D01*
X4880000D01*
X4955000Y3820000D01*
D02*
G37*
G36*
X7625000Y3465000D02*
Y3100000D01*
X7590000Y3065000D01*
X7500000D01*
X7465000Y3100000D01*
Y3390000D01*
Y3460000D01*
X7505000Y3500000D01*
X7590000D01*
X7625000Y3465000D01*
D02*
G37*
%LPC*%
G36*
X3910000Y4499997D02*
Y4470000D01*
X3939997D01*
X3937706Y4478547D01*
X3933086Y4486551D01*
X3926551Y4493086D01*
X3918548Y4497707D01*
X3910000Y4499997D01*
D02*
G37*
G36*
X3383425Y4502544D02*
Y4470000D01*
X3415969D01*
X3413425Y4479497D01*
X3408480Y4488062D01*
X3401487Y4495055D01*
X3392922Y4499999D01*
X3383425Y4502544D01*
D02*
G37*
G36*
X3373425D02*
X3363928Y4499999D01*
X3355363Y4495055D01*
X3348370Y4488062D01*
X3343426Y4479497D01*
X3340881Y4470000D01*
X3373425D01*
Y4502544D01*
D02*
G37*
G36*
X3900000Y4499997D02*
X3891452Y4497707D01*
X3883449Y4493086D01*
X3876914Y4486551D01*
X3872294Y4478547D01*
X3870003Y4470000D01*
X3900000D01*
Y4499997D01*
D02*
G37*
G36*
X3415969Y4460000D02*
X3383425D01*
Y4427456D01*
X3392922Y4430001D01*
X3401487Y4434945D01*
X3408480Y4441938D01*
X3413425Y4450503D01*
X3415969Y4460000D01*
D02*
G37*
G36*
X3373425D02*
X3340881D01*
X3343426Y4450503D01*
X3348370Y4441938D01*
X3355363Y4434945D01*
X3363928Y4430001D01*
X3373425Y4427456D01*
Y4460000D01*
D02*
G37*
G36*
X3219134Y4502559D02*
X3186575D01*
Y4470000D01*
X3219134D01*
Y4502559D01*
D02*
G37*
G36*
X3176575D02*
X3144016D01*
Y4470000D01*
X3176575D01*
Y4502559D01*
D02*
G37*
G36*
X2680000Y4498737D02*
Y4468740D01*
X2709997D01*
X2707706Y4477288D01*
X2703086Y4485291D01*
X2696551Y4491826D01*
X2688548Y4496447D01*
X2680000Y4498737D01*
D02*
G37*
G36*
X2670000Y4498737D02*
X2661452Y4496447D01*
X2653449Y4491826D01*
X2646914Y4485291D01*
X2642294Y4477288D01*
X2640003Y4468740D01*
X2670000D01*
Y4498737D01*
D02*
G37*
G36*
X3219134Y4460000D02*
X3186575D01*
Y4427441D01*
X3219134D01*
Y4460000D01*
D02*
G37*
G36*
X3176575D02*
X3144016D01*
Y4427441D01*
X3176575D01*
Y4460000D01*
D02*
G37*
G36*
X2185266Y4285000D02*
X2185000D01*
Y4250000D01*
X2220000D01*
Y4250266D01*
X2217274Y4260439D01*
X2212008Y4269561D01*
X2204561Y4277008D01*
X2195439Y4282274D01*
X2185266Y4285000D01*
D02*
G37*
G36*
X2175000D02*
X2174734D01*
X2164561Y4282274D01*
X2155439Y4277008D01*
X2147992Y4269561D01*
X2142726Y4260439D01*
X2140000Y4250266D01*
Y4250000D01*
X2175000D01*
Y4285000D01*
D02*
G37*
G36*
X2220000Y4240000D02*
X2185000D01*
Y4205000D01*
X2185266D01*
X2195439Y4207726D01*
X2204561Y4212992D01*
X2212008Y4220439D01*
X2217274Y4229561D01*
X2220000Y4239734D01*
Y4240000D01*
D02*
G37*
G36*
X2175000D02*
X2140000D01*
Y4239734D01*
X2142726Y4229561D01*
X2147992Y4220439D01*
X2155439Y4212992D01*
X2164561Y4207726D01*
X2174734Y4205000D01*
X2175000D01*
Y4240000D01*
D02*
G37*
G36*
X7088071Y3940000D02*
X7050000D01*
Y3901929D01*
X7088071D01*
Y3940000D01*
D02*
G37*
G36*
X7040000D02*
X7001929D01*
Y3901929D01*
X7040000D01*
Y3940000D01*
D02*
G37*
G36*
X7075000Y3594895D02*
Y3565000D01*
X7104895D01*
X7102615Y3573510D01*
X7098007Y3581490D01*
X7091490Y3588007D01*
X7083510Y3592615D01*
X7075000Y3594895D01*
D02*
G37*
G36*
X7065000D02*
X7056490Y3592615D01*
X7048510Y3588007D01*
X7041993Y3581490D01*
X7037385Y3573510D01*
X7035105Y3565000D01*
X7065000D01*
Y3594895D01*
D02*
G37*
G36*
X7104895Y3555000D02*
X7075000D01*
Y3525105D01*
X7083510Y3527385D01*
X7091490Y3531993D01*
X7098007Y3538510D01*
X7102615Y3546490D01*
X7104895Y3555000D01*
D02*
G37*
G36*
X7065000D02*
X7035105D01*
X7037385Y3546490D01*
X7041993Y3538510D01*
X7048510Y3531993D01*
X7056490Y3527385D01*
X7065000Y3525105D01*
Y3555000D01*
D02*
G37*
G36*
X7060000Y3294895D02*
Y3265000D01*
X7089895D01*
X7087615Y3273510D01*
X7083007Y3281490D01*
X7076490Y3288007D01*
X7068510Y3292615D01*
X7060000Y3294895D01*
D02*
G37*
G36*
X7050000D02*
X7041490Y3292615D01*
X7033510Y3288007D01*
X7026993Y3281490D01*
X7022385Y3273510D01*
X7020105Y3265000D01*
X7050000D01*
Y3294895D01*
D02*
G37*
G36*
X7089895Y3255000D02*
X7060000D01*
Y3225105D01*
X7068510Y3227385D01*
X7076490Y3231993D01*
X7083007Y3238510D01*
X7087615Y3246490D01*
X7089895Y3255000D01*
D02*
G37*
G36*
X7050000D02*
X7020105D01*
X7022385Y3246490D01*
X7026993Y3238510D01*
X7033510Y3231993D01*
X7041490Y3227385D01*
X7050000Y3225105D01*
Y3255000D01*
D02*
G37*
G36*
X5400000Y3219895D02*
Y3190000D01*
X5429895D01*
X5427615Y3198510D01*
X5423007Y3206490D01*
X5416490Y3213007D01*
X5408510Y3217615D01*
X5400000Y3219895D01*
D02*
G37*
G36*
X5390000D02*
X5381490Y3217615D01*
X5373510Y3213007D01*
X5366993Y3206490D01*
X5362385Y3198510D01*
X5360105Y3190000D01*
X5390000D01*
Y3219895D01*
D02*
G37*
G36*
X5429895Y3180000D02*
X5400000D01*
Y3150105D01*
X5408510Y3152385D01*
X5416490Y3156993D01*
X5423007Y3163510D01*
X5427615Y3171490D01*
X5429895Y3180000D01*
D02*
G37*
G36*
X5390000D02*
X5360105D01*
X5362385Y3171490D01*
X5366993Y3163510D01*
X5373510Y3156993D01*
X5381490Y3152385D01*
X5390000Y3150105D01*
Y3180000D01*
D02*
G37*
G36*
X7045670Y3038071D02*
X7045000D01*
Y3000000D01*
X7083071D01*
Y3000670D01*
X7080136Y3011625D01*
X7074465Y3021446D01*
X7066446Y3029465D01*
X7056625Y3035136D01*
X7045670Y3038071D01*
D02*
G37*
G36*
X7035000D02*
X7034330D01*
X7023375Y3035136D01*
X7013554Y3029465D01*
X7005535Y3021446D01*
X6999864Y3011625D01*
X6996929Y3000670D01*
Y3000000D01*
X7035000D01*
Y3038071D01*
D02*
G37*
G36*
X7083071Y2990000D02*
X7045000D01*
Y2951929D01*
X7045670D01*
X7056625Y2954864D01*
X7066446Y2960535D01*
X7074465Y2968554D01*
X7080136Y2978375D01*
X7083071Y2989330D01*
Y2990000D01*
D02*
G37*
G36*
X7035000D02*
X6996929D01*
Y2989330D01*
X6999864Y2978375D01*
X7005535Y2968554D01*
X7013554Y2960535D01*
X7023375Y2954864D01*
X7034330Y2951929D01*
X7035000D01*
Y2990000D01*
D02*
G37*
G36*
X4469176Y2973839D02*
X4439078D01*
Y2943740D01*
X4469176D01*
Y2973839D01*
D02*
G37*
G36*
X4067415D02*
X4037316D01*
Y2943740D01*
X4067415D01*
Y2973839D01*
D02*
G37*
G36*
X3465098D02*
X3435000D01*
Y2943740D01*
X3465098D01*
Y2973839D01*
D02*
G37*
G36*
X4429078D02*
X4398980D01*
Y2943740D01*
X4429078D01*
Y2973839D01*
D02*
G37*
G36*
X4027316D02*
X3997218D01*
Y2943740D01*
X4027316D01*
Y2973839D01*
D02*
G37*
G36*
X3425000D02*
X3394902D01*
Y2943740D01*
X3425000D01*
Y2973839D01*
D02*
G37*
G36*
X4469176Y2933740D02*
X4439078D01*
Y2903642D01*
X4469176D01*
Y2933740D01*
D02*
G37*
G36*
X4429078D02*
X4398980D01*
Y2903642D01*
X4429078D01*
Y2933740D01*
D02*
G37*
G36*
X4067415D02*
X4037316D01*
Y2903642D01*
X4067415D01*
Y2933740D01*
D02*
G37*
G36*
X4027316D02*
X3997218D01*
Y2903642D01*
X4027316D01*
Y2933740D01*
D02*
G37*
G36*
X3465098D02*
X3435000D01*
Y2903642D01*
X3465098D01*
Y2933740D01*
D02*
G37*
G36*
X3425000D02*
X3394902D01*
Y2903642D01*
X3425000D01*
Y2933740D01*
D02*
G37*
G36*
X3135000Y2854895D02*
Y2825000D01*
X3164895D01*
X3162615Y2833510D01*
X3158007Y2841490D01*
X3151490Y2848007D01*
X3143510Y2852615D01*
X3135000Y2854895D01*
D02*
G37*
G36*
X3125000D02*
X3116490Y2852615D01*
X3108510Y2848007D01*
X3101993Y2841490D01*
X3097385Y2833510D01*
X3095105Y2825000D01*
X3125000D01*
Y2854895D01*
D02*
G37*
G36*
X3164895Y2815000D02*
X3135000D01*
Y2785105D01*
X3143510Y2787385D01*
X3151490Y2791993D01*
X3158007Y2798510D01*
X3162615Y2806490D01*
X3164895Y2815000D01*
D02*
G37*
G36*
X3125000D02*
X3095105D01*
X3097385Y2806490D01*
X3101993Y2798510D01*
X3108510Y2791993D01*
X3116490Y2787385D01*
X3125000Y2785105D01*
Y2815000D01*
D02*
G37*
G36*
X2750514Y2699623D02*
Y2669117D01*
X2781020D01*
X2778679Y2677854D01*
X2773994Y2685970D01*
X2767367Y2692597D01*
X2759251Y2697282D01*
X2750514Y2699623D01*
D02*
G37*
G36*
X2740514D02*
X2731777Y2697282D01*
X2723661Y2692597D01*
X2717035Y2685970D01*
X2712349Y2677854D01*
X2710008Y2669117D01*
X2740514D01*
Y2699623D01*
D02*
G37*
G36*
X2781020Y2659117D02*
X2750514D01*
Y2628611D01*
X2759251Y2630952D01*
X2767367Y2635637D01*
X2773994Y2642264D01*
X2778679Y2650380D01*
X2781020Y2659117D01*
D02*
G37*
G36*
X2740514D02*
X2710008D01*
X2712349Y2650380D01*
X2717035Y2642264D01*
X2723661Y2635637D01*
X2731777Y2630952D01*
X2740514Y2628611D01*
Y2659117D01*
D02*
G37*
G36*
X2185266Y4085000D02*
X2185000D01*
Y4050000D01*
X2220000D01*
Y4050266D01*
X2217274Y4060439D01*
X2212008Y4069561D01*
X2204561Y4077008D01*
X2195439Y4082274D01*
X2185266Y4085000D01*
D02*
G37*
G36*
X2175000D02*
X2174734D01*
X2164561Y4082274D01*
X2155439Y4077008D01*
X2147992Y4069561D01*
X2142726Y4060439D01*
X2140000Y4050266D01*
Y4050000D01*
X2175000D01*
Y4085000D01*
D02*
G37*
G36*
X2220000Y4040000D02*
X2185000D01*
Y4005000D01*
X2185266D01*
X2195439Y4007726D01*
X2204561Y4012992D01*
X2212008Y4020439D01*
X2217274Y4029561D01*
X2220000Y4039734D01*
Y4040000D01*
D02*
G37*
G36*
X2175000D02*
X2140000D01*
Y4039734D01*
X2142726Y4029561D01*
X2147992Y4020439D01*
X2155439Y4012992D01*
X2164561Y4007726D01*
X2174734Y4005000D01*
X2175000D01*
Y4040000D01*
D02*
G37*
G36*
X3229134Y3847559D02*
X3196575D01*
Y3815000D01*
X3229134D01*
Y3847559D01*
D02*
G37*
G36*
X3186575D02*
X3154016D01*
Y3815000D01*
X3186575D01*
Y3847559D01*
D02*
G37*
G36*
X2710098Y3806260D02*
X2680000D01*
Y3776161D01*
X2710098D01*
Y3806260D01*
D02*
G37*
G36*
X2670000D02*
X2639902D01*
Y3776161D01*
X2670000D01*
Y3806260D01*
D02*
G37*
G36*
X3229134Y3805000D02*
X3196575D01*
Y3772441D01*
X3229134D01*
Y3805000D01*
D02*
G37*
G36*
X3186575D02*
X3154016D01*
Y3772441D01*
X3186575D01*
Y3805000D01*
D02*
G37*
G36*
X3393425Y3847544D02*
Y3815000D01*
X3425969D01*
X3423425Y3824497D01*
X3418480Y3833062D01*
X3411487Y3840055D01*
X3402922Y3844999D01*
X3393425Y3847544D01*
D02*
G37*
G36*
X3383425D02*
X3373928Y3844999D01*
X3365363Y3840055D01*
X3358370Y3833062D01*
X3353426Y3824497D01*
X3350881Y3815000D01*
X3383425D01*
Y3847544D01*
D02*
G37*
G36*
X4457399Y3845026D02*
X4427301D01*
Y3814927D01*
X4457399D01*
Y3845026D01*
D02*
G37*
G36*
X4417301D02*
X4387202D01*
Y3814927D01*
X4417301D01*
Y3845026D01*
D02*
G37*
G36*
X3935098Y3843839D02*
X3905000D01*
Y3813740D01*
X3935098D01*
Y3843839D01*
D02*
G37*
G36*
X3895000D02*
X3864902D01*
Y3813740D01*
X3895000D01*
Y3843839D01*
D02*
G37*
G36*
X3425969Y3805000D02*
X3393425D01*
Y3772456D01*
X3402922Y3775001D01*
X3411487Y3779945D01*
X3418480Y3786938D01*
X3423425Y3795503D01*
X3425969Y3805000D01*
D02*
G37*
G36*
X3383425D02*
X3350881D01*
X3353426Y3795503D01*
X3358370Y3786938D01*
X3365363Y3779945D01*
X3373928Y3775001D01*
X3383425Y3772456D01*
Y3805000D01*
D02*
G37*
G36*
X4895000Y3713090D02*
X4893669D01*
X4881438Y3709813D01*
X4870472Y3703482D01*
X4861518Y3694528D01*
X4855187Y3683562D01*
X4851909Y3671331D01*
Y3670000D01*
X4895000D01*
Y3713090D01*
D02*
G37*
G36*
Y3660000D02*
X4851909D01*
Y3658669D01*
X4855187Y3646438D01*
X4861518Y3635472D01*
X4870472Y3626518D01*
X4881438Y3620187D01*
X4893669Y3616910D01*
X4895000D01*
Y3660000D01*
D02*
G37*
G36*
X7555670Y3493071D02*
X7555000D01*
Y3455000D01*
X7593071D01*
Y3455670D01*
X7590136Y3466625D01*
X7584465Y3476446D01*
X7576446Y3484465D01*
X7566625Y3490136D01*
X7555670Y3493071D01*
D02*
G37*
G36*
X7545000D02*
X7544330D01*
X7533375Y3490136D01*
X7523554Y3484465D01*
X7515535Y3476446D01*
X7509864Y3466625D01*
X7506929Y3455670D01*
Y3455000D01*
X7545000D01*
Y3493071D01*
D02*
G37*
G36*
X7593071Y3445000D02*
X7555000D01*
Y3406929D01*
X7555670D01*
X7566625Y3409864D01*
X7576446Y3415535D01*
X7584465Y3423554D01*
X7590136Y3433375D01*
X7593071Y3444330D01*
Y3445000D01*
D02*
G37*
G36*
X7545000D02*
X7506929D01*
Y3444330D01*
X7509864Y3433375D01*
X7515535Y3423554D01*
X7523554Y3415535D01*
X7533375Y3409864D01*
X7544330Y3406929D01*
X7545000D01*
Y3445000D01*
D02*
G37*
G36*
X7589528Y3159528D02*
X7555000D01*
Y3125000D01*
X7589528D01*
Y3159528D01*
D02*
G37*
G36*
X7545000D02*
X7510472D01*
Y3125000D01*
X7545000D01*
Y3159528D01*
D02*
G37*
G36*
X7589528Y3115000D02*
X7555000D01*
Y3080472D01*
X7589528D01*
Y3115000D01*
D02*
G37*
G36*
X7545000D02*
X7510472D01*
Y3080472D01*
X7545000D01*
Y3115000D01*
D02*
G37*
%LPD*%
D11*
X6842500Y2507500D02*
Y2992500D01*
X6010000Y2490000D02*
X6190000D01*
X5915000Y2585000D02*
X6010000Y2490000D01*
X5915000Y2585000D02*
Y3020000D01*
X4398683Y2490000D02*
X6010000D01*
X5237165Y3020000D02*
X5715000D01*
X5077165Y2860000D02*
X5237165Y3020000D01*
X6192082Y2587918D02*
X6577918D01*
X6190000Y2590000D02*
X6192082Y2587918D01*
X6740000Y2750000D02*
Y2995000D01*
X6577918Y2587918D02*
X6740000Y2750000D01*
X6842500Y2507500D02*
X6845000Y2505000D01*
X6840000Y2995000D02*
X6842500Y2992500D01*
X6942500Y2507500D02*
Y2992500D01*
X6940000Y2995000D02*
X6942500Y2992500D01*
Y2507500D02*
X6945000Y2505000D01*
Y3945000D02*
Y4165000D01*
X6845000Y3945000D02*
Y4165000D01*
X7550000Y3550000D02*
X7805000D01*
X7550000Y3650000D02*
X7805000D01*
X4349433Y2440750D02*
X4398683Y2490000D01*
X3845000Y4465000D02*
X3905000D01*
X3940000Y2239113D02*
X3940641Y2239754D01*
X3939646Y2238759D02*
X3940000Y2239113D01*
X4348437Y2239754D02*
X4349433Y2240750D01*
X2365000Y2462835D02*
X2366282Y2464117D01*
X2745514D01*
X4950769Y2341017D02*
X5261149D01*
X5261725Y2341592D01*
X4950534Y2340782D02*
X4950769Y2341017D01*
X4661985Y2340782D02*
X4950534D01*
X4661952Y2340750D02*
X4661985Y2340782D01*
X5615000Y2342648D02*
X5616056Y2341592D01*
X4434078Y2860000D02*
X4722835D01*
X3431083Y2566083D02*
Y2858917D01*
X3430000Y2860000D02*
X3431083Y2858917D01*
Y2566083D02*
X3432165Y2565000D01*
X4032241Y2565075D02*
Y2859925D01*
X4032165Y2565000D02*
X4032241Y2565075D01*
Y2859925D02*
X4032316Y2860000D01*
X4309250Y2340750D02*
X4349433D01*
X4085000Y2565000D02*
X4309250Y2340750D01*
X4032165Y2565000D02*
X4085000D01*
X3432165D02*
X3677835D01*
X2745956Y2564559D02*
X3077393D01*
X3077835Y2565000D01*
X2745514Y2564117D02*
X2745956Y2564559D01*
X5657165Y4462165D02*
X5765000D01*
X4754803Y4250197D02*
X5100000Y3905000D01*
X5657165Y4462165D01*
X5100000Y3665000D02*
Y3905000D01*
X4325000Y4250197D02*
X4754803D01*
X6180000Y4365000D02*
Y4465000D01*
X5766417Y4463583D02*
X6178583D01*
X5765000Y4462165D02*
X5766417Y4463583D01*
X6178583D02*
X6180000Y4465000D01*
X5764393Y4462772D02*
X5765000Y4462165D01*
X5763786Y4640578D02*
X5764393Y4639971D01*
Y4462772D02*
Y4639971D01*
X5408782Y4462839D02*
Y4639905D01*
X5409455Y4640578D01*
X5408108Y4462165D02*
X5408782Y4462839D01*
X4935549Y4351451D02*
X5297394D01*
X5408108Y4462165D01*
X4934216Y4350118D02*
X4935549Y4351451D01*
X4424803Y4350118D02*
X4934216D01*
X4998583Y3666417D02*
X5000000Y3665000D01*
X4998248Y4108917D02*
X4998583Y4108583D01*
X4997165Y4110000D02*
X4998248Y4108917D01*
X5407025D02*
X5408108Y4107835D01*
X4422300Y3809927D02*
Y4002300D01*
X4530000Y4110000D01*
X4642835D01*
D12*
X3765000Y2810000D02*
X3835000Y2740000D01*
Y2343405D02*
X3939646Y2238759D01*
X3835000Y2343405D02*
Y2740000D01*
X3705000Y3975000D02*
Y4325000D01*
X3845000Y4465000D01*
X6745000Y3945000D02*
Y4431260D01*
D13*
X3388425Y3658425D02*
Y3810000D01*
X2920000Y3190000D02*
X3388425Y3658425D01*
X2415000Y3190000D02*
X2920000D01*
X2365000Y2817165D02*
Y3140000D01*
D14*
X7045000Y3945000D02*
Y4435000D01*
X3940641Y2239754D02*
X4348437D01*
D15*
X6745000Y4431260D02*
D03*
X7045000Y4435000D02*
D03*
X3900000Y3808740D02*
D03*
X3905000Y4386260D02*
D03*
X2675000Y4385000D02*
D03*
Y3811260D02*
D03*
X3430000Y2938740D02*
D03*
X4434078D02*
D03*
X4422300Y3809927D02*
D03*
X4032316Y2938740D02*
D03*
X3939646Y2160019D02*
D03*
X4935549Y4351451D02*
D03*
D16*
X6745000Y4510000D02*
D03*
X7045000Y4513740D02*
D03*
X4935549Y4430191D02*
D03*
X3900000Y3730000D02*
D03*
X3905000Y4465000D02*
D03*
X2675000Y4463740D02*
D03*
Y3890000D02*
D03*
X3430000Y2860000D02*
D03*
X4434078D02*
D03*
X4422300Y3731187D02*
D03*
X4978740Y2573822D02*
D03*
X4032316Y2860000D02*
D03*
X3939646Y2238759D02*
D03*
D17*
X4900000Y3665000D02*
D03*
X5000000D02*
D03*
D18*
X5100000D02*
D03*
D19*
X6190000Y2590000D02*
D03*
X2745514Y2464117D02*
D03*
X6180000Y4565000D02*
D03*
D20*
X6190000Y2490000D02*
D03*
Y2390000D02*
D03*
X2745514Y2664117D02*
D03*
Y2564117D02*
D03*
X6180000Y4365000D02*
D03*
Y4465000D02*
D03*
D21*
X7550000Y3020000D02*
D03*
X6945000Y4165000D02*
D03*
Y2505000D02*
D03*
X6845000D02*
D03*
X7805000Y3650000D02*
D03*
D22*
X7550000Y3120000D02*
D03*
X7805000Y3550000D02*
D03*
D23*
X3181575Y4465000D02*
D03*
X3191575Y3810000D02*
D03*
D24*
X3378425Y4465000D02*
D03*
X3388425Y3810000D02*
D03*
X7550000Y2478425D02*
D03*
Y2281575D02*
D03*
D25*
X2180000Y4245000D02*
D03*
Y4145000D02*
D03*
Y4045000D02*
D03*
D26*
X2365000Y3140000D02*
D03*
X2415000Y3190000D02*
D03*
X2465000Y3140000D02*
D03*
D27*
X2415000Y3090000D02*
D03*
D28*
X2365000Y2817165D02*
D03*
X3677835Y2565000D02*
D03*
X4032165D02*
D03*
X5077165Y2860000D02*
D03*
X4997165Y4110000D02*
D03*
X4642835D02*
D03*
X5261725Y2341592D02*
D03*
X3077835Y2565000D02*
D03*
X3432165D02*
D03*
X5765000Y4107835D02*
D03*
Y4462165D02*
D03*
X5763786Y4640578D02*
D03*
X5409455D02*
D03*
X5408108Y4462165D02*
D03*
Y4107835D02*
D03*
D29*
X2365000Y2462835D02*
D03*
D30*
X4722835Y2860000D02*
D03*
X5616056Y2341592D02*
D03*
D31*
X4900000Y2573822D02*
D03*
D32*
X4661952Y2540750D02*
D03*
Y2440750D02*
D03*
Y2340750D02*
D03*
Y2240750D02*
D03*
X4349433D02*
D03*
Y2340750D02*
D03*
Y2440750D02*
D03*
D33*
Y2540750D02*
D03*
D34*
X7040000Y2995000D02*
D03*
X6940000D02*
D03*
X6840000D02*
D03*
X7550000Y3650000D02*
D03*
Y3550000D02*
D03*
Y3450000D02*
D03*
X6745000Y3945000D02*
D03*
X6845000D02*
D03*
X6945000D02*
D03*
D35*
X6740000Y2995000D02*
D03*
X7045000Y3945000D02*
D03*
D36*
X7550000Y3750000D02*
D03*
D37*
X6845000Y4165000D02*
D03*
D38*
X5915000Y3020000D02*
D03*
X5815000D02*
D03*
D39*
X5715000D02*
D03*
D40*
X4325000Y4250197D02*
D03*
X4424803Y4350118D02*
D03*
X4325000Y4450000D02*
D03*
D41*
X5395000Y3185000D02*
D03*
X7055000Y3260000D02*
D03*
X5100000Y3905000D02*
D03*
X5200000Y4355000D02*
D03*
X2535000Y2555000D02*
D03*
X3075000Y3345000D02*
D03*
X3130000Y2820000D02*
D03*
X6480000Y4110000D02*
D03*
X6250000Y4115000D02*
D03*
X7070000Y3560000D02*
D03*
X6610000Y2270000D02*
D03*
X7085000D02*
D03*
X7550000Y2760000D02*
D03*
X7220000Y4375000D02*
D03*
X7400000Y4215000D02*
D03*
Y4375000D02*
D03*
X7580000D02*
D03*
Y4215000D02*
D03*
X7810000Y3285000D02*
D03*
X7160000Y2735000D02*
D03*
X6575000Y2590000D02*
D03*
X7580000Y4040000D02*
D03*
X3610000Y3630000D02*
D03*
X3800000D02*
D03*
X3705000Y3975000D02*
D03*
X3765000Y2810000D02*
D03*
D42*
X7740000Y4645000D02*
D03*
X7760000Y2170000D02*
D03*
X2220000Y2160000D02*
D03*
X2180000Y4665000D02*
D03*
D43*
X3610000Y3630000D02*
X3800000D01*
%TF.MD5,b95497add2efc54517b71b57ced69b46*%
M02*
