%TF.GenerationSoftware,Altium Limited,Altium Designer,21.2.2 (38)*%
G04 Layer_Color=16711935*
%FSLAX26Y26*%
%MOIN*%
%TF.SameCoordinates,77551777-079B-400F-9D4E-00EB0A9A3649*%
%TF.FilePolarity,Negative*%
%TF.FileFunction,Soldermask,Bot*%
%TF.Part,Single*%
G01*
G75*
%TA.AperFunction,ComponentPad*%
%ADD44R,0.058197X0.058197*%
%ADD45C,0.058197*%
%ADD46C,0.084181*%
%ADD47R,0.084181X0.084181*%
%ADD48R,0.059181X0.059181*%
%ADD49C,0.059181*%
%ADD50C,0.067055*%
%ADD51R,0.067055X0.067055*%
%ADD52R,0.063118X0.063118*%
%ADD53C,0.063118*%
%ADD54C,0.068000*%
%ADD55C,0.054535*%
%ADD56R,0.054535X0.054535*%
%ADD57C,0.061150*%
%ADD58R,0.061150X0.061150*%
%ADD59R,0.061150X0.061150*%
%ADD60R,0.058197X0.058197*%
%ADD61C,0.052606*%
%ADD62R,0.052606X0.052606*%
%ADD63C,0.074142*%
%ADD64R,0.074142X0.074142*%
%ADD65R,0.074142X0.074142*%
%ADD66R,0.067055X0.067055*%
%ADD67C,0.090087*%
%ADD68R,0.090087X0.090087*%
%ADD69C,0.056425*%
%TA.AperFunction,ViaPad*%
%ADD70C,0.058000*%
%ADD71C,0.126110*%
D44*
X6745000Y4431260D02*
D03*
X7045000Y4435000D02*
D03*
X3900000Y3808740D02*
D03*
X3905000Y4386260D02*
D03*
X2675000Y4385000D02*
D03*
Y3811260D02*
D03*
X3430000Y2938740D02*
D03*
X4434078D02*
D03*
X4422300Y3809927D02*
D03*
X4032316Y2938740D02*
D03*
X3939646Y2160019D02*
D03*
X4935549Y4351451D02*
D03*
D45*
X6745000Y4510000D02*
D03*
X7045000Y4513740D02*
D03*
X4935549Y4430191D02*
D03*
X3900000Y3730000D02*
D03*
X3905000Y4465000D02*
D03*
X2675000Y4463740D02*
D03*
Y3890000D02*
D03*
X3430000Y2860000D02*
D03*
X4434078D02*
D03*
X4422300Y3731187D02*
D03*
X4978740Y2573822D02*
D03*
X4032316Y2860000D02*
D03*
X3939646Y2238759D02*
D03*
D46*
X4900000Y3665000D02*
D03*
X5000000D02*
D03*
D47*
X5100000D02*
D03*
D48*
X6190000Y2590000D02*
D03*
X2745514Y2464117D02*
D03*
X6180000Y4565000D02*
D03*
D49*
X6190000Y2490000D02*
D03*
Y2390000D02*
D03*
X2745514Y2664117D02*
D03*
Y2564117D02*
D03*
X6180000Y4365000D02*
D03*
Y4465000D02*
D03*
D50*
X7550000Y3020000D02*
D03*
X6945000Y4165000D02*
D03*
Y2505000D02*
D03*
X6845000D02*
D03*
X7805000Y3650000D02*
D03*
D51*
X7550000Y3120000D02*
D03*
X7805000Y3550000D02*
D03*
D52*
X3181575Y4465000D02*
D03*
X3191575Y3810000D02*
D03*
D53*
X3378425Y4465000D02*
D03*
X3388425Y3810000D02*
D03*
X7550000Y2478425D02*
D03*
Y2281575D02*
D03*
D54*
X2180000Y4245000D02*
D03*
Y4145000D02*
D03*
Y4045000D02*
D03*
D55*
X2365000Y3140000D02*
D03*
X2415000Y3190000D02*
D03*
X2465000Y3140000D02*
D03*
D56*
X2415000Y3090000D02*
D03*
D57*
X2365000Y2817165D02*
D03*
X3677835Y2565000D02*
D03*
X4032165D02*
D03*
X5077165Y2860000D02*
D03*
X4997165Y4110000D02*
D03*
X4642835D02*
D03*
X5261725Y2341592D02*
D03*
X3077835Y2565000D02*
D03*
X3432165D02*
D03*
X5765000Y4107835D02*
D03*
Y4462165D02*
D03*
X5763786Y4640578D02*
D03*
X5409455D02*
D03*
X5408108Y4462165D02*
D03*
Y4107835D02*
D03*
D58*
X2365000Y2462835D02*
D03*
D59*
X4722835Y2860000D02*
D03*
X5616056Y2341592D02*
D03*
D60*
X4900000Y2573822D02*
D03*
D61*
X4661952Y2540750D02*
D03*
Y2440750D02*
D03*
Y2340750D02*
D03*
Y2240750D02*
D03*
X4349433D02*
D03*
Y2340750D02*
D03*
Y2440750D02*
D03*
D62*
Y2540750D02*
D03*
D63*
X7040000Y2995000D02*
D03*
X6940000D02*
D03*
X6840000D02*
D03*
X7550000Y3650000D02*
D03*
Y3550000D02*
D03*
Y3450000D02*
D03*
X6745000Y3945000D02*
D03*
X6845000D02*
D03*
X6945000D02*
D03*
D64*
X6740000Y2995000D02*
D03*
X7045000Y3945000D02*
D03*
D65*
X7550000Y3750000D02*
D03*
D66*
X6845000Y4165000D02*
D03*
D67*
X5915000Y3020000D02*
D03*
X5815000D02*
D03*
D68*
X5715000D02*
D03*
D69*
X4325000Y4250197D02*
D03*
X4424803Y4350118D02*
D03*
X4325000Y4450000D02*
D03*
D70*
X5395000Y3185000D02*
D03*
X7055000Y3260000D02*
D03*
X5100000Y3905000D02*
D03*
X5200000Y4355000D02*
D03*
X2535000Y2555000D02*
D03*
X3075000Y3345000D02*
D03*
X3130000Y2820000D02*
D03*
X6480000Y4110000D02*
D03*
X6250000Y4115000D02*
D03*
X7070000Y3560000D02*
D03*
X6610000Y2270000D02*
D03*
X7085000D02*
D03*
X7550000Y2760000D02*
D03*
X7220000Y4375000D02*
D03*
X7400000Y4215000D02*
D03*
Y4375000D02*
D03*
X7580000D02*
D03*
Y4215000D02*
D03*
X7810000Y3285000D02*
D03*
X7160000Y2735000D02*
D03*
X6575000Y2590000D02*
D03*
X7580000Y4040000D02*
D03*
X3610000Y3630000D02*
D03*
X3800000D02*
D03*
X3705000Y3975000D02*
D03*
X3765000Y2810000D02*
D03*
D71*
X7740000Y4645000D02*
D03*
X7760000Y2170000D02*
D03*
X2220000Y2160000D02*
D03*
X2180000Y4665000D02*
D03*
%TF.MD5,915bfc4077fa8c1adc6ccffbe8cdb4dd*%
M02*
