%TF.GenerationSoftware,Altium Limited,Altium Designer,21.2.2 (38)*%
G04 Layer_Color=16711935*
%FSLAX26Y26*%
%MOIN*%
%TF.SameCoordinates,77551777-079B-400F-9D4E-00EB0A9A3649*%
%TF.FilePolarity,Positive*%
%TF.FileFunction,Other,Mechanical_13*%
%TF.Part,Single*%
G01*
G75*
%TA.AperFunction,NonConductor*%
%ADD72C,0.007874*%
%ADD74C,0.003937*%
D72*
X4325000Y3824528D02*
G03*
X4325000Y4174921I0J175197D01*
G01*
D02*
G03*
X4325000Y3824528I0J-175197D01*
G01*
D74*
X6848346Y4470630D02*
G03*
X6848346Y4470630I-103347J0D01*
G01*
X7148346Y4474370D02*
G03*
X7148346Y4474370I-103347J0D01*
G01*
X3447323Y4465000D02*
G03*
X3447323Y4465000I-167323J0D01*
G01*
X4003347Y3769370D02*
G03*
X4003347Y3769370I-103347J0D01*
G01*
X4008347Y4425630D02*
G03*
X4008347Y4425630I-103347J0D01*
G01*
X3457323Y3810000D02*
G03*
X3457323Y3810000I-167323J0D01*
G01*
X2778347Y4424370D02*
G03*
X2778347Y4424370I-103347J0D01*
G01*
Y3850630D02*
G03*
X2778347Y3850630I-103347J0D01*
G01*
X2415000Y3247008D02*
G03*
X2415000Y3032992I0J-107008D01*
G01*
D02*
G03*
X2415000Y3247008I0J107008D01*
G01*
X3533347Y2899370D02*
G03*
X3533347Y2899370I-103347J0D01*
G01*
X4537425D02*
G03*
X4537425Y2899370I-103347J0D01*
G01*
X4525647Y3770557D02*
G03*
X4525647Y3770557I-103347J0D01*
G01*
X5042717Y2573822D02*
G03*
X5042717Y2573822I-103347J0D01*
G01*
X7717323Y2380000D02*
G03*
X7717323Y2380000I-167323J0D01*
G01*
X4135663Y2899370D02*
G03*
X4135663Y2899370I-103347J0D01*
G01*
X4042992Y2199389D02*
G03*
X4042992Y2199389I-103347J0D01*
G01*
X5038896Y4390821D02*
G03*
X5038896Y4390821I-103347J0D01*
G01*
X5157480Y3539016D02*
X5207480Y3589016D01*
Y3539016D02*
Y3724055D01*
X4792520D02*
X5207480D01*
X4792520Y3539016D02*
Y3724055D01*
Y3539016D02*
X5207480D01*
X6285276Y2302402D02*
Y2677598D01*
X6095118Y2302402D02*
Y2677598D01*
X6285276D01*
X6095118Y2302402D02*
X6285276D01*
X2324449Y3057323D02*
X2333110Y3067165D01*
X2324449Y3057323D02*
X2338228Y3043543D01*
X2352008Y3057323D01*
X2650238Y2751715D02*
X2840396D01*
X2650238Y2376519D02*
X2840396D01*
Y2751715D01*
X2650238Y2376519D02*
Y2751715D01*
X2317756Y2764016D02*
X2412244D01*
Y2515984D02*
Y2764016D01*
X2317756Y2515984D02*
Y2764016D01*
Y2515984D02*
X2412244D01*
X3730984Y2517756D02*
Y2612244D01*
X3979016D01*
X3730984Y2517756D02*
X3979016D01*
Y2612244D01*
X5024016Y2812756D02*
Y2907244D01*
X4775984Y2812756D02*
X5024016D01*
X4775984Y2907244D02*
X5024016D01*
X4775984Y2812756D02*
Y2907244D01*
X4736339Y4146417D02*
X4903661D01*
X4736339Y4073583D02*
Y4146417D01*
X4903661Y4073583D02*
Y4146417D01*
X4736339Y4073583D02*
X4903661D01*
X4370692Y2540750D02*
X4420692Y2590750D01*
X4370692Y2190750D02*
Y2590750D01*
Y2190750D02*
X4640692D01*
Y2590750D01*
X4370692D02*
X4640692D01*
X5314875Y2294348D02*
Y2388836D01*
X5562906D01*
X5314875Y2294348D02*
X5562906D01*
Y2388836D01*
X6685079Y3028071D02*
X6735079Y3078071D01*
X6685079Y2920197D02*
Y3078071D01*
Y2920197D02*
X7094921D01*
Y3078071D01*
X6685079D02*
X7094921D01*
X7633071Y3395079D02*
Y3804921D01*
X7475197Y3395079D02*
X7633071D01*
X7475197D02*
Y3804921D01*
X7633071D01*
X7583071D02*
X7633071Y3754921D01*
X5607913Y3096968D02*
X5657913Y3146968D01*
X5607913Y2963898D02*
Y3146968D01*
Y2963898D02*
X6022087D01*
Y3146968D01*
X5607913D02*
X6022087D01*
X3130984Y2517756D02*
Y2612244D01*
X3379016D01*
X3130984Y2517756D02*
X3379016D01*
Y2612244D01*
X5717756Y4160984D02*
X5812244D01*
X5717756D02*
Y4409016D01*
X5812244Y4160984D02*
Y4409016D01*
X5717756D02*
X5812244D01*
X5710636Y4593334D02*
Y4687823D01*
X5462605Y4593334D02*
X5710636D01*
X5462605Y4687823D02*
X5710636D01*
X5462605Y4593334D02*
Y4687823D01*
X5371691Y4201339D02*
Y4368661D01*
Y4201339D02*
X5444525D01*
X5371691Y4368661D02*
X5444525D01*
Y4201339D02*
Y4368661D01*
X6085118Y4277402D02*
X6275276D01*
X6085118Y4652598D02*
X6275276D01*
X6085118Y4277402D02*
Y4652598D01*
X6275276Y4277402D02*
Y4652598D01*
X7049921Y3861929D02*
X7099921Y3911929D01*
Y3861929D02*
Y4019803D01*
X6690079D02*
X7099921D01*
X6690079Y3861929D02*
Y4019803D01*
Y3861929D02*
X7099921D01*
%TF.MD5,b2fecaf0a7a72c3dd53c4336e6b93a23*%
M02*
