%TF.GenerationSoftware,Altium Limited,Altium Designer,21.2.2 (38)*%
G04 Layer_Color=128*
%FSLAX26Y26*%
%MOIN*%
%TF.SameCoordinates,77551777-079B-400F-9D4E-00EB0A9A3649*%
%TF.FilePolarity,Positive*%
%TF.FileFunction,Drillmap*%
%TF.Part,Single*%
G01*
G75*
%TA.AperFunction,NonConductor*%
%ADD96C,0.005000*%
D96*
X6728268Y4431260D02*
X6761732D01*
X6745000Y4414528D02*
Y4447992D01*
X6728268Y4510000D02*
X6761732D01*
X6745000Y4493268D02*
Y4526732D01*
X7028268Y4435000D02*
X7061732D01*
X7045000Y4418268D02*
Y4451732D01*
X7028268Y4513740D02*
X7061732D01*
X7045000Y4497008D02*
Y4530472D01*
X4874606Y3665000D02*
X4925394D01*
X4900000Y3639606D02*
Y3690394D01*
X4974606Y3665000D02*
X5025394D01*
X5000000Y3639606D02*
Y3690394D01*
X5074606Y3665000D02*
X5125394D01*
X5100000Y3639606D02*
Y3690394D01*
X6174252Y2590000D02*
X6205748D01*
X6190000Y2574252D02*
Y2605748D01*
X6174252Y2490000D02*
X6205748D01*
X6190000Y2474252D02*
Y2505748D01*
X6174252Y2390000D02*
X6205748D01*
X6190000Y2374252D02*
Y2405748D01*
X7532283Y3020000D02*
X7567717D01*
X7550000Y3002284D02*
Y3037716D01*
X7532283Y3120000D02*
X7567717D01*
X7550000Y3102284D02*
Y3137716D01*
X3163858Y4465000D02*
X3199291D01*
X3181575Y4447283D02*
Y4482717D01*
X3360709Y4465000D02*
X3396142D01*
X3378425Y4447283D02*
Y4482717D01*
X4918817Y4430191D02*
X4952282D01*
X4935549Y4413459D02*
Y4446924D01*
X3883268Y3730000D02*
X3916732D01*
X3900000Y3713268D02*
Y3746732D01*
X3883268Y3808740D02*
X3916732D01*
X3900000Y3792008D02*
Y3825472D01*
X3888268Y4465000D02*
X3921732D01*
X3905000Y4448268D02*
Y4481732D01*
X3888268Y4386260D02*
X3921732D01*
X3905000Y4369528D02*
Y4402992D01*
X3370709Y3810000D02*
X3406142D01*
X3388425Y3792284D02*
Y3827716D01*
X3173858Y3810000D02*
X3209291D01*
X3191575Y3792284D02*
Y3827716D01*
X2658268Y4463740D02*
X2691732D01*
X2675000Y4447008D02*
Y4480472D01*
X2658268Y4385000D02*
X2691732D01*
X2675000Y4368268D02*
Y4401732D01*
X2658268Y3890000D02*
X2691732D01*
X2675000Y3873268D02*
Y3906732D01*
X2658268Y3811260D02*
X2691732D01*
X2675000Y3794528D02*
Y3827992D01*
X2160000Y4245000D02*
X2200000D01*
X2180000Y4225000D02*
Y4265000D01*
X2160000Y4145000D02*
X2200000D01*
X2180000Y4125000D02*
Y4165000D01*
X2160000Y4045000D02*
X2200000D01*
X2180000Y4025000D02*
Y4065000D01*
X2352313Y3140000D02*
X2377687D01*
X2365000Y3127313D02*
Y3152687D01*
X2402313Y3190000D02*
X2427687D01*
X2415000Y3177313D02*
Y3202687D01*
X2452313Y3140000D02*
X2477687D01*
X2465000Y3127313D02*
Y3152687D01*
X2402313Y3090000D02*
X2427687D01*
X2415000Y3077313D02*
Y3102687D01*
X2729766Y2664117D02*
X2761262D01*
X2745514Y2648369D02*
Y2679865D01*
X2729766Y2564117D02*
X2761262D01*
X2745514Y2548369D02*
Y2579865D01*
X2729766Y2464117D02*
X2761262D01*
X2745514Y2448369D02*
Y2479865D01*
X2348268Y2817165D02*
X2381732D01*
X2365000Y2800433D02*
Y2833898D01*
X2348268Y2462835D02*
X2381732D01*
X2365000Y2446102D02*
Y2479567D01*
X3413268Y2860000D02*
X3446732D01*
X3430000Y2843268D02*
Y2876732D01*
X3413268Y2938740D02*
X3446732D01*
X3430000Y2922008D02*
Y2955472D01*
X3661102Y2565000D02*
X3694567D01*
X3677835Y2548268D02*
Y2581732D01*
X4015433Y2565000D02*
X4048898D01*
X4032165Y2548268D02*
Y2581732D01*
X5060433Y2860000D02*
X5093898D01*
X5077165Y2843268D02*
Y2876732D01*
X4706102Y2860000D02*
X4739567D01*
X4722835Y2843268D02*
Y2876732D01*
X4417346Y2860000D02*
X4450810D01*
X4434078Y2843268D02*
Y2876732D01*
X4417346Y2938740D02*
X4450810D01*
X4434078Y2922008D02*
Y2955472D01*
X4980433Y4110000D02*
X5013898D01*
X4997165Y4093268D02*
Y4126732D01*
X4626102Y4110000D02*
X4659567D01*
X4642835Y4093268D02*
Y4126732D01*
X4405568Y3731187D02*
X4439033D01*
X4422300Y3714455D02*
Y3747919D01*
X4405568Y3809927D02*
X4439033D01*
X4422300Y3793195D02*
Y3826660D01*
X4962008Y2573822D02*
X4995472D01*
X4978740Y2557090D02*
Y2590555D01*
X4883268Y2573822D02*
X4916732D01*
X4900000Y2557090D02*
Y2590555D01*
X4647523Y2540750D02*
X4676381D01*
X4661952Y2526320D02*
Y2555179D01*
X4647523Y2440750D02*
X4676381D01*
X4661952Y2426320D02*
Y2455179D01*
X4647523Y2340750D02*
X4676381D01*
X4661952Y2326320D02*
Y2355179D01*
X4647523Y2240750D02*
X4676381D01*
X4661952Y2226320D02*
Y2255179D01*
X4335003Y2240750D02*
X4363862D01*
X4349433Y2226320D02*
Y2255179D01*
X4335003Y2340750D02*
X4363862D01*
X4349433Y2326320D02*
Y2355179D01*
X4335003Y2440750D02*
X4363862D01*
X4349433Y2426320D02*
Y2455179D01*
X4335003Y2540750D02*
X4363862D01*
X4349433Y2526320D02*
Y2555179D01*
X5244993Y2341592D02*
X5278457D01*
X5261725Y2324860D02*
Y2358325D01*
X5599324Y2341592D02*
X5632788D01*
X5616056Y2324860D02*
Y2358325D01*
X7017953Y2995000D02*
X7062047D01*
X7040000Y2972953D02*
Y3017047D01*
X6917953Y2995000D02*
X6962047D01*
X6940000Y2972953D02*
Y3017047D01*
X6817953Y2995000D02*
X6862047D01*
X6840000Y2972953D02*
Y3017047D01*
X6717953Y2995000D02*
X6762047D01*
X6740000Y2972953D02*
Y3017047D01*
X7527953Y3750000D02*
X7572047D01*
X7550000Y3727953D02*
Y3772047D01*
X7527953Y3650000D02*
X7572047D01*
X7550000Y3627953D02*
Y3672047D01*
X7527953Y3550000D02*
X7572047D01*
X7550000Y3527953D02*
Y3572047D01*
X7527953Y3450000D02*
X7572047D01*
X7550000Y3427953D02*
Y3472047D01*
X6827283Y4165000D02*
X6862717D01*
X6845000Y4147283D02*
Y4182717D01*
X6927283Y4165000D02*
X6962717D01*
X6945000Y4147283D02*
Y4182717D01*
X7532283Y2478425D02*
X7567717D01*
X7550000Y2460709D02*
Y2496142D01*
X7532283Y2281575D02*
X7567717D01*
X7550000Y2263858D02*
Y2299291D01*
X6927283Y2505000D02*
X6962717D01*
X6945000Y2487284D02*
Y2522716D01*
X6827283Y2505000D02*
X6862717D01*
X6845000Y2487284D02*
Y2522716D01*
X7787283Y3550000D02*
X7822717D01*
X7805000Y3532284D02*
Y3567716D01*
X7787283Y3650000D02*
X7822717D01*
X7805000Y3632284D02*
Y3667716D01*
X5887638Y3020000D02*
X5942362D01*
X5915000Y2992638D02*
Y3047362D01*
X5787638Y3020000D02*
X5842362D01*
X5815000Y2992638D02*
Y3047362D01*
X5687638Y3020000D02*
X5742362D01*
X5715000Y2992638D02*
Y3047362D01*
X4015584Y2860000D02*
X4049049D01*
X4032316Y2843268D02*
Y2876732D01*
X4015584Y2938740D02*
X4049049D01*
X4032316Y2922008D02*
Y2955472D01*
X3922914Y2238759D02*
X3956378D01*
X3939646Y2222027D02*
Y2255491D01*
X3922914Y2160019D02*
X3956378D01*
X3939646Y2143287D02*
Y2176751D01*
X3061102Y2565000D02*
X3094567D01*
X3077835Y2548268D02*
Y2581732D01*
X3415433Y2565000D02*
X3448898D01*
X3432165Y2548268D02*
Y2581732D01*
X4918817Y4351451D02*
X4952282D01*
X4935549Y4334719D02*
Y4368184D01*
X5748268Y4107835D02*
X5781732D01*
X5765000Y4091102D02*
Y4124567D01*
X5748268Y4462165D02*
X5781732D01*
X5765000Y4445433D02*
Y4478898D01*
X5747054Y4640578D02*
X5780519D01*
X5763786Y4623846D02*
Y4657311D01*
X5392723Y4640578D02*
X5426188D01*
X5409455Y4623846D02*
Y4657311D01*
X5391376Y4462165D02*
X5424840D01*
X5408108Y4445433D02*
Y4478898D01*
X5391376Y4107835D02*
X5424840D01*
X5408108Y4091102D02*
Y4124567D01*
X6164252Y4365000D02*
X6195748D01*
X6180000Y4349252D02*
Y4380748D01*
X6164252Y4465000D02*
X6195748D01*
X6180000Y4449252D02*
Y4480748D01*
X6164252Y4565000D02*
X6195748D01*
X6180000Y4549252D02*
Y4580748D01*
X6722953Y3945000D02*
X6767047D01*
X6745000Y3922953D02*
Y3967047D01*
X6822953Y3945000D02*
X6867047D01*
X6845000Y3922953D02*
Y3967047D01*
X6922953Y3945000D02*
X6967047D01*
X6945000Y3922953D02*
Y3967047D01*
X7022953Y3945000D02*
X7067047D01*
X7045000Y3922953D02*
Y3967047D01*
X4310630Y4250197D02*
X4339370D01*
X4325000Y4235827D02*
Y4264567D01*
X4410433Y4350118D02*
X4439173D01*
X4424803Y4335748D02*
Y4364488D01*
X4310630Y4450000D02*
X4339370D01*
X4325000Y4435630D02*
Y4464370D01*
X5381000Y3185000D02*
X5409000D01*
X5395000Y3171000D02*
Y3199000D01*
X7041000Y3260000D02*
X7069000D01*
X7055000Y3246000D02*
Y3274000D01*
X5086000Y3905000D02*
X5114000D01*
X5100000Y3891000D02*
Y3919000D01*
X5186000Y4355000D02*
X5214000D01*
X5200000Y4341000D02*
Y4369000D01*
X2521000Y2555000D02*
X2549000D01*
X2535000Y2541000D02*
Y2569000D01*
X3061000Y3345000D02*
X3089000D01*
X3075000Y3331000D02*
Y3359000D01*
X3116000Y2820000D02*
X3144000D01*
X3130000Y2806000D02*
Y2834000D01*
X6466000Y4110000D02*
X6494000D01*
X6480000Y4096000D02*
Y4124000D01*
X6236000Y4115000D02*
X6264000D01*
X6250000Y4101000D02*
Y4129000D01*
X7056000Y3560000D02*
X7084000D01*
X7070000Y3546000D02*
Y3574000D01*
X6596000Y2270000D02*
X6624000D01*
X6610000Y2256000D02*
Y2284000D01*
X7071000Y2270000D02*
X7099000D01*
X7085000Y2256000D02*
Y2284000D01*
X7536000Y2760000D02*
X7564000D01*
X7550000Y2746000D02*
Y2774000D01*
X7206000Y4375000D02*
X7234000D01*
X7220000Y4361000D02*
Y4389000D01*
X7386000Y4215000D02*
X7414000D01*
X7400000Y4201000D02*
Y4229000D01*
X7386000Y4375000D02*
X7414000D01*
X7400000Y4361000D02*
Y4389000D01*
X7566000Y4375000D02*
X7594000D01*
X7580000Y4361000D02*
Y4389000D01*
X7566000Y4215000D02*
X7594000D01*
X7580000Y4201000D02*
Y4229000D01*
X7796000Y3285000D02*
X7824000D01*
X7810000Y3271000D02*
Y3299000D01*
X7146000Y2735000D02*
X7174000D01*
X7160000Y2721000D02*
Y2749000D01*
X6561000Y2590000D02*
X6589000D01*
X6575000Y2576000D02*
Y2604000D01*
X7566000Y4040000D02*
X7594000D01*
X7580000Y4026000D02*
Y4054000D01*
X7680945Y4645000D02*
X7799055D01*
X7740000Y4585945D02*
Y4704055D01*
X7700945Y2170000D02*
X7819055D01*
X7760000Y2110945D02*
Y2229055D01*
X2160945Y2160000D02*
X2279055D01*
X2220000Y2100945D02*
Y2219055D01*
X2120945Y4665000D02*
X2239055D01*
X2180000Y4605945D02*
Y4724055D01*
X3596000Y3630000D02*
X3624000D01*
X3610000Y3616000D02*
Y3644000D01*
X3786000Y3630000D02*
X3814000D01*
X3800000Y3616000D02*
Y3644000D01*
X3691000Y3975000D02*
X3719000D01*
X3705000Y3961000D02*
Y3989000D01*
X3751000Y2810000D02*
X3779000D01*
X3765000Y2796000D02*
Y2824000D01*
%TF.MD5,75003ccbc33fe89584abfeb07f8c9f77*%
M02*
