M48
;Layer_Color=9474304
;FILE_FORMAT=2:5
INCH,LZ
;TYPE=PLATED
T1F00S00C0.02537
T2F00S00C0.02874
T3F00S00C0.02886
T4F00S00C0.03150
T5F00S00C0.03346
T6F00S00C0.03543
T7F00S00C0.04000
T8F00S00C0.04409
T9F00S00C0.05079
T10F00S00C0.05472
T11F00S00C0.11811
%
T01
X0207Y02775
X0212Y02825
X0217Y02775
X0212Y02725
T02
X0345493Y03465
X0355473Y0356492
X0345493Y036648
T03
X0331126Y02375
Y02475
Y02575
Y02675
X0299874
Y02575
Y02475
Y02375
T04
X0237Y0278
X0247
X0257
X03885Y03365
Y03465
Y03565
T05
X0341783Y02475
X0377217
X0325938Y0285542
X0318064
X0315351Y0298708
X0458364Y0311086
X0279918Y0298708
X028Y0286
Y0278126
Y02555
Y0247626
Y02325
Y0224626
X0259Y0223284
X0247
X0232874Y0237
X0225
X0236717Y0255
X0247Y0258717
X0259
X0201284Y0255
X02245Y0319626
Y03275
Y0346
Y0353874
X0288907Y0353977
Y0346103
X0289Y0330374
Y03225
X0318063Y0315563
X0325937
X0326Y03305
X0361433
X03715Y0336283
Y0371716
X0407767Y0365524
X0422784Y0354
X0422626Y03395
X04305
X0458191Y0342509
Y0334635
X0458364Y031896
X0458216Y0354
X0407767Y0330091
T06
X0382Y0225
X0392
X0406157Y0236
X0425843
X04395Y02455
X04495
X0463Y0246
Y0236
X0266843Y03195
X0247158
Y0354
X0266843
X0418Y0322
X0428
T07
X0204Y03195
Y03295
Y03395
T08
X039Y02635
X04
X041
X042
X0433Y0264
X0443
X0453
X0463
X0437863Y0311209
X0427863
X0417863
X0407863
T09
X03515Y03155
X03615
X03715
T10
X03525Y0259
X03625
X03725
T11
X0452Y02265
X02095Y023
Y0364
X04515Y03655
M30
