M48
;Layer_Color=9474304
;FILE_FORMAT=2:5
INCH,LZ
;TYPE=PLATED
T1F00S00C0.02537
T2F00S00C0.02800
T3F00S00C0.02874
T4F00S00C0.02886
T5F00S00C0.03150
T6F00S00C0.03346
T7F00S00C0.03543
T8F00S00C0.04000
T9F00S00C0.04409
T10F00S00C0.05079
T11F00S00C0.05472
T12F00S00C0.11811
%
T01
X02415Y0309
X02365Y0314
X02415Y0319
X02465Y0314
T02
X0661Y0227
X06575Y0259
X0716Y02735
X0755Y0276
X07085Y0227
X03765Y0281
X0313Y0282
X02535Y02555
X03075Y03345
X0361Y0363
X038
X03705Y03975
X051Y03905
X052Y04355
X05395Y03185
X07055Y0326
X0707Y0356
X0722Y04375
X074
Y04215
X0758
Y04375
Y0404
X0781Y03285
X0648Y0411
X0625Y04115
T03
X04325Y042502
X044248Y0435012
X04325Y0445
T04
X0434943Y0224075
Y0234075
Y0244075
Y0254075
X0466195
Y0244075
Y0234075
Y0224075
T05
X0619Y0239
Y0249
Y0259
X0274551Y0256412
Y0266412
Y0246412
X0618Y04365
Y04465
Y04565
T06
X049Y0257382
X0497874
X0507717Y0286
X0472284
X0526172Y0234159
X0561606
X0443408Y0286
Y0293874
X0403232
Y0286
X0403217Y02565
X0367783
X0343216
X0343Y0286
Y0293874
X0393965Y0223876
Y0216002
X0307784Y02565
X02365Y0246284
Y0281716
X02675Y0381126
Y0389
Y04385
Y0446374
X03905Y04465
Y0438626
X039Y0380874
Y0373
X044223Y0373119
Y0380993
X0464284Y0411
X0499717
X0493555Y0435145
Y0443019
X0540811Y0446216
X0540945Y0464058
X0576379
X05765Y0446216
Y0410783
X0540811
X06745Y0443126
Y0451
X07045Y0451374
Y04435
T07
X06845Y02505
X06945
X0755Y0247843
Y0228157
Y0302
Y0312
X0338843Y0381
X0319158
X0318158Y04465
X0337842
X06845Y04165
X06945
X07805Y0365
Y0355
T08
X0218Y04045
Y04145
Y04245
T09
X0674Y02995
X0684
X0694
X0704
X07045Y03945
X06945
X06845
X06745
X0755Y0375
Y0365
Y0355
Y0345
T10
X049Y03665
X05
X051
T11
X05715Y0302
X05815
X05915
T12
X0776Y0217
X0222Y0216
X0218Y04665
X0774Y04645
M30
